<svg xmlns="http://www.w3.org/2000/svg" viewBox="0 0 91.97 52.54"><defs><style>.cls-1{fill:#ffd32c;}</style></defs><title>map-asia</title><g id="Слой_2" data-name="Слой 2"><g id="Слой_1-2" data-name="Слой 1"><path class="cls-1" d="M30.4,12a1.13,1.13,0,0,1-.57-.15c-.68-.38-.76-1.31-.86-2.48a11.9,11.9,0,0,0-.47-2.78,4.64,4.64,0,0,0-2.25-3c-1.11-.5-2.56-.33-4.58.54-1.2.51-2.07.5-2.6,0a1.8,1.8,0,0,1-.19-2,3.09,3.09,0,0,1,2.55-2C39.31,0,39.31,1.78,39.31,2.54v.15l-1,2.05a22.64,22.64,0,0,1-7,7A2,2,0,0,1,30.4,12ZM24.87,2a4.5,4.5,0,0,1,1.89.39,5.8,5.8,0,0,1,2.93,3.78,12.64,12.64,0,0,1,.52,3.07,5.66,5.66,0,0,0,.24,1.49s.11,0,.28-.13a21.93,21.93,0,0,0,6.44-6.43L38,2.57c-1-.66-6.43-1.32-16.54-1.32-.46,0-1.05.52-1.35,1.18-.21.45-.16.71-.13.74s.26.17,1.23-.24A9.6,9.6,0,0,1,24.87,2Z"/><path class="cls-1" d="M16.15,29.53c-2.17,0-2.94-2.61-3.68-5.13a10.22,10.22,0,0,0-1.55-3.68,7.09,7.09,0,0,1-1.51-3.24c-.57-2-1-3.29-2.85-3.29-2.65,0-4.85-.86-5.9-2.31a3.53,3.53,0,0,1-.44-3.3C1,6.13,6,6.82,11.34,7.56a49.16,49.16,0,0,0,5.77.59c1.63,0,2.61.32,3.09,1,.6.86.2,1.94-.15,2.9a5.78,5.78,0,0,0-.4,1.48c.05.11.35.37,1.3.37s1.12-.46,1.57-1.36a4.88,4.88,0,0,1,.86-1.33,1.5,1.5,0,0,1,1.33-.42c1.33.22,2.75,2,3.51,3.46,1,2-1.12,3.86-2.38,5-.24.21-.46.39-.62.55a67.28,67.28,0,0,1-8.79,5.87c-.1.05-.12.09-.12.09,0,.2.45.9.66,1.2.5.7,1,1.36.65,2A1.54,1.54,0,0,1,16.15,29.53ZM4.31,8.13c-1.54,0-2.7.21-2.91.84a2.29,2.29,0,0,0,.27,2.17c.8,1.11,2.68,1.8,4.89,1.8,2.87,0,3.53,2.33,4.05,4.21a6.31,6.31,0,0,0,1.19,2.69c.89.89,1.37,2.5,1.87,4.21.61,2.08,1.24,4.23,2.48,4.23h.23c-.11-.18-.29-.43-.42-.62-.49-.69-1.05-1.47-.86-2.24a1.36,1.36,0,0,1,.77-.9,66.85,66.85,0,0,0,8.47-5.63c.17-.18.41-.38.68-.62,1.34-1.17,2.61-2.39,2.08-3.45-.77-1.54-2-2.68-2.59-2.78a.23.23,0,0,0-.25.06,4,4,0,0,0-.62,1A2.91,2.91,0,0,1,21,15.15c-2.52,0-2.55-1.52-2.55-1.58a5.76,5.76,0,0,1,.48-1.94c.24-.68.52-1.44.3-1.76-.1-.14-.5-.47-2.07-.47a47.38,47.38,0,0,1-5.95-.61A55.85,55.85,0,0,0,4.31,8.13Z"/><path class="cls-1" d="M25.74,52.54A2.47,2.47,0,0,1,23.2,50a26.84,26.84,0,0,1,.41-3.58,34.92,34.92,0,0,0,.55-5.05,4.76,4.76,0,0,0-1.32-3,6,6,0,0,1-1.56-3.73c0-2.91,0-5.42,2.54-5.42,2,0,4.22,0,5.35,2.26.3.59,1.09.84,1.92,1.1,1.24.38,2.94.92,2.94,3,0,2.93-1.64,7.3-4.08,9.13-2,1.49-2.26,3.52-2.49,5.15C27.29,51.2,27.1,52.54,25.74,52.54ZM24.45,50a1.21,1.21,0,0,0,1.29,1.29c.23,0,.34-.46.49-1.56a8.07,8.07,0,0,1,3-6c2.05-1.54,3.58-5.56,3.58-8.13,0-1.13-.7-1.41-2.06-1.83a4,4,0,0,1-2.66-1.73c-.79-1.57-2.39-1.57-4.24-1.57-1.13,0-1.29.89-1.29,4.17a4.8,4.8,0,0,0,1.31,3,6,6,0,0,1,1.57,3.73,36.75,36.75,0,0,1-.56,5.24A25.59,25.59,0,0,0,24.45,50Z"/><path class="cls-1" d="M80.57,45.83A3.64,3.64,0,0,1,78,44.69c-.94-.94-1.41-.74-2.34-.33a5,5,0,0,1-2,.51,2.33,2.33,0,0,1-2.16-1.71A4.71,4.71,0,0,1,73.29,38c4.45-3.57,6-2.53,7.3-1.17a2.89,2.89,0,0,0,.24.25c1.89,1.89,3.06,3.27,3.06,4.28,0,2.08-.83,3.67-2.21,4.24A2.85,2.85,0,0,1,80.57,45.83ZM76.8,42.77a2.93,2.93,0,0,1,2.11,1,2.12,2.12,0,0,0,2.29.65c.9-.38,1.44-1.53,1.44-3.09,0-.46-.91-1.6-2.69-3.39l-.28-.29c-.79-.86-1.69-1.84-5.6,1.29a3.52,3.52,0,0,0-1.37,3.77c.09.26.37.87,1,.87a3.78,3.78,0,0,0,1.51-.41A4,4,0,0,1,76.8,42.77Z"/><path class="cls-1" d="M65,5.82c4.67,0,16.56,1.28,19.54,1.7s7.22.43,6.79,2.13S86.22,11.77,85.37,13s-1.7,3-2.13,1.28-3.39-1.7-3.82-.85-1.7,5.09-3.4,6.37-.42,4.67-2.12,5.52-3.82,1.27-3.4,2.12S71.78,30,70.93,30s-4.67-3.82-5.52-3.4-.85,5.1-1.7,4.25-3-7.22-4.25-6.8-.42,4.25-1.7,4.25-4.24-1.7-3.82-.85,3.4,3,3,3.82-6-.13-4.67-8.49c.38-2.31,4.63-2.64,1.26-6.62-2.59-3.06,3.93-8,5.11-8.24C60.31,7.52,65,5.82,65,5.82Z"/><path class="cls-1" d="M56.24,32.18a3.28,3.28,0,0,1-1-.18c-.81-.26-4.8-1.94-3.59-9.29a4.06,4.06,0,0,1,1.47-2.25c1.06-1,1.76-1.7-.07-3.86a3.21,3.21,0,0,1-.55-3.23c.93-2.88,4.92-5.76,6-6,1.65-.41,6.26-2.09,6.31-2.1l.21,0c4.67,0,16.56,1.26,19.63,1.7.59.09,1.24.16,1.89.22,2.41.26,4.5.48,5.21,1.5a1.43,1.43,0,0,1,.21,1.18c-.32,1.27-2,1.87-3.67,2.46a6.45,6.45,0,0,0-2.36,1.13c-.12.17-.23.34-.34.52-.66,1-1.18,1.86-2,1.73s-.89-.91-1-1.17a1.4,1.4,0,0,0-1.14-.87,2,2,0,0,0-1.53.16c-.08.17-.21.51-.37.94-.65,1.7-1.74,4.54-3.2,5.64-.62.46-.72,1.43-.81,2.45-.12,1.2-.25,2.54-1.41,3.13-.52.26-1.08.48-1.57.68a7.92,7.92,0,0,0-1.5.7c.6,1.21,1,2.26.65,2.91a.94.94,0,0,1-.83.44c-.54,0-1.17-.45-2.71-1.65a15.4,15.4,0,0,0-2.56-1.76,11.74,11.74,0,0,0-.44,1.88c-.27,1.4-.43,2.25-1.08,2.45a.85.85,0,0,1-.87-.25,11.08,11.08,0,0,1-1.43-2.65c-.55-1.18-1.66-3.6-2.24-4a4.87,4.87,0,0,0-.36,1.69C59.12,27.54,59,29,57.76,29a7,7,0,0,1-2.12-.55c1.19,1.15,2.3,2.24,1.83,3.17A1.29,1.29,0,0,1,56.24,32.18ZM65.09,6.45c-.72.26-4.74,1.71-6.33,2.1-.62.16-4.29,2.7-5.09,5.21a2,2,0,0,0,.31,2c2.6,3.06,1.09,4.51,0,5.57a3.22,3.22,0,0,0-1.1,1.55c-.77,4.68.77,6.63,1.76,7.38a2.93,2.93,0,0,0,1.63.64,12,12,0,0,0-1.52-1.66,7,7,0,0,1-1.35-1.51.78.78,0,0,1,.08-.9c.41-.45,1-.22,2.21.23a8.56,8.56,0,0,0,2.09.62A6.49,6.49,0,0,0,58,26.27c.12-1.14.26-2.44,1.27-2.78C60.52,23.07,61.5,25,63,28.15c.27.57.57,1.23.82,1.71.07-.32.14-.68.2-1,.29-1.54.5-2.5,1.14-2.82.79-.39,1.92.44,3.85,1.94.49.38,1.16.9,1.6,1.19a11.48,11.48,0,0,0-.64-1.44,1,1,0,0,1,0-.86c.26-.67,1.14-1,2.26-1.47a15.85,15.85,0,0,0,1.47-.63c.51-.26.61-1,.72-2.12s.24-2.54,1.31-3.34,2.22-3.62,2.78-5.09c.18-.48.33-.86.43-1.06a2.47,2.47,0,0,1,2.49-.88,2.66,2.66,0,0,1,2.5,1.86h0c.21-.26.47-.67.65-.94s.23-.37.35-.54c.49-.74,1.64-1.15,3-1.62,1.15-.41,2.72-1,2.88-1.59a.16.16,0,0,0,0-.15c-.39-.56-2.66-.8-4.32-1-.66-.07-1.33-.14-1.94-.23C81.41,7.71,69.78,6.47,65.09,6.45Z"/><path class="cls-1" d="M50.12,43.82c-2.4,0-2.8-4-3.16-7.43-.15-1.46-.35-3.47-.68-3.8a4,4,0,0,0-2-.43c-1.85-.16-4.37-.37-5-3.27a6.6,6.6,0,0,1,.88-5.64,3.93,3.93,0,0,1,3.13-1.49,29.25,29.25,0,0,1,3.83.45,21.45,21.45,0,0,0,4.43.42c-.31-.94-2.67-3-4-3-.36,0-.94.08-1.55.15-2.28.29-5.42.69-5.86-1.5-.33-1.66,2.05-3.07,4.34-4.43a13.73,13.73,0,0,0,2.42-1.64,4.37,4.37,0,0,0-.91-.25,2.61,2.61,0,0,1-1.87-.89A1.4,1.4,0,0,1,44,9.92a9.09,9.09,0,0,1,4.72-4.78,2.22,2.22,0,0,1,2.21.18c1.57,1.18,6.08,2.38,7.54,2,1.65-.41,6.26-2.09,6.31-2.1l.21,0c4.67,0,16.56,1.26,19.63,1.7.59.09,1.24.16,1.89.22,2.41.26,4.5.48,5.21,1.5a1.43,1.43,0,0,1,.21,1.18c-.32,1.27-2,1.87-3.67,2.46a6.45,6.45,0,0,0-2.36,1.13c-.12.17-.23.34-.34.52-.66,1-1.18,1.86-2,1.73s-.89-.91-1-1.17a1.4,1.4,0,0,0-1.14-.87,2,2,0,0,0-1.53.16c-.08.17-.21.51-.37.94-.65,1.7-1.74,4.54-3.2,5.64-.62.46-.72,1.43-.81,2.45-.12,1.2-.25,2.54-1.41,3.13-.52.26-1.08.48-1.57.68a7.92,7.92,0,0,0-1.5.7c.6,1.21,1,2.26.65,2.91a.94.94,0,0,1-.83.44c-.54,0-1.17-.45-2.71-1.65a15.4,15.4,0,0,0-2.56-1.76,11.74,11.74,0,0,0-.44,1.88c-.27,1.4-.43,2.25-1.08,2.45a.85.85,0,0,1-.87-.25,11.08,11.08,0,0,1-1.43-2.65c-.55-1.18-1.66-3.6-2.24-4a4.87,4.87,0,0,0-.36,1.69C59.12,27.54,59,29,57.76,29a7,7,0,0,1-2.12-.55c1.19,1.15,2.3,2.24,1.83,3.17a6.08,6.08,0,0,1-2,1.77,10.93,10.93,0,0,0-.93.68C54.45,35.39,53.6,43.82,50.12,43.82ZM43.33,23a2.65,2.65,0,0,0-2.15,1,5.47,5.47,0,0,0-.64,4.59c.41,1.86,1.81,2.12,3.89,2.29a4.4,4.4,0,0,1,2.74.8c.61.62.78,2.06,1,4.55s.64,6.31,1.91,6.31c2,0,3.16-7.06,3.2-8.72,0-.52.48-.86,1.45-1.53a8.29,8.29,0,0,0,1.55-1.24,8.63,8.63,0,0,0-1.59-1.81,7,7,0,0,1-1.35-1.51.78.78,0,0,1,.08-.9c.41-.45,1-.22,2.21.23a8.56,8.56,0,0,0,2.09.62A6.49,6.49,0,0,0,58,26.27c.12-1.14.26-2.44,1.27-2.78C60.52,23.07,61.5,25,63,28.15c.27.57.57,1.23.82,1.71.07-.32.14-.68.2-1,.29-1.54.5-2.5,1.14-2.82.79-.39,1.92.44,3.85,1.94.49.38,1.16.9,1.6,1.19a11.48,11.48,0,0,0-.64-1.44,1,1,0,0,1,0-.86c.26-.67,1.14-1,2.26-1.47a15.85,15.85,0,0,0,1.47-.63c.51-.26.61-1,.72-2.12s.24-2.54,1.31-3.34,2.22-3.62,2.78-5.09c.18-.48.33-.86.43-1.06a2.47,2.47,0,0,1,2.49-.88,2.66,2.66,0,0,1,2.5,1.86h0c.21-.26.47-.67.65-.94s.23-.37.35-.54c.49-.74,1.64-1.15,3-1.62,1.15-.41,2.72-1,2.88-1.59a.16.16,0,0,0,0-.15c-.39-.56-2.66-.8-4.32-1-.66-.07-1.33-.14-1.94-.23-3-.43-14.65-1.67-19.34-1.69-.72.26-4.74,1.71-6.33,2.1-2,.5-6.82-.9-8.59-2.23a1.12,1.12,0,0,0-1,0,8.12,8.12,0,0,0-3.92,3.91.39.39,0,0,0,0,.16c.1.15.72.27,1.06.34.77.15,2,.37,2,1.47,0,.86-1.05,1.52-3.06,2.71-1.36.81-3.91,2.32-3.75,3.12.21,1,2.88.7,4.48.5a16.56,16.56,0,0,1,1.7-.16c2,0,5.3,2.79,5.3,4.45a1,1,0,0,1-.34.73c-.69.59-2.22.42-5.56-.1A29.78,29.78,0,0,0,43.33,23ZM54.57,33.85a.18.18,0,0,1,0,.06A.13.13,0,0,0,54.57,33.85Z"/></g></g></svg>