<svg width="70" height="23" viewBox="0 0 70 23" fill="none" xmlns="http://www.w3.org/2000/svg">
<path d="M45.583 0.0356445C40.6177 0.0356445 36.1805 2.64007 36.1805 7.45195C36.1805 12.9703 44.0501 13.3514 44.0501 16.1237C44.0501 17.2909 42.7282 18.3358 40.4705 18.3358C37.2664 18.3358 34.8716 16.8758 34.8716 16.8758L33.8469 21.7315C33.8469 21.7315 36.6056 22.9648 40.2683 22.9648C45.6969 22.9648 49.9686 20.2325 49.9686 15.3383C49.9686 9.50725 42.0663 9.13743 42.0663 6.56432C42.0663 5.64992 43.1514 4.64802 45.4026 4.64802C47.9427 4.64802 50.0151 5.70987 50.0151 5.70987L51.0179 1.02006C51.0179 1.02006 48.763 0.0356445 45.583 0.0356445ZM0.155264 0.389593L0.0350342 1.09749C0.0350342 1.09749 2.12395 1.48437 4.00535 2.25611C6.42781 3.14107 6.60038 3.65625 7.00836 5.25637L11.4541 22.5998H17.4137L26.5949 0.389593H20.649L14.7495 15.4904L12.3422 2.69025C12.1214 1.22528 11.0031 0.389593 9.63429 0.389593H0.155264ZM28.9858 0.389593L24.3214 22.5998H29.9914L34.6393 0.389593H28.9858ZM60.609 0.389593C59.2417 0.389593 58.5173 1.13034 57.9858 2.42479L49.679 22.5998H55.6249L56.7753 19.2373H64.0191L64.7186 22.5998H69.965L65.3881 0.389593H60.609ZM61.3823 6.39011L63.1447 14.7245H58.423L61.3823 6.39011Z" fill="url(#paint0_linear)"/>
<defs>
<linearGradient id="paint0_linear" x1="0.00893966" y1="7.87076" x2="69.9695" y2="7.87076" gradientUnits="userSpaceOnUse">
<stop stop-color="white"/>
</linearGradient>
</defs>
</svg>
