<svg width="100" height="29" viewBox="0 0 100 29" fill="none" xmlns="http://www.w3.org/2000/svg">
<path d="M9.76258 0.188629C11.7445 0.188629 12.3832 1.59065 12.9117 2.99267C13.1319 3.57504 18.307 17.4658 18.4611 17.8756C18.5052 17.9835 18.4832 18.1776 18.285 18.2423C18.0868 18.307 15.4221 19.3424 15.268 19.3855C15.1138 19.4286 14.9597 19.3639 14.8936 19.2129C14.8276 19.062 13.7265 16.0422 13.5943 15.7187C13.22 15.7187 6.30518 15.7187 5.93081 15.7187C5.79868 16.0638 4.67557 19.0835 4.63153 19.2129C4.58749 19.3424 4.41131 19.4502 4.25716 19.3855C4.10301 19.3208 1.39434 18.307 1.24019 18.2423C1.08604 18.1776 1.01998 18.0051 1.06402 17.8756C1.26221 17.358 6.34922 3.70446 6.61348 2.99267C7.11998 1.61222 7.78063 0.188629 9.76258 0.188629ZM0.66763 25.0152C0.513478 25.0152 0.381348 25.1446 0.381348 25.3171V28.5526C0.381348 28.7251 0.513478 28.8545 0.66763 28.8545H18.8575C19.0117 28.8545 19.1438 28.7251 19.1438 28.5526V25.3171C19.1438 25.1446 19.0117 25.0152 18.8575 25.0152H0.66763ZM9.76258 4.71823L7.16402 12.3323H12.3832L9.7846 4.71823H9.76258ZM77.4352 15.8912C77.4352 16.754 76.9507 17.3148 76.0478 17.3148C75.6954 17.3148 75.4092 17.3148 74.9467 17.1854V14.5755C75.1449 14.5324 75.5853 14.4892 76.0478 14.4892C76.9727 14.5539 77.4352 14.9638 77.4352 15.8912ZM79.285 15.7834C79.285 14.1873 78.338 13.0872 76.312 13.0872C75.8276 13.0872 75.4752 13.1303 74.9467 13.2598V10.9518C75.277 10.9087 75.8496 10.8655 76.4662 10.8655C77.0608 10.8655 77.8095 10.9087 78.4702 10.9734L78.5142 9.63608C77.7655 9.46352 76.6864 9.37725 75.8496 9.37725C75.0128 9.37725 73.7355 9.57137 73.1189 9.74393V18.2423C74.0658 18.5874 75.0128 18.7384 75.9597 18.7384C78.1398 18.7384 79.285 17.5952 79.285 15.7834ZM58.3864 15.3089C58.3864 16.4952 57.9019 17.2717 57.1092 17.2717C56.7788 17.2717 56.6027 17.2501 56.2283 17.1423V13.5833C56.6467 13.3892 56.8669 13.3892 57.1972 13.3892C57.99 13.3676 58.3864 14.0147 58.3864 15.3089ZM52.3305 15.352C52.3305 14.0578 52.7268 13.3676 53.5196 13.3676C53.8499 13.3676 54.0702 13.3676 54.4886 13.5617V17.1207C54.1142 17.2501 53.938 17.2501 53.6077 17.2501C52.7048 17.2717 52.3305 16.5383 52.3305 15.352ZM56.2283 20.6797V18.3502C56.4485 18.4796 56.8889 18.6737 57.6157 18.6737C59.0911 18.6737 60.1702 17.4874 60.1702 15.2873C60.1702 12.9362 59.0911 11.9225 57.3294 11.9225C56.8889 11.9225 56.5806 11.9656 56.2283 12.1381V9.39882H54.5106V12.1597C54.1582 11.9872 53.8499 11.944 53.4095 11.944C51.6478 11.944 50.5687 13.0009 50.5687 15.3304C50.5687 17.509 51.5377 18.6737 53.1232 18.6737C53.872 18.6737 54.3124 18.4796 54.5326 18.3502V20.6797H56.2283ZM43.1254 18.5659V12.3538C42.1785 12.0734 41.4518 11.9656 40.4828 11.9656C39.5138 11.9656 38.8092 12.095 37.8622 12.3538V15.5461C37.8622 16.4089 37.8402 16.6677 37.7521 16.9481C37.664 17.1854 37.5319 17.4874 37.1796 17.7247L37.642 18.7169C39.0294 18.3286 39.5579 17.7462 39.5579 15.8481V13.497C40.0203 13.4323 40.1084 13.4107 40.4828 13.4107C40.8572 13.4107 40.9232 13.4323 41.3857 13.497V18.5659H43.1254ZM64.4424 17.207C64.068 17.3364 63.8037 17.358 63.5175 17.358C62.9008 17.358 62.5485 17.1207 62.5485 16.4952C62.5485 15.8481 62.9889 15.6324 63.8478 15.6324C64.046 15.6324 64.2662 15.654 64.3543 15.6971V16.1716C64.3543 16.6677 64.3763 16.9913 64.4424 17.207ZM66.6445 17.9619C66.1821 17.2717 66.072 16.8834 66.072 16.0207V14.2735C66.072 13.346 65.9619 13.0009 65.6976 12.6342C65.3453 12.1597 64.7727 11.944 63.6716 11.944C62.9009 11.944 62.1521 12.0303 61.4474 12.2029L61.7117 13.4539C62.1962 13.3892 62.7027 13.3245 63.077 13.3245C64.2221 13.3245 64.3543 13.497 64.3543 14.3382V14.6618C64.09 14.5971 63.8037 14.5539 63.4734 14.5539C61.7337 14.5539 60.8308 15.3736 60.8308 16.754C60.8308 18.0266 61.7998 18.7384 62.9889 18.7384C63.4294 18.7384 63.8918 18.6521 64.2662 18.5012C64.4864 18.4149 64.5745 18.3502 64.8608 18.156C65.0369 18.4149 65.3893 18.6521 65.5214 18.6953L66.6445 17.9619ZM83.5352 17.207C83.1608 17.3364 82.8965 17.358 82.6102 17.358C81.9936 17.358 81.6413 17.1207 81.6413 16.4952C81.6413 15.8481 82.0817 15.6324 82.9406 15.6324C83.1608 15.6324 83.359 15.654 83.4471 15.6971V16.1716C83.4471 16.6677 83.4911 16.9913 83.5352 17.207ZM85.7373 17.9619C85.2749 17.2717 85.1648 16.8834 85.1648 16.0207V14.2735C85.1648 13.346 85.0546 13.0009 84.8124 12.6342C84.4601 12.1597 83.8655 11.944 82.7864 11.944C82.0157 11.944 81.2669 12.0303 80.5622 12.2029L80.8265 13.4539C81.311 13.3892 81.8175 13.3245 82.1918 13.3245C83.337 13.3245 83.4691 13.497 83.4691 14.3382V14.6618C83.2268 14.5971 82.9185 14.5539 82.5882 14.5539C80.8485 14.5539 79.9456 15.3736 79.9456 16.754C79.9456 18.0266 80.9146 18.7384 82.1037 18.7384C82.5442 18.7384 83.0066 18.6521 83.381 18.5012C83.6012 18.4149 83.6893 18.3502 83.9756 18.156C84.1518 18.4149 84.5041 18.6521 84.6362 18.6953L85.7373 17.9619ZM48.0362 16.3442C48.0362 16.9697 47.816 17.4227 46.9792 17.4227C46.6929 17.4227 46.5828 17.4227 46.2305 17.3148V15.4599C46.6929 15.3736 46.7149 15.352 46.9792 15.352C47.772 15.352 48.0362 15.7403 48.0362 16.3442ZM44.4907 12.0519V18.2208C45.3055 18.5659 46.2084 18.7169 47.0232 18.7169C48.8731 18.7169 49.842 17.7894 49.842 16.2579C49.842 14.8775 48.9611 14.0147 47.3315 14.0147C46.9131 14.0147 46.6709 14.0578 46.2305 14.1657V12.0519H44.4907ZM92.0796 18.5659V12.1166H90.3399V14.5539H88.3799V12.1166H86.6402V18.5659H88.3799V15.9344H90.3399V18.5659H92.0796ZM99.1926 18.5659C99.1926 18.5659 98.2456 16.5815 98.0254 16.1501C97.7611 15.654 97.5189 15.2873 96.9904 15.1579V15.1363C97.3427 15.0716 97.629 14.8559 97.9373 14.2088C98.2236 13.5833 98.3117 13.4323 98.4879 13.3029C98.664 13.1519 98.8843 13.2166 98.8843 13.2166L98.9723 12.0519C98.7301 12.0087 98.4438 12.0087 98.1575 12.0303C97.6951 12.0519 97.4528 12.1813 97.2106 12.4185C97.0344 12.5911 96.9023 12.8499 96.7482 13.1519C96.594 13.4755 96.4619 13.7343 96.2857 14.0794C96.1095 14.4245 96.0435 14.5755 95.581 14.5755H95.2947V12.1166H93.555V18.5659H95.2947V15.9344H95.537C96.0214 15.9344 96.1095 16.0638 96.3738 16.5599C96.6821 17.1638 97.2546 18.5659 97.2546 18.5659H99.1926ZM34.6471 18.5659H36.651L33.6341 9.5498C33.3258 9.44195 32.9294 9.37725 32.511 9.37725C32.0485 9.37725 31.8944 9.44195 31.542 9.5498L28.3489 18.5659H30.2647C30.2647 18.5659 30.529 17.7678 30.8373 16.7972H34.1406C34.4048 17.7894 34.6471 18.5659 34.6471 18.5659ZM31.2777 15.2873C31.2777 15.2873 31.8283 13.4755 31.9164 13.1951C32.1366 12.4617 32.4669 11.2969 32.4669 11.2969H32.511C32.511 11.2969 32.8193 12.5048 33.0175 13.1735C33.1055 13.4323 33.6341 15.2657 33.6341 15.2657H31.2777V15.2873ZM69.5954 14.252C68.9788 14.252 68.4944 14.7481 68.4944 15.3304C68.4944 15.9344 68.9788 16.4089 69.5954 16.4089C70.212 16.4089 70.6965 15.9344 70.6965 15.3304C70.6965 14.7481 70.19 14.252 69.5954 14.252Z" fill="#EE3524"/>
</svg>
