<svg xmlns="http://www.w3.org/2000/svg" viewBox="0 0 50.25 33.74"><defs><style>.cls-1{fill:#ffd32c;}</style></defs><title>foot</title><g id="Слой_2" data-name="Слой 2"><g id="Слой_1-2" data-name="Слой 1"><path class="cls-1" d="M46.88,28.25H3.37A3.37,3.37,0,0,1,0,24.88V3.37A3.37,3.37,0,0,1,3.37,0H19.62c.72,0,.81.68,1,1.82.31,2.27,1,7,5.41,10.3,4.08,3,7.38,3.46,10.56,3.88A19.86,19.86,0,0,1,46,19.1c2.39,1.6,4.09,5.27,3.44,7.43A2.42,2.42,0,0,1,46.88,28.25ZM3.37,1.25A2.12,2.12,0,0,0,1.25,3.37V24.88A2.12,2.12,0,0,0,3.37,27H46.88c1,0,1.22-.48,1.33-.83.49-1.62-1.05-4.77-2.93-6C42,18,39.3,17.62,36.4,17.24c-3.34-.44-6.8-.89-11.15-4.11C20.39,9.52,19.69,4.43,19.35,2c0-.26-.07-.54-.11-.74Z"/><path class="cls-1" d="M48.58,33.74H1.67A1.68,1.68,0,0,1,0,32.06V28.67A1.67,1.67,0,0,1,1.67,27H48.58a1.67,1.67,0,0,1,1.67,1.67v3.39A1.68,1.68,0,0,1,48.58,33.74ZM1.67,28.25a.42.42,0,0,0-.42.42v3.39a.43.43,0,0,0,.42.43H48.58a.43.43,0,0,0,.42-.43V28.67a.42.42,0,0,0-.42-.42Z"/><path class="cls-1" d="M12.12,21.25a5.13,5.13,0,1,1,5.13-5.13A5.13,5.13,0,0,1,12.12,21.25Zm0-9A3.88,3.88,0,1,0,16,16.12,3.88,3.88,0,0,0,12.12,12.25Z"/><rect class="cls-1" x="31.08" y="21.79" width="11.98" height="1.25" transform="translate(-0.73 43.59) rotate(-60.41)"/><path d="M23.62,15.25a.58.58,0,0,1-.37-.13.62.62,0,0,1-.13-.87l3-4a.63.63,0,0,1,.88-.13.62.62,0,0,1,.12.88l-3,4A.63.63,0,0,1,23.62,15.25Z"/><path d="M27.12,17.75a.58.58,0,0,1-.37-.13.62.62,0,0,1-.13-.87l3-4a.64.64,0,0,1,.88-.13.62.62,0,0,1,.12.88l-3,4A.63.63,0,0,1,27.12,17.75Z"/><path d="M31.12,19.75a.58.58,0,0,1-.37-.13.62.62,0,0,1-.13-.87l3-4a.63.63,0,0,1,.88-.13.62.62,0,0,1,.12.88l-3,4A.63.63,0,0,1,31.12,19.75Z"/></g></g></svg>