<svg xmlns="http://www.w3.org/2000/svg" viewBox="0 0 53.06 48.25"><defs><style>.cls-1{fill:#ffd32c;}.cls-2{fill:#fff;}</style></defs><title>friends_1</title><g id="Слой_2" data-name="Слой 2"><g id="Слой_1-2" data-name="Слой 1"><path class="cls-1" d="M10.66,23.12H9.41v-6A17.14,17.14,0,0,1,26.53,0c9.29,0,17.13,7.16,17.13,15.62H42.41c0-7.79-7.27-14.37-15.88-14.37A15.89,15.89,0,0,0,10.66,17.12Z"/><path class="cls-1" d="M26.53,48.25A17.14,17.14,0,0,1,9.41,31.12v-3h1.25v3a15.88,15.88,0,1,0,31.75,0v-10h1.25v10A17.14,17.14,0,0,1,26.53,48.25Z"/><path class="cls-1" d="M9.38,28.43c-5.18,0-8.87-.86-9.33-2.94-.62-2.8,4.76-5.66,9.37-7.57l.48,1.16C3.15,21.87,1,24.13,1.27,25.22c.55,2.48,11.54,3,26.42-.35S52.35,16.51,51.8,14c-.21-.92-3.34-1.86-9.76-1.78L42,11c4.73-.07,10.46.36,11,2.76C54,18,40.8,23.25,28,26.09A91.38,91.38,0,0,1,9.38,28.43Z"/><rect class="cls-1" x="9.91" y="10.81" width="30.86" height="1.25" transform="translate(-1.79 5.38) rotate(-11.71)"/><path class="cls-1" d="M10,23.25a.62.62,0,0,1-.61-.5A.63.63,0,0,1,9.9,22l33-7a.63.63,0,0,1,.74.49.62.62,0,0,1-.48.74l-33,7Z"/><path class="cls-1" d="M10.33,35.71A10.55,10.55,0,0,1,4,27.57l1.24-.17a9.57,9.57,0,0,0,2.26,4.78,10,10,0,0,0,3.25,2.34Z"/><path class="cls-1" d="M42.31,37.38l-.6-1.09s3.91-2.18,5.8-5c1.54-2.3.94-10.2.58-13l1.24-.15c.05.43,1.33,10.73-.78,13.89A20.24,20.24,0,0,1,42.31,37.38Z"/><path class="cls-2" d="M31,38.12a4,4,0,1,1-8,0"/><path class="cls-2" d="M31.83,31.3a2.35,2.35,0,0,1,4.7,0"/><path class="cls-2" d="M16.53,31.3a2.36,2.36,0,0,1,4.71,0"/></g></g></svg>