<svg id="Слой_1" data-name="Слой 1" xmlns="http://www.w3.org/2000/svg" viewBox="0 0 30 30"><defs><style>.cls-1{fill:#1e0f00;}</style></defs><title>right</title><path class="cls-1" d="M15,29.68A14.68,14.68,0,1,1,29.68,15,14.7,14.7,0,0,1,15,29.68ZM15,1.32A13.68,13.68,0,1,0,28.68,15,13.7,13.7,0,0,0,15,1.32Z"/><path class="cls-1" d="M22,15.5H8a.5.5,0,1,1,0-1H22a.5.5,0,0,1,0,1Z"/><path class="cls-1" d="M17.62,19.85a.49.49,0,0,1-.35-.15.5.5,0,0,1,0-.71l4-4-4-4a.5.5,0,0,1,0-.71.51.51,0,0,1,.71,0l4.34,4.35a.48.48,0,0,1,0,.7L18,19.7A.51.51,0,0,1,17.62,19.85Z"/></svg>