<svg id="Слой_1" data-name="Слой 1" xmlns="http://www.w3.org/2000/svg" viewBox="0 0 30 30"><defs><style>.cls-1{fill:#1e0f00;}</style></defs><title>left</title><path class="cls-1" d="M15,.32A14.68,14.68,0,1,1,.32,15,14.7,14.7,0,0,1,15,.32Zm0,28.36A13.68,13.68,0,1,0,1.32,15,13.7,13.7,0,0,0,15,28.68Z"/><path class="cls-1" d="M8,14.5H22a.5.5,0,0,1,0,1H8a.5.5,0,1,1,0-1Z"/><path class="cls-1" d="M12.38,10.15a.49.49,0,0,1,.35.15.5.5,0,0,1,0,.71l-4,4,4,4a.5.5,0,0,1,0,.71.5.5,0,0,1-.7,0L7.68,15.35a.48.48,0,0,1,0-.7L12,10.3A.47.47,0,0,1,12.38,10.15Z"/></svg>