<svg xmlns="http://www.w3.org/2000/svg" viewBox="0 0 21.7 28.56"><title>icon_start</title><g id="Слой_2" data-name="Слой 2"><g id="Слой_1-2" data-name="Слой 1"><path d="M10.85,28.56C8.5,28.56,0,16.67,0,11.07A11,11,0,0,1,10.85,0,11,11,0,0,1,21.7,11.07C21.7,16.67,13.2,28.56,10.85,28.56Zm0-27.31a9.72,9.72,0,0,0-9.6,9.82c0,5.4,8.23,15.9,9.64,16.24,1.32-.34,9.56-10.84,9.56-16.24A9.72,9.72,0,0,0,10.85,1.25Z"/><path d="M8.63,14.82a3.93,3.93,0,0,0,2,.6c1.09,0,1.6-.55,1.6-1.23s-.42-1.11-1.53-1.52c-1.49-.53-2.19-1.34-2.19-2.33a2.56,2.56,0,0,1,2.85-2.43,4,4,0,0,1,2,.52L13,9.52A3.18,3.18,0,0,0,11.31,9c-.89,0-1.38.51-1.38,1.13s.49,1,1.57,1.39c1.43.55,2.16,1.27,2.16,2.49,0,1.46-1.12,2.48-3.08,2.48A4.7,4.7,0,0,1,8.26,16Z"/></g></g></svg>