<svg xmlns="http://www.w3.org/2000/svg" viewBox="0 0 54.25 43.25"><defs><style>.cls-1{fill:#ffd32c;}</style></defs><title>nutrition</title><g id="Слой_2" data-name="Слой 2"><g id="Слой_1-2" data-name="Слой 1"><path d="M43.62,18.25a.63.63,0,0,1-.53-.94l10-17a.61.61,0,0,1,.85-.22.61.61,0,0,1,.22.85l-10,17A.61.61,0,0,1,43.62,18.25Z"/><path class="cls-1" d="M25.12,43.25A25.15,25.15,0,0,1,0,18.13V17.5H50.25v.63A25.15,25.15,0,0,1,25.12,43.25ZM1.26,18.75a23.87,23.87,0,0,0,47.73,0Z"/><path class="cls-1" d="M22.25,18.13H21a7.88,7.88,0,1,0-15.75,0H4a9.13,9.13,0,1,1,18.25,0Z"/><path class="cls-1" d="M44.25,18.13H43a10.38,10.38,0,1,0-20.75,0H21a11.63,11.63,0,1,1,23.25,0Z"/></g></g></svg>