<svg xmlns="http://www.w3.org/2000/svg" viewBox="0 0 60.02 26.92"><defs><style>.cls-1{fill:#ffd32c;}</style></defs><title>fly</title><g id="Слой_2" data-name="Слой 2"><g id="Слой_1-2" data-name="Слой 1"><path class="cls-1" d="M14.43,26.92a5.4,5.4,0,0,1-2.4-.38C9.5,25.1.53,14.52.15,14.08a.63.63,0,0,1,.31-1l8.67-2.4a.62.62,0,0,1,.58.13l5.2,4.49,4.42-1.22L8.65,3.47a.63.63,0,0,1,.27-1.05L17.6,0a.64.64,0,0,1,.41,0l17.51,7.5c.78-.09,4.37-.52,8.72-1.41,6.69-1.38,14.59-.09,15.67,4.41.86,3.54-3.24,6.93-10.95,9.06C42.21,21.48,21.93,26.92,14.43,26.92ZM1.74,14c2.93,3.43,9.11,10.42,10.91,11.44s13.52-.82,36-7c8.22-2.28,10.59-5.4,10.07-7.57-.71-2.95-6.59-5-14.21-3.48-5,1-9,1.44-9,1.45a.65.65,0,0,1-.31-.05L17.72,1.29,10.3,3.34,21,13.94A.63.63,0,0,1,20.7,15l-5.78,1.6a.65.65,0,0,1-.57-.13L9.14,12Z"/><circle cx="27.65" cy="17.6" r="1.5"/><circle cx="33.44" cy="16" r="1.5"/><circle cx="40.18" cy="14.13" r="1.5"/><circle cx="46.93" cy="12.26" r="1.5"/></g></g></svg>