<svg xmlns="http://www.w3.org/2000/svg" viewBox="0 0 74.75 36.59"><defs><style>.cls-1{fill:#ffd32c;}</style></defs><title>distance</title><g id="Слой_2" data-name="Слой 2"><g id="Слой_1-2" data-name="Слой 1"><path d="M21.16,36.59a21.4,21.4,0,0,1-7.78-1.39.63.63,0,1,1,.49-1.15,21.34,21.34,0,0,0,14.54,0c2.32-.87,4.07-1.67,5.49-2.31,3.48-1.59,5.4-2.46,9.83-1.72,5.68.94,11.5-3.87,14.45-6.83s9.91-6,10.2-6.13a.63.63,0,0,1,.49,1.15c-.07,0-6.92,3-9.8,5.87-3.13,3.12-9.3,8.21-15.55,7.17-4.05-.68-5.64.05-9.11,1.63-1.42.65-3.2,1.45-5.57,2.34A21.71,21.71,0,0,1,21.16,36.59Z"/><path class="cls-1" d="M13.62,35.25C11.07,35.25,0,21.06,0,13.62a13.63,13.63,0,0,1,27.25,0C27.25,21.06,16.18,35.25,13.62,35.25Zm0-34A12.39,12.39,0,0,0,1.25,13.62c0,7.16,10.84,20.14,12.39,20.38C15.16,33.76,26,20.78,26,13.62A12.39,12.39,0,0,0,13.62,1.25Z"/><path class="cls-1" d="M68.62,17.75c-2,0-6.12-7.47-6.12-9.7a6.13,6.13,0,1,1,12.25,0C74.75,10.28,70.63,17.75,68.62,17.75Zm0-14.69a4.94,4.94,0,0,0-4.87,5c0,2.66,3.81,7.68,4.87,8.4,1.07-.72,4.88-5.74,4.88-8.4A4.94,4.94,0,0,0,68.62,3.06Z"/></g></g></svg>