<svg xmlns="http://www.w3.org/2000/svg" viewBox="0 0 20.8 18.75"><defs><style>.cls-1{fill:#eaeaea;}.cls-2{fill:#fff;}</style></defs><title>load</title><g id="Слой_2" data-name="Слой 2"><g id="Слой_1-2" data-name="Слой 1"><path class="cls-1" d="M3.48,18.64H6.17a.94.94,0,0,0,.93-.8c.11-.82.43-2,1.32-2s1.21,1.15,1.33,2a.92.92,0,0,0,.92.8h2.38a.93.93,0,0,0,.93-.91c0-2.16.27-7.4,1.37-7.4,1.39,0,3.32,1.58,3.32,4.35,0,5.2-2.87,1.29-3,2-.2,1.38,2.72,4.71,4.7-1.73C21.69,10.74,19.91.32,14.46.08a4.94,4.94,0,0,0-5.2,4.7c0,2.92,5.45,6.68,1,4-4.93-3,0-7.67-.74-8.42S1.09-.42.1,6.27c-.62,4.21,1.73,10,2.52,11.82A.93.93,0,0,0,3.48,18.64Z"/><circle class="cls-2" cx="15.58" cy="6.39" r="0.87"/></g></g></svg>