<svg id="Слой_1" data-name="Слой 1" xmlns="http://www.w3.org/2000/svg" viewBox="0 0 93.12 24.25"><defs><style>.cls-1{fill:#1e0f00;}</style></defs><title>logo2</title><path class="cls-1" d="M2.27,12.29H6.81v1.29H6.39a1,1,0,0,0-.47.07.39.39,0,0,0-.18.2,2,2,0,0,0,0,.56V16H9.07V14.29a1.5,1.5,0,0,0,0-.44.32.32,0,0,0-.18-.21,1.59,1.59,0,0,0-.56-.06H7.94V12.29h4.55v1.29h-.38a1.37,1.37,0,0,0-.51.06.34.34,0,0,0-.18.19,2.09,2.09,0,0,0-.05.58v5a1.52,1.52,0,0,0,.07.6.35.35,0,0,0,.19.19,1.8,1.8,0,0,0,.6.06h.26v1.29H7.94V20.3h.3a1.47,1.47,0,0,0,.57-.07A.39.39,0,0,0,9,20a2.24,2.24,0,0,0,.05-.59v-2H5.69v2a2.26,2.26,0,0,0,0,.58.37.37,0,0,0,.2.22,2.22,2.22,0,0,0,.57.05h.31v1.29H2.27V20.3h.31a1.36,1.36,0,0,0,.54-.07.38.38,0,0,0,.21-.18,1.46,1.46,0,0,0,.06-.53v-5a2,2,0,0,0-.06-.62.46.46,0,0,0-.18-.21,1.16,1.16,0,0,0-.46-.06H2.27Z"/><path class="cls-1" d="M16.86,12.29H19l2.79,7.18a1.73,1.73,0,0,0,.41.7,1.09,1.09,0,0,0,.64.13v1.29H18.4V20.3h.26a1.07,1.07,0,0,0,.52-.09.31.31,0,0,0,.14-.24,2.11,2.11,0,0,0-.12-.49l-.28-.85H16.09l-.35.94a1.51,1.51,0,0,0-.1.39.31.31,0,0,0,.07.2.53.53,0,0,0,.25.12,3.72,3.72,0,0,0,.63,0v1.29H13V20.3a1.6,1.6,0,0,0,.51-.06.68.68,0,0,0,.26-.18,1.51,1.51,0,0,0,.23-.45Zm-.28,5h1.85l-.9-2.55Z"/><path class="cls-1" d="M23.33,13.58V12.29h5.28a5.17,5.17,0,0,1,1.91.28,2.27,2.27,0,0,1,1.06.82A2,2,0,0,1,32,14.55a2,2,0,0,1-.2.87,2.1,2.1,0,0,1-.57.73,2.83,2.83,0,0,1-1,.52,4.54,4.54,0,0,1,1,.37,2.11,2.11,0,0,1,.79.78A2.17,2.17,0,0,1,32.3,19a2.29,2.29,0,0,1-.45,1.36,2.85,2.85,0,0,1-1.26,1,6.63,6.63,0,0,1-2.38.33H23.33V20.3h.37a1.37,1.37,0,0,0,.5-.06.52.52,0,0,0,.18-.18,1.54,1.54,0,0,0,.05-.53V14.35a1.5,1.5,0,0,0-.05-.53.52.52,0,0,0-.18-.18,1.37,1.37,0,0,0-.5-.06Zm3.4,2.47h1a3.9,3.9,0,0,0,1.19-.13,1.16,1.16,0,0,0,.57-.4,1.1,1.1,0,0,0,0-1.25A1,1,0,0,0,29,13.9a4.82,4.82,0,0,0-1.24-.11h-1Zm0,1.37v2a2.52,2.52,0,0,0,0,.5.18.18,0,0,0,.11.13,1.12,1.12,0,0,0,.41,0H28A3.84,3.84,0,0,0,29,20a1.25,1.25,0,0,0,.66-.46,1.32,1.32,0,0,0,.28-.83,1.2,1.2,0,0,0-.2-.7,1.13,1.13,0,0,0-.58-.43,3.41,3.41,0,0,0-1.17-.15Z"/><path class="cls-1" d="M40.32,12.29h.94l.91,3.34L40.93,16a6.38,6.38,0,0,0-1.16-1.7,2.46,2.46,0,0,0-1.65-.68,2.22,2.22,0,0,0-1.21.36A2.48,2.48,0,0,0,36,15a3.78,3.78,0,0,0-.33,1.64,4,4,0,0,0,.76,2.46,2.34,2.34,0,0,0,2,1,2.79,2.79,0,0,0,1.5-.45,5.1,5.1,0,0,0,1.55-1.49l1,.77a7.66,7.66,0,0,1-1.83,1.91,5.16,5.16,0,0,1-2.87.84,4.55,4.55,0,0,1-4.07-2.4,5,5,0,0,1-.63-2.47,4.88,4.88,0,0,1,.62-2.43,4.5,4.5,0,0,1,1.67-1.71,4.65,4.65,0,0,1,2.37-.61,4.73,4.73,0,0,1,2.33.56Z"/><path class="cls-1" d="M43.9,12h.88l.09.31h5.24l.11-.31h.89l1.15,3.25L51,15.67a8.57,8.57,0,0,0-.59-1.06,2.81,2.81,0,0,0-.81-.77,1.32,1.32,0,0,0-.69-.21.26.26,0,0,0-.22.07.7.7,0,0,0-.06.36V19.4a2.31,2.31,0,0,0,0,.59.36.36,0,0,0,.11.19.45.45,0,0,0,.22.1c.09,0,.34,0,.75,0v1.29H45.23V20.3h.28a1.69,1.69,0,0,0,.58-.06.34.34,0,0,0,.19-.2,1.49,1.49,0,0,0,.07-.59V14a.57.57,0,0,0-.05-.29.32.32,0,0,0-.23-.06,1.53,1.53,0,0,0-.77.26,2.5,2.5,0,0,0-.76.73A11.07,11.07,0,0,0,44,15.67l-1.22-.44Z"/><path class="cls-1" d="M52.83,12.29h4.91a5.31,5.31,0,0,1,1.56.19,3,3,0,0,1,1.06.58A2.65,2.65,0,0,1,61,14a2.72,2.72,0,0,1,.24,1.12,2.55,2.55,0,0,1-.92,2,3.68,3.68,0,0,1-2.53.81H56.25v1.74a1.16,1.16,0,0,0,0,.41.39.39,0,0,0,.19.19,1,1,0,0,0,.41.06h.48v1.29H52.83V20.3h.31a1.56,1.56,0,0,0,.55-.06.37.37,0,0,0,.2-.19,1.57,1.57,0,0,0,.06-.54V14.4a2.12,2.12,0,0,0-.05-.56.39.39,0,0,0-.18-.2,1,1,0,0,0-.44-.06h-.45Zm3.42,1.52v2.64H57a2.82,2.82,0,0,0,1.07-.15,1.27,1.27,0,0,0,.54-.46,1.29,1.29,0,0,0,.21-.74,1.19,1.19,0,0,0-.49-1,1.77,1.77,0,0,0-1.09-.28Z"/><path class="cls-1" d="M61.82,12.29h7.76l1.06,2.94-1.2.43a4.12,4.12,0,0,0-.72-1.16,2,2,0,0,0-.91-.58,4,4,0,0,0-1.15-.14H65.24v2.31h.46a2.19,2.19,0,0,0,.71-.07.49.49,0,0,0,.27-.24,1.81,1.81,0,0,0,.08-.65v-.36h1.18v3.94H66.76v-.4a1.25,1.25,0,0,0-.1-.59.51.51,0,0,0-.26-.26,2.63,2.63,0,0,0-.74-.07h-.42v2.14a1.63,1.63,0,0,0,0,.42.29.29,0,0,0,.13.11,1.26,1.26,0,0,0,.42,0h.78a3.76,3.76,0,0,0,1.47-.25A2.85,2.85,0,0,0,69.14,19a3.87,3.87,0,0,0,.72-1.33l1.22.42-1.22,3.46h-8V20.3h.23a1.78,1.78,0,0,0,.63-.07.4.4,0,0,0,.23-.23,3,3,0,0,0,0-.57V14.37a1.49,1.49,0,0,0-.06-.54.35.35,0,0,0-.17-.19,1.25,1.25,0,0,0-.48-.06h-.41Z"/><path class="cls-1" d="M75.75,13.58h-.37a.84.84,0,0,0-.57.14,1.16,1.16,0,0,0-.14.69V15a2.4,2.4,0,0,0,.13,1,.75.75,0,0,0,.4.4,2.83,2.83,0,0,0,1,.12h1.56V14.29a1,1,0,0,0-.11-.58c-.07-.09-.29-.13-.66-.13h-.31V12.29h4.5v1.29h-.38c-.32,0-.53,0-.61.14a1.11,1.11,0,0,0-.13.69v5a1.15,1.15,0,0,0,.14.71,1.16,1.16,0,0,0,.72.14h.26v1.29H76.63V20.3h.29c.38,0,.61-.05.7-.15a1.19,1.19,0,0,0,.13-.7V18H75.64a6.62,6.62,0,0,1-1.52-.13,2.33,2.33,0,0,1-1-.54,2.19,2.19,0,0,1-.61-.84,3.73,3.73,0,0,1-.16-1.18v-.79a1.78,1.78,0,0,0-.09-.71q-.11-.18-.6-.18h-.37V12.29h4.44Z"/><path class="cls-1" d="M91.25,13.58h-.34a1,1,0,0,0-.89.63l-2.94,5.89a2.73,2.73,0,0,1-2.54,1.73,2,2,0,0,1-1.23-.37,1.15,1.15,0,0,1-.51-1,1.05,1.05,0,0,1,.29-.75.89.89,0,0,1,.64-.3,1.14,1.14,0,0,1,.9.48.49.49,0,0,0,.35.2.53.53,0,0,0,.39-.15,3,3,0,0,0,.39-.67l.18-.41L82.81,14.2a1.61,1.61,0,0,0-.46-.53,1.73,1.73,0,0,0-.68-.09V12.29h4.62v1.29h-.55c-.23,0-.35.08-.35.25a1.11,1.11,0,0,0,.2.52l1.48,2.3,1.12-2.38a1.47,1.47,0,0,0,.18-.49c0-.14-.14-.2-.44-.2h-.46V12.29h3.78Z"/><polygon class="cls-1" points="42.73 7.25 46.53 1.51 50.31 7.25 46.52 5.14 42.73 7.25"/></svg>