<svg width="26" height="18" viewBox="0 0 26 18" fill="none" xmlns="http://www.w3.org/2000/svg">
<path d="M12.9926 0.506836C12.9926 0.506836 5.40629 0.506843 3.50224 1.0016C2.48275 1.28646 1.64327 2.12594 1.35841 3.16043C0.863659 5.06448 0.863647 9.00762 0.863647 9.00762C0.863647 9.00762 0.863659 12.9657 1.35841 14.8398C1.64327 15.8743 2.46775 16.6988 3.50224 16.9836C5.42129 17.4934 12.9926 17.4934 12.9926 17.4934C12.9926 17.4934 20.5939 17.4934 22.4979 16.9986C23.5324 16.7138 24.3568 15.9043 24.6267 14.8548C25.1365 12.9657 25.1365 9.02262 25.1365 9.02262C25.1365 9.02262 25.1514 5.06448 24.6267 3.16043C24.3568 2.12594 23.5324 1.30147 22.4979 1.0316C20.5939 0.50686 12.9926 0.506836 12.9926 0.506836ZM10.5787 5.36449L16.8907 9.00762L10.5787 12.6357V5.36449Z" fill="white"/>
</svg>
