<?xml version="1.0" standalone="no"?>
<!DOCTYPE svg PUBLIC "-//W3C//DTD SVG 1.1//EN" "http://www.w3.org/Graphics/SVG/1.1/DTD/svg11.dtd" >
<svg xmlns="http://www.w3.org/2000/svg" xmlns:xlink="http://www.w3.org/1999/xlink" version="1.1">
<metadata>
Created by FontForge 20141024 at Wed Jul  8 10:57:02 2015
 By System Administrator
Gerard Unger developed this newspaper font between 1984 and 1987 for Dr.-Ing. Rudolf Hell GmbH, Kiel. He was mainly influenced by William A. Dwiggins (1880-1956), the typographic consultant of Mergenthaler Linotype, who started to develop more legible, alternative fonts for newspaper printing as early as 1930. Swift was named after the fast flying bird. Austere and concise, firm and original, Swift is suited for almost any purpose. Swift has been specially developed to sustain a maximum of quality and readability when used in unfavorable print and display processes, e.g. newspapers, laser printing and low resolution screens. Its robust, yet elegant serifs and its large x-height provide an undeniable distinction to the typeface, making it suitable for corporate ID and advertising purposes as well. Swift 2.0 family was designed in 1995. It's an improved version with technical and aesthetic enhancements and new family members. Cyrillic version was developed for ParaType in 2003 by Tagir Safayev.
</metadata>
<defs>
<font id="Swift-Light" horiz-adv-x="551" >
  <font-face 
    font-family="Swift Light"
    font-weight="300"
    font-stretch="normal"
    units-per-em="1000"
    panose-1="2 0 5 3 7 0 0 2 0 4"
    ascent="800"
    descent="-200"
    x-height="499"
    cap-height="704"
    bbox="-71 -246 1064 929"
    underline-thickness="50"
    underline-position="-50"
    stemh="40"
    stemv="83"
    unicode-range="U+0020-F6D4"
  />
<missing-glyph horiz-adv-x="250" 
 />
    <glyph glyph-name=".notdef" horiz-adv-x="250" 
 />
    <glyph glyph-name="quotedbl" unicode="&#x22;" horiz-adv-x="372" 
d="M247 484l-22 160c-3 20 -3 22 -3 29c0 26 15 39 40 39c27 0 41 -13 41 -39c0 -4 0 -6 -3 -29l-22 -160h-31zM91 484l-22 160c-3 20 -3 22 -3 29c0 26 15 39 41 39s40 -13 40 -39c0 -4 1 -6 -2 -29l-22 -160h-32z" />
    <glyph glyph-name="numbersign" unicode="#" horiz-adv-x="643" 
d="M616 477l-11 -60h-124l-29 -153h122l-12 -60h-122l-41 -204h-63l39 204h-157l-41 -204h-63l40 204h-122l12 60h122l31 153h-124l13 60h122l41 205h64l-41 -205h157l41 205h64l-40 -205h122zM418 417h-158l-30 -153h158z" />
    <glyph glyph-name="dollar" unicode="$" horiz-adv-x="529" 
d="M279 383l67 -40c76 -45 127 -87 127 -178c0 -55 -22 -95 -62 -126c-33 -26 -78 -43 -132 -48v-62h-40v61c-26 1 -76 5 -113 14c-44 10 -47 12 -70 17v142h35l52 -120c23 -4 47 -5 79 -5h17v260l-60 37c-56 35 -79 52 -99 85c-14 24 -20 53 -20 82c0 82 64 159 179 168v62
h40v-61c23 -1 53 -3 90 -10c31 -6 49 -10 83 -16v-136h-37l-50 113c-29 4 -41 5 -62 5c-8 0 -16 0 -24 -1v-243zM239 407v215c-50 -9 -98 -33 -98 -95c0 -61 50 -92 91 -116zM279 274v-233c21 3 36 8 51 17c32 20 48 54 48 91c0 63 -39 89 -94 122z" />
    <glyph glyph-name="percent" unicode="%" horiz-adv-x="643" 
d="M335 566c0 -88 -66 -155 -154 -155c-89 0 -150 60 -150 147c0 91 63 153 153 153s151 -57 151 -145zM605 707l-489 -707h-58l489 707h58zM612 146c0 -88 -65 -155 -154 -155c-90 0 -150 60 -150 147c0 91 61 153 153 153c91 0 151 -57 151 -145zM276 563
c0 65 -34 103 -93 103c-60 0 -94 -39 -94 -107c0 -63 34 -102 91 -102c60 0 96 40 96 106zM554 143c0 65 -35 103 -94 103c-60 0 -95 -39 -95 -107c0 -63 35 -102 92 -102c59 0 97 40 97 106z" />
    <glyph glyph-name="ampersand" unicode="&#x26;" horiz-adv-x="718" 
d="M693 371l-84 -30v-36c0 -90 -19 -144 -73 -205l38 -41l81 -34v-25h-145l-37 43c-63 -35 -111 -47 -179 -47c-153 0 -253 73 -253 184c0 67 39 121 147 172c-35 39 -45 54 -45 54c-31 37 -38 71 -38 114c0 92 69 154 170 154c90 0 153 -53 153 -129
c0 -71 -44 -133 -141 -174l220 -239c24 30 40 85 40 151v58l-78 30v26h224v-26zM245 417l22 -24c29 25 39 35 50 50c22 29 34 70 34 105c0 51 -33 88 -82 88c-55 0 -90 -34 -90 -89c0 -40 25 -85 66 -130zM445 75l-236 254c-54 -39 -78 -83 -78 -142c0 -92 66 -149 174 -149
c58 0 111 14 140 37z" />
    <glyph glyph-name="quotesingle" unicode="'" horiz-adv-x="213" 
d="M91 484l-22 160c-3 20 -3 22 -3 29c0 26 15 39 41 39s40 -13 40 -39c0 -4 1 -6 -2 -29l-22 -160h-32z" />
    <glyph glyph-name="parenleft" unicode="(" horiz-adv-x="272" 
d="M229 -213l-27 -17c-104 128 -156 289 -156 484c0 205 43 337 156 486l27 -19c-86 -142 -105 -302 -105 -465c0 -166 19 -323 105 -469z" />
    <glyph glyph-name="parenright" unicode=")" horiz-adv-x="272" 
d="M43 723l27 17c104 -128 156 -289 156 -484c0 -205 -43 -337 -156 -486l-27 19c86 142 105 302 105 465c0 166 -19 323 -105 469z" />
    <glyph glyph-name="asterisk" unicode="*" horiz-adv-x="332" 
d="M320 574l-112 12l91 -79l-36 -31l-79 90l6 -117h-45l5 120l-78 -93l-35 31l91 79l-113 -12v51l113 -12l-90 78l34 31l78 -92l-5 122h45l-6 -123l79 94l36 -32l-91 -78l112 12v-51z" />
    <glyph glyph-name="plus" unicode="+" horiz-adv-x="566" 
d="M546 305h-224v-231h-78v231h-224v75h224v209h78v-209h224v-75z" />
    <glyph glyph-name="comma" unicode="," horiz-adv-x="277" 
d="M150 12h-12c-44 0 -68 17 -68 52c0 32 24 55 61 55c50 0 76 -28 76 -82c0 -49 -13 -84 -45 -111c-18 -15 -42 -28 -68 -37l-11 29c50 22 65 44 67 94z" />
    <glyph glyph-name="hyphen" unicode="-" horiz-adv-x="250" 
d="M240 231h-230v78h230v-78z" />
    <glyph glyph-name="hyphen" unicode="&#xad;" horiz-adv-x="250" 
d="M240 231h-230v78h230v-78z" />
    <glyph glyph-name="period" unicode="." horiz-adv-x="246" 
d="M182 48c0 -43 -16 -58 -58 -58c-44 0 -61 16 -61 58c0 43 17 58 60 58c42 0 59 -17 59 -58z" />
    <glyph glyph-name="slash" unicode="/" horiz-adv-x="261" 
d="M261 764l-194 -1010h-67l195 1010h66z" />
    <glyph glyph-name="zero" unicode="0" 
d="M507 334c0 -217 -91 -350 -238 -350c-184 0 -227 202 -227 346c0 217 91 350 238 350c184 0 227 -202 227 -346zM411 338c0 217 -55 295 -129 295c-135 0 -144 -221 -144 -307c0 -217 55 -295 129 -295c135 0 144 221 144 307z" />
    <glyph glyph-name="one" unicode="1" 
d="M455 0h-309v25l110 36v498l-187 -36v29c45 13 101 35 153 61c36 18 62 34 99 61h22v-613l112 -36v-25z" />
    <glyph glyph-name="two" unicode="2" 
d="M487 179l-14 -179h-438v35c41 42 79 81 119 121c58 58 126 130 161 187c34 54 47 93 47 141c0 92 -52 146 -145 146c-23 0 -42 -2 -70 -7l-42 -121h-35v142c24 5 36 8 65 14c65 14 93 16 117 16c126 0 215 -69 215 -174c0 -86 -24 -135 -178 -283
c-48 -46 -85 -80 -153 -144h259l54 106h38z" />
    <glyph glyph-name="three" unicode="3" 
d="M212 326v45h40c39 0 70 19 87 35c31 29 41 68 41 101c0 41 -13 68 -30 86c-31 32 -77 37 -117 37c-18 0 -52 -1 -75 -4l-48 -122h-33v140l29 7c90 22 139 24 162 24c52 0 112 -8 157 -43c29 -22 53 -56 53 -110c0 -46 -18 -77 -37 -99c-29 -33 -76 -61 -131 -71
c48 -2 88 -17 120 -37c53 -34 70 -83 70 -127c0 -36 -10 -90 -67 -135c-60 -47 -136 -57 -202 -57c-21 0 -72 1 -142 24l-25 8v143h34l50 -122c21 -3 46 -4 61 -4c48 0 103 10 137 33c23 15 56 48 56 109c0 53 -23 83 -43 101c-35 31 -75 38 -113 38h-34z" />
    <glyph glyph-name="four" unicode="4" 
d="M525 210h-102v-150l92 -34v-26h-265v26l91 34v150h-334v29l380 435h36v-400h102v-64zM340 274v271l-238 -271h238z" />
    <glyph glyph-name="five" unicode="5" 
d="M138 585v-166c54 16 76 18 112 18c149 0 241 -75 241 -201c0 -141 -109 -240 -261 -240c-28 0 -59 5 -86 11c-29 7 -55 15 -77 21v143h33l51 -120c25 -4 48 -6 69 -6c108 0 179 65 179 168c0 109 -65 166 -196 166c-41 0 -81 -7 -117 -18v302h383v-78h-331z" />
    <glyph glyph-name="six" unicode="6" 
d="M511 658l-5 -36c-32 4 -49 3 -60 3c-116 0 -209 -45 -259 -128c-22 -36 -32 -75 -38 -131c43 21 108 36 165 36c122 0 201 -77 201 -197c0 -141 -99 -221 -227 -221c-75 0 -139 28 -181 82c-40 52 -60 127 -60 226c0 116 44 224 102 282c64 64 139 101 243 101
c43 0 85 -10 119 -17zM425 194c0 95 -60 153 -155 153c-42 0 -84 -8 -125 -16c-3 -27 -2 -36 -2 -57c0 -92 19 -245 147 -245c85 0 135 60 135 165z" />
    <glyph glyph-name="seven" unicode="7" 
d="M521 663v-41c-97 -214 -194 -424 -306 -634h-79c114 196 219 397 318 603h-304l-47 -117h-38v189h456z" />
    <glyph glyph-name="eight" unicode="8" 
d="M339 369l33 -18c83 -45 127 -93 127 -169c0 -115 -79 -198 -232 -198c-100 0 -215 52 -215 170c0 82 62 148 168 184l-23 13c-81 46 -113 91 -113 156c0 101 79 167 193 167s187 -57 187 -146c0 -65 -32 -119 -125 -159zM248 421l58 -33c54 36 79 85 79 133
c0 68 -44 114 -109 114c-66 0 -114 -42 -114 -102c0 -46 30 -80 86 -112zM339 270l-84 48c-87 -43 -124 -96 -124 -163c0 -78 68 -120 142 -120c88 0 147 46 147 119c0 44 -14 78 -81 116z" />
    <glyph glyph-name="nine" unicode="9" 
d="M53 1l5 36c32 -4 49 -3 60 -3c116 0 209 45 259 128c22 36 32 75 38 131c-43 -21 -108 -36 -165 -36c-122 0 -201 77 -201 197c0 141 99 221 227 221c75 0 139 -28 181 -82c40 -52 60 -127 60 -226c0 -116 -44 -224 -102 -282c-64 -64 -139 -101 -243 -101
c-43 0 -85 10 -119 17zM421 385c0 92 -19 245 -147 245c-85 0 -135 -60 -135 -165c0 -95 60 -153 155 -153c42 0 84 8 125 16c3 27 2 36 2 57z" />
    <glyph glyph-name="colon" unicode=":" horiz-adv-x="274" 
d="M198 453c0 -43 -15 -58 -57 -58c-45 0 -61 16 -61 58s16 58 60 58c42 0 58 -17 58 -58zM198 48c0 -43 -15 -57 -57 -57c-45 0 -61 16 -61 57c0 42 16 58 60 58c42 0 58 -17 58 -58z" />
    <glyph glyph-name="semicolon" unicode=";" horiz-adv-x="277" 
d="M194 453c0 -43 -15 -58 -57 -58c-45 0 -62 16 -62 58s17 58 61 58c41 0 58 -17 58 -58zM94 -111l-11 29c50 22 65 44 67 94c1 0 -13 0 -12 0c-44 -2 -68 17 -68 52c0 32 24 55 61 55c50 0 76 -28 76 -82c0 -73 -31 -123 -113 -148z" />
    <glyph glyph-name="semicolon" unicode="&#x37e;" horiz-adv-x="277" 
d="M194 453c0 -43 -15 -58 -57 -58c-45 0 -62 16 -62 58s17 58 61 58c41 0 58 -17 58 -58zM94 -111l-11 29c50 22 65 44 67 94c1 0 -13 0 -12 0c-44 -2 -68 17 -68 52c0 32 24 55 61 55c50 0 76 -28 76 -82c0 -73 -31 -123 -113 -148z" />
    <glyph glyph-name="less" unicode="&#x3c;" horiz-adv-x="675" 
d="M624 65l-588 250v27l588 249v-78l-453 -185l453 -185v-78z" />
    <glyph glyph-name="equal" unicode="=" horiz-adv-x="560" 
d="M540 393h-520v71h520v-71zM540 191h-520v71h520v-71z" />
    <glyph glyph-name="greater" unicode="&#x3e;" horiz-adv-x="675" 
d="M640 315l-589 -250v78l454 185l-454 185v78l589 -251v-25z" />
    <glyph glyph-name="question" unicode="?" horiz-adv-x="426" 
d="M11 523v143c33 7 36 7 69 15c59 13 86 18 124 18c137 0 213 -75 213 -183c0 -72 -22 -119 -91 -180l-61 -54c-36 -32 -49 -36 -49 -81v-37h-42c-2 15 -3 25 -5 40c-1 10 -2 20 -2 28c-1 27 7 41 42 79l53 57c43 46 57 85 57 146c0 86 -54 140 -140 140
c-35 0 -65 -4 -82 -7l-50 -124h-36zM257 51c0 -37 -19 -55 -62 -55c-40 0 -63 19 -63 54s20 52 63 52c41 0 62 -17 62 -51z" />
    <glyph glyph-name="at" unicode="@" horiz-adv-x="811" 
d="M590 -126l-37 -12c-48 -16 -97 -29 -159 -29c-96 0 -190 25 -259 87c-49 44 -94 114 -94 239c0 124 42 231 109 306c95 107 220 125 297 125c96 0 179 -32 234 -82c66 -60 89 -145 89 -217c0 -162 -106 -297 -269 -297c-56 0 -47 31 -44 49l12 86l-8 -10
c-9 -12 -41 -49 -68 -73c-15 -13 -57 -50 -97 -50c-38 0 -85 31 -85 140c0 21 2 134 72 221c58 72 132 92 200 92c42 0 73 -6 94 -11l-49 -396c7 0 20 1 25 3l7 2c101 37 136 141 136 228c0 90 -34 157 -75 195c-28 26 -87 64 -194 64c-132 0 -197 -53 -237 -104
c-46 -58 -74 -132 -74 -240c0 -114 35 -176 82 -221c59 -56 134 -80 228 -80c34 0 81 2 156 18zM471 161l29 234c-12 4 -28 9 -56 9c-23 0 -84 -4 -118 -85c-18 -42 -30 -120 -30 -181c0 -33 -1 -78 30 -78c18 0 40 22 65 41z" />
    <glyph glyph-name="A" unicode="A" horiz-adv-x="674" 
d="M685 0h-256v25l83 39l-80 224h-227l-84 -224l82 -39v-25h-231v25l83 39l265 644h54l230 -644l81 -39v-25zM416 327l-59 177c-17 52 -19 58 -32 98l-105 -275h196z" />
    <glyph glyph-name="B" unicode="B" horiz-adv-x="596" 
d="M25 704h282c73 0 116 -11 151 -38c38 -30 60 -79 60 -130c0 -60 -31 -113 -86 -144c-26 -15 -46 -23 -91 -30c57 -3 86 -10 124 -32c59 -35 85 -81 85 -150c0 -47 -22 -100 -55 -129c-36 -32 -82 -51 -170 -51h-300v25l91 36v582l-91 36v25zM204 378h83
c76 0 132 76 132 147c0 80 -46 139 -130 139h-85v-286zM204 40h85c110 0 163 43 163 144c0 91 -66 151 -166 151h-82v-295z" />
    <glyph glyph-name="C" unicode="C" horiz-adv-x="663" 
d="M627 180l-12 -154c-50 -14 -77 -19 -110 -25c-37 -6 -73 -11 -114 -11c-130 0 -204 26 -266 93c-56 62 -84 145 -84 244c0 108 30 211 95 282c67 74 160 105 292 105c70 0 123 -10 193 -22v-157h-34l-53 130c-24 3 -49 6 -88 6c-104 0 -179 -27 -232 -82
c-55 -57 -82 -141 -82 -244c0 -89 21 -159 65 -213c51 -62 117 -86 233 -86c32 0 41 1 95 4l72 130h30z" />
    <glyph glyph-name="D" unicode="D" horiz-adv-x="731" 
d="M25 704h313c139 0 212 -25 275 -100c53 -63 78 -141 78 -235c0 -130 -50 -241 -138 -307c-59 -44 -130 -62 -232 -62h-296v25l91 36v582l-91 36v25zM203 46h112c94 0 143 18 197 73c59 60 87 135 87 242c0 81 -18 149 -57 204c-48 66 -112 93 -209 93h-130v-612z" />
    <glyph glyph-name="E" unicode="E" horiz-adv-x="586" 
d="M541 161l-17 -161h-499v25l91 36v582l-91 36v25h495v-155h-35l-50 115h-232v-287h197l35 95h31v-229h-31l-35 94h-197v-291h237l65 115h36z" />
    <glyph glyph-name="F" unicode="F" horiz-adv-x="504" 
d="M494 555h-36l-49 109h-207v-287h169l38 95h31v-229h-31l-38 94h-169v-276l112 -36v-25h-289v25l90 36v582l-90 36v25h469v-149z" />
    <glyph glyph-name="G" unicode="G" horiz-adv-x="718" 
d="M708 259l-92 -34v-197c-48 -13 -78 -21 -111 -27c-43 -8 -80 -11 -125 -11c-107 0 -208 39 -261 103c-52 63 -78 148 -78 244c0 119 39 218 112 287c66 62 150 90 271 90c69 0 142 -12 203 -24v-155h-35l-51 128c-27 4 -46 9 -84 9c-115 0 -183 -23 -239 -80
c-57 -59 -86 -140 -86 -244c0 -78 15 -141 49 -192c51 -77 123 -110 241 -110c38 0 85 2 107 6v173l-90 34v25h269v-25z" />
    <glyph glyph-name="H" unicode="H" horiz-adv-x="750" 
d="M724 0h-269v25l92 36v282h-344v-282l90 -36v-25h-268v25l91 36v583l-91 35v25h268v-25l-90 -35v-251h344v251l-92 35v25h269v-25l-91 -35v-583l91 -36v-25z" />
    <glyph glyph-name="I" unicode="I" horiz-adv-x="318" 
d="M293 0h-268v25l91 36v582l-91 36v25h268v-25l-90 -36v-582l90 -36v-25z" />
    <glyph glyph-name="J" unicode="J" horiz-adv-x="316" 
d="M311 679l-92 -35v-653c0 -76 -18 -128 -61 -172s-88 -61 -163 -61c-26 0 -52 4 -66 6v98h69l34 -67c81 5 101 85 101 144v705l-91 35v25h269v-25z" />
    <glyph glyph-name="K" unicode="K" horiz-adv-x="627" 
d="M632 0h-149l-268 374l244 275l-74 30v25h233v-25l-76 -36l-245 -241l256 -341l79 -36v-25zM293 0h-268v25l91 36v582l-91 36v25h268v-25l-90 -36v-582l90 -36v-25z" />
    <glyph glyph-name="L" unicode="L" horiz-adv-x="506" 
d="M501 178l-16 -178h-460v25l91 36v582l-91 36v25h268v-25l-90 -36v-597h198l67 132h33z" />
    <glyph glyph-name="M" unicode="M" horiz-adv-x="879" 
d="M851 0h-264v25l90 36v535l-246 -607h-20l-243 607v-535l93 -36v-25h-236v25l90 36v582l-90 36v25h189l224 -563l230 563h183v-25l-91 -36v-582l91 -36v-25z" />
    <glyph glyph-name="N" unicode="N" horiz-adv-x="746" 
d="M735 679l-91 -36v-653h-24l-451 605v-534l92 -36v-25h-236v25l91 36v582l-91 36v25h169l397 -526v465l-91 36v25h235v-25z" />
    <glyph glyph-name="O" unicode="O" horiz-adv-x="728" 
d="M687 361c0 -222 -135 -377 -332 -377c-191 0 -314 135 -314 346c0 198 112 384 330 384c211 0 316 -159 316 -353zM592 346c0 130 -47 323 -232 323c-175 0 -221 -173 -221 -316c0 -200 86 -325 227 -325c131 0 226 109 226 318z" />
    <glyph glyph-name="P" unicode="P" horiz-adv-x="549" 
d="M25 704h264c91 0 144 -16 187 -56c39 -36 57 -83 57 -144c0 -66 -27 -121 -77 -157c-44 -31 -103 -49 -175 -49h-78v-238l116 -35v-25h-294v25l91 35v583l-91 36v25zM203 339h55c113 0 183 49 183 164c0 101 -51 161 -156 161h-82v-325z" />
    <glyph glyph-name="Q" unicode="Q" horiz-adv-x="757" 
d="M889 -103l11 -23c-109 -87 -133 -92 -170 -92c-91 0 -303 137 -401 196l-15 9c-164 12 -273 152 -273 348c0 198 116 379 332 379c194 0 314 -137 314 -351c0 -170 -81 -316 -248 -367c51 -27 114 -58 175 -85c102 -45 131 -47 155 -47c49 0 72 14 120 33zM584 342
c0 144 -47 327 -228 327c-130 0 -217 -107 -217 -317c0 -212 94 -324 224 -324c174 0 221 176 221 314z" />
    <glyph glyph-name="R" unicode="R" horiz-adv-x="628" 
d="M644 0h-157l-236 335h-48v-274l91 -36v-25h-269v25l91 36v582l-91 36v25h276c63 0 111 -2 155 -39s57 -87 57 -130c0 -90 -59 -165 -172 -181l221 -293l82 -36v-25zM203 377h82c49 0 82 23 101 45c17 20 36 54 36 104c0 54 -20 87 -39 104c-21 19 -56 34 -94 34h-86v-287
z" />
    <glyph glyph-name="S" unicode="S" horiz-adv-x="529" 
d="M232 437l114 -72c76 -48 127 -93 127 -190c0 -58 -22 -101 -62 -134c-39 -33 -95 -52 -164 -52c-23 0 -80 5 -121 15c-44 11 -47 13 -70 18v151h35l52 -127c23 -4 47 -6 79 -6c53 0 82 5 108 22c32 21 48 57 48 96c0 68 -39 95 -94 130l-105 68c-57 37 -79 56 -99 91
c-14 25 -20 56 -20 87c0 93 73 180 203 180c25 0 59 -2 106 -11c31 -6 49 -10 83 -17v-144h-37l-50 120c-29 4 -41 5 -62 5c-62 0 -162 -12 -162 -106c0 -65 50 -98 91 -124z" />
    <glyph glyph-name="T" unicode="T" horiz-adv-x="589" 
d="M589 535h-34l-48 123h-165v-597l110 -36v-25h-307v25l110 36v597h-171l-49 -123h-35v169h589v-169z" />
    <glyph glyph-name="U" unicode="U" horiz-adv-x="703" 
d="M708 679l-91 -36v-401c0 -182 -100 -251 -272 -251c-188 0 -260 73 -260 225v427l-90 36v25h268v-25l-91 -36v-418c0 -129 61 -186 187 -186c133 0 195 56 195 178v426l-90 36v25h244v-25z" />
    <glyph glyph-name="V" unicode="V" horiz-adv-x="661" 
d="M686 679l-80 -36l-259 -653h-48l-238 653l-81 36v25h259v-25l-82 -36l152 -445c7 -21 4 -13 33 -101l195 546l-81 36v25h230v-25z" />
    <glyph glyph-name="W" unicode="W" horiz-adv-x="1049" 
d="M1064 679l-84 -36l-243 -654h-33l-187 568l-200 -568h-34l-216 654l-82 36v25h255v-25l-81 -35l133 -424c10 -31 16 -59 24 -92l199 576h43l155 -477c13 -40 19 -63 26 -100l175 516l-84 36v25h234v-25z" />
    <glyph glyph-name="X" unicode="X" horiz-adv-x="643" 
d="M648 0h-267v25l84 37l-161 251l-156 -251l80 -37v-25h-233v25l80 36l200 296l-184 286l-80 36v25h250v-25l-70 -37l145 -223l143 223l-71 37v25h219v-25l-81 -36l-183 -265l206 -317l79 -36v-25z" />
    <glyph glyph-name="Y" unicode="Y" horiz-adv-x="594" 
d="M624 679l-79 -36l-194 -294v-288l114 -36v-25h-315v25l114 36v261l-204 321l-80 36v25h259v-25l-79 -38l159 -254l155 255l-75 37v25h225v-25z" />
    <glyph glyph-name="Z" unicode="Z" horiz-adv-x="574" 
d="M544 173l-20 -173h-493v31l394 628h-286l-47 -124h-35v169h482v-27l-397 -627h300l69 123h33z" />
    <glyph glyph-name="bracketleft" unicode="[" horiz-adv-x="256" 
d="M226 -230h-151v967h151v-30h-84v-907h84v-30z" />
    <glyph glyph-name="backslash" unicode="\" horiz-adv-x="261" 
d="M261 -246h-67l-194 1010h66z" />
    <glyph glyph-name="bracketright" unicode="]" horiz-adv-x="256" 
d="M171 -230h-151v30h85v907h-85v30h151v-967z" />
    <glyph glyph-name="asciicircum" unicode="^" horiz-adv-x="596" 
d="M505 314h-69l-138 315l-138 -315h-69l194 425h28z" />
    <glyph glyph-name="underscore" unicode="_" horiz-adv-x="513" 
d="M513 -121h-513v46h513v-46z" />
    <glyph glyph-name="grave" unicode="`" horiz-adv-x="271" 
d="M258 578h-46l-201 151h141z" />
    <glyph glyph-name="a" unicode="a" horiz-adv-x="505" 
d="M494 27l-60 -20c-38 -13 -49 -11 -58 -11c-31 0 -50 17 -53 50c-15 -7 -27 -13 -48 -22c-40 -18 -57 -28 -102 -28c-83 0 -142 52 -142 126c0 61 37 102 111 119c35 8 93 15 148 20l30 3v118c0 51 -11 68 -50 80c-15 4 -39 7 -65 7c-10 0 -16 -1 -28 -1l-43 -85h-55v93
c33 9 51 12 67 16c40 10 78 17 110 17c45 0 83 -9 109 -29c29 -21 38 -46 38 -92v-284c0 -14 1 -23 3 -25c6 -6 10 -9 30 -15l58 -17v-20zM320 64v174c-43 -6 -83 -12 -124 -23c-48 -13 -70 -38 -70 -80c0 -52 42 -87 105 -87c29 0 51 6 78 13z" />
    <glyph glyph-name="b" unicode="b" horiz-adv-x="575" 
d="M180 740v-289c21 11 37 19 65 31c50 21 73 27 97 27c112 0 198 -102 198 -236c0 -158 -128 -283 -285 -283c-41 0 -108 13 -158 25v635l-97 29v20zM180 428v-383c18 -3 38 -4 57 -4c57 0 98 8 129 28c56 36 86 98 86 178c0 62 -19 112 -50 146c-31 33 -76 52 -127 52
c-35 0 -68 -7 -95 -17z" />
    <glyph glyph-name="c" unicode="c" horiz-adv-x="474" 
d="M443 61l6 -31s-58 -18 -64 -19c-51 -15 -72 -21 -125 -21c-135 0 -224 103 -224 249c0 161 115 271 285 271c36 0 75 -7 124 -19v-107h-57l-46 93h-11c-123 0 -209 -89 -209 -210c0 -64 17 -121 51 -160c36 -42 83 -59 151 -59c38 0 50 1 119 13z" />
    <glyph glyph-name="d" unicode="d" horiz-adv-x="571" 
d="M562 27l-167 -40v62c-28 -14 -40 -20 -69 -33c-43 -19 -76 -25 -100 -25c-108 0 -190 103 -190 236c0 164 114 283 281 283c28 0 68 -7 78 -14v154l-96 29v20l179 41v-667l84 -26v-20zM395 71v389c-17 4 -36 6 -67 6c-127 0 -206 -82 -206 -210s74 -201 182 -201
c29 0 55 5 91 16z" />
    <glyph glyph-name="e" unicode="e" horiz-adv-x="511" 
d="M470 271h-338c-3 -82 13 -128 42 -162c48 -56 112 -63 160 -63c37 0 89 5 122 11l6 -27l-29 -9c-17 -5 -57 -17 -75 -21c-25 -6 -56 -10 -83 -10c-158 0 -239 112 -239 250c0 92 39 163 81 204c30 29 85 65 158 65c51 0 135 -18 175 -111c7 -16 19 -49 20 -127zM133 299
l241 18c2 68 -14 99 -28 117c-22 28 -51 35 -79 35c-58 0 -90 -29 -111 -75c-12 -27 -21 -62 -23 -95z" />
    <glyph glyph-name="f" unicode="f" horiz-adv-x="353" 
d="M460 644h-65l-30 62c-6 1 -10 1 -13 1c-35 0 -77 -13 -104 -31c-32 -22 -48 -60 -48 -119v-58h165v-44h-165v-394l113 -36v-25h-285v25l89 36v394h-92v44h92v46c0 122 96 200 244 200c36 0 70 -6 99 -12v-89z" />
    <glyph glyph-name="g" unicode="g" horiz-adv-x="536" 
d="M536 434l-164 31c25 -15 41 -34 53 -54c15 -23 20 -48 20 -75c0 -96 -82 -166 -190 -166c-19 0 -31 0 -57 6c-29 -30 -47 -60 -47 -76c0 -12 6 -21 18 -28c15 -9 38 -13 65 -13h145c52 0 81 -9 100 -31c16 -17 24 -40 24 -66c0 -51 -28 -99 -81 -138
c-46 -35 -118 -55 -176 -55c-72 0 -127 12 -174 41c-37 23 -62 56 -62 86c0 22 13 43 41 64c16 12 40 26 68 39c-28 21 -42 41 -42 63c0 17 10 34 28 53c21 22 46 48 68 67c-33 12 -49 20 -67 34c-36 30 -58 73 -58 118c0 95 87 175 191 175c39 0 76 -6 112 -27l185 35v-83z
M361 325c0 49 -15 88 -41 115c-20 22 -49 33 -76 33c-60 0 -106 -53 -106 -123c0 -59 23 -104 62 -127c16 -10 35 -17 55 -17c61 0 106 51 106 119zM338 -15h-154c-20 0 -28 1 -44 6c-27 -16 -54 -59 -54 -84c0 -54 70 -97 162 -97c102 0 186 54 186 120c0 17 -10 35 -26 44
c-15 8 -34 11 -70 11z" />
    <glyph glyph-name="h" unicode="h" horiz-adv-x="629" 
d="M611 0h-263v25l90 36v269c0 44 -13 80 -46 96c-24 11 -57 15 -98 15c-31 0 -67 -3 -96 -8v-372l83 -36v-25h-256v25l90 36v589l-98 26v22l181 42v-284c21 8 43 19 61 26c58 23 69 27 118 27c44 0 79 -15 108 -44c27 -28 36 -63 36 -118v-286l90 -36v-25z" />
    <glyph glyph-name="i" unicode="i" horiz-adv-x="304" 
d="M215 689c0 -37 -18 -54 -57 -54c-38 0 -58 17 -58 52s18 53 58 53c39 0 57 -16 57 -51zM289 0h-264v25l91 36v366l-91 27v21l174 40v-454l90 -36v-25z" />
    <glyph glyph-name="j" unicode="j" horiz-adv-x="309" 
d="M233 690c0 -35 -22 -55 -59 -55c-35 0 -57 19 -57 52c0 35 19 53 57 53c39 0 59 -16 59 -50zM215 515v-526c0 -77 -16 -124 -68 -170c-41 -37 -85 -49 -144 -49c-23 0 -49 3 -64 4v96h62l36 -64c69 13 95 59 95 148v472l-91 28v21z" />
    <glyph glyph-name="k" unicode="k" horiz-adv-x="589" 
d="M590 0h-149l-223 272l187 178l-72 27v22h243v-22l-104 -32l-164 -148l202 -243l80 -29v-25zM300 0h-268v25l91 36v589l-98 27v22l181 41v-679l94 -36v-25z" />
    <glyph glyph-name="l" unicode="l" horiz-adv-x="306" 
d="M296 0h-264v25l91 36v589l-98 27v22l181 41v-679l90 -36v-25z" />
    <glyph glyph-name="m" unicode="m" horiz-adv-x="936" 
d="M926 0h-266v25l91 36v265c0 50 -9 76 -35 93c-27 18 -65 24 -112 24c-35 0 -82 -8 -109 -15c11 -24 16 -58 16 -99v-268l91 -36v-25h-258v25l84 36v264c0 89 -37 118 -139 118c-34 0 -48 -2 -89 -10v-372l91 -36v-25h-264v25l90 36v366l-91 27v21l174 40v-59
c26 10 61 27 88 37c49 19 67 16 89 16c48 0 77 -17 106 -62c27 11 54 23 82 34c72 28 81 28 122 28c40 0 77 -12 106 -40c31 -31 41 -65 41 -125v-283l92 -36v-25z" />
    <glyph glyph-name="n" unicode="n" horiz-adv-x="624" 
d="M614 0h-263v25l89 36v269c0 49 -14 80 -47 96c-23 11 -56 15 -97 15c-32 0 -69 -3 -96 -8v-372l83 -36v-25h-255v25l89 36v366l-91 27v21l174 40v-59c21 8 42 19 61 26c58 23 67 27 116 27c46 0 81 -15 110 -44c27 -28 36 -63 36 -118v-286l91 -36v-25z" />
    <glyph glyph-name="o" unicode="o" horiz-adv-x="555" 
d="M519 254c0 -141 -98 -270 -249 -270c-137 0 -234 103 -234 253c0 152 86 272 250 272c151 0 233 -117 233 -255zM425 232c0 99 -26 232 -153 232c-91 0 -142 -77 -142 -214c0 -98 30 -222 153 -222c113 0 142 113 142 204z" />
    <glyph glyph-name="p" unicode="p" horiz-adv-x="590" 
d="M193 515v-64c16 8 28 14 69 32c44 20 74 26 91 26c114 0 201 -106 201 -236c0 -162 -123 -283 -294 -283c-29 0 -48 2 -67 6v-164l113 -36v-25h-286v25l90 36v595l-91 27v21zM193 428v-390c23 -2 41 -3 63 -3c52 0 87 6 118 24c59 33 92 103 92 182
c0 109 -65 204 -180 204c-36 0 -70 -9 -93 -17z" />
    <glyph glyph-name="q" unicode="q" horiz-adv-x="574" 
d="M574 -229h-263v25l91 33v220c-24 -12 -47 -22 -75 -35c-29 -13 -60 -24 -96 -24c-113 0 -195 104 -195 245c0 91 34 163 106 219c50 39 102 56 170 56c41 0 63 -4 106 -19l67 31v-693l89 -33v-25zM402 72v382c-18 9 -43 12 -79 12c-119 0 -201 -83 -201 -205
c0 -110 48 -206 184 -206c33 0 57 4 96 17z" />
    <glyph glyph-name="r" unicode="r" horiz-adv-x="419" 
d="M414 385h-69l-32 55c-14 1 -21 1 -30 1c-25 0 -58 -6 -83 -15v-365l111 -36v-25h-284v25l90 36v366l-91 27v21l174 40v-66c86 43 130 60 162 60c17 0 36 -7 52 -12v-112z" />
    <glyph glyph-name="s" unicode="s" horiz-adv-x="419" 
d="M193 319l81 -44c44 -24 62 -44 75 -64s19 -50 19 -75c0 -87 -67 -147 -160 -147c-23 0 -55 5 -92 13c-21 4 -37 9 -65 17v114h37l49 -99c22 -4 30 -5 48 -5c59 0 110 22 110 84c0 28 -17 54 -53 75l-100 59c-10 6 -85 38 -85 123c0 86 58 139 155 139
c48 0 94 -12 140 -21v-107h-38l-42 84c-17 3 -26 4 -49 4c-63 0 -100 -25 -100 -68c0 -31 19 -54 70 -82z" />
    <glyph glyph-name="t" unicode="t" horiz-adv-x="365" 
d="M360 20l-61 -14c-60 -14 -80 -16 -103 -16c-32 0 -55 8 -72 25c-19 20 -29 51 -29 88v352h-80v29c35 16 78 42 90 56c12 13 37 61 48 91h25v-132h171v-44h-171v-324c0 -31 5 -53 18 -67c13 -15 36 -20 71 -20c32 0 51 4 85 10z" />
    <glyph glyph-name="u" unicode="u" horiz-adv-x="601" 
d="M328 453v22l173 40v-439l84 -28v-21l-167 -42v56c-14 -7 -43 -21 -60 -28c-46 -19 -92 -24 -109 -24c-16 0 -74 0 -109 31c-32 28 -45 79 -45 123v284l-90 26v22l173 40v-353c0 -51 16 -79 34 -92s50 -22 93 -22c32 0 57 3 113 12v367z" />
    <glyph glyph-name="v" unicode="v" horiz-adv-x="519" 
d="M535 474l-63 -32l-203 -452h-35l-180 458l-65 26v25h230v-25l-74 -26l89 -243c13 -35 24 -72 32 -112l134 349l-74 32v25h209v-25z" />
    <glyph glyph-name="w" unicode="w" horiz-adv-x="811" 
d="M826 474l-64 -32l-184 -452h-41l-126 362l-138 -362h-39l-175 458l-67 26v25h240v-25l-85 -26l97 -272c8 -23 15 -47 21 -71l152 394h22l118 -332c7 -21 11 -29 19 -62l118 337l-83 32v25h215v-25z" />
    <glyph glyph-name="x" unicode="x" horiz-adv-x="561" 
d="M556 0h-228v25l52 28l-115 161l-114 -155l49 -34v-25h-195v25l75 31l158 196l-142 199l-75 23v25h228v-25l-52 -24l103 -144l103 136l-49 32v25h180v-25l-63 -30l-146 -173l158 -221l73 -25v-25z" />
    <glyph glyph-name="y" unicode="y" horiz-adv-x="521" 
d="M537 474l-61 -33l-224 -544c-37 -91 -91 -127 -183 -127c-20 0 -48 2 -62 3v98h57l36 -62c41 4 68 29 98 101l38 91l-180 448l-66 25v25h232v-25l-75 -25l108 -284c5 -14 17 -55 21 -73l133 349l-72 33v25h200v-25z" />
    <glyph glyph-name="z" unicode="z" horiz-adv-x="499" 
d="M453 0h-412v32l301 421h-197l-51 -92h-32v138h386v-29l-302 -424h223l56 110h28v-156z" />
    <glyph glyph-name="braceleft" unicode="{" horiz-adv-x="414" 
d="M372 -176v-30c-75 1 -128 21 -163 62c-31 37 -39 69 -39 172v81c0 102 -24 131 -128 155v5c104 23 128 52 128 155v80c0 103 9 136 39 173c34 41 84 59 163 63v-31c-54 -5 -84 -18 -105 -48s-25 -53 -25 -123v-56c0 -90 -5 -124 -23 -155c-19 -34 -55 -53 -113 -60
c55 -6 93 -26 113 -62c15 -26 23 -58 23 -153v-57c0 -71 5 -93 25 -122c22 -30 52 -45 105 -49z" />
    <glyph glyph-name="bar" unicode="|" horiz-adv-x="250" 
d="M148 -246h-46v1010h46v-1010z" />
    <glyph glyph-name="braceright" unicode="}" horiz-adv-x="415" 
d="M372 269v-5c-105 -24 -129 -53 -129 -155v-81c0 -103 -7 -134 -39 -172c-35 -41 -86 -61 -161 -62v30c52 4 82 19 103 49c21 29 26 52 26 122v57c0 94 6 127 22 153c21 36 59 56 113 62c-58 7 -93 26 -113 60c-18 31 -22 66 -22 155v56c0 70 -5 93 -26 123
s-49 43 -103 48v31c77 -4 127 -23 161 -63c32 -37 39 -69 39 -173v-80c0 -103 25 -132 129 -155z" />
    <glyph glyph-name="asciitilde" unicode="~" horiz-adv-x="603" 
d="M564 350l29 -13c-18 -72 -50 -166 -144 -166c-33 0 -64 10 -157 45l-53 20c-40 15 -72 23 -94 23c-49 0 -86 -36 -104 -102l-31 11c24 114 74 167 146 167c43 0 84 -17 123 -32l67 -26c61 -24 90 -30 113 -30c48 0 80 32 105 103z" />
    <glyph glyph-name="currency" unicode="&#xa4;" horiz-adv-x="607" 
d="M538 165l-35 -34l-66 63c-50 -34 -82 -44 -134 -44s-83 10 -133 45l-67 -64l-35 34l68 65c-37 50 -47 80 -47 131c0 48 11 80 47 131l-68 65l35 33l67 -64c50 34 80 45 133 45c52 0 84 -11 134 -46l66 65l35 -33l-67 -65c36 -50 47 -82 47 -131c0 -51 -10 -81 -47 -131z
M451 361c0 79 -67 143 -147 143c-83 0 -148 -64 -148 -143c0 -80 65 -145 148 -145c80 0 147 65 147 145z" />
    <glyph glyph-name="brokenbar" unicode="&#xa6;" horiz-adv-x="223" 
d="M150 377h-77v251h77v-251zM150 -126h-77v252h77v-252z" />
    <glyph glyph-name="section" unicode="&#xa7;" horiz-adv-x="540" 
d="M277 446l61 -33c68 -37 129 -66 129 -156c0 -48 -23 -94 -63 -127c-19 -16 -39 -28 -67 -42c49 -30 78 -63 78 -136c0 -92 -78 -148 -160 -148c-16 0 -45 2 -73 9c-21 5 -35 9 -58 16v128h33l43 -110c13 -3 18 -4 35 -4c76 0 112 30 112 90c0 45 -20 71 -86 107l-61 33
c-68 37 -129 66 -129 156c0 48 23 94 63 127c19 16 39 28 67 42c-49 30 -78 63 -78 136c0 92 78 148 160 148c16 0 45 -2 73 -9c21 -5 35 -9 58 -16v-128h-33l-43 110c-13 3 -18 4 -35 4c-76 0 -112 -30 -112 -90c0 -45 20 -71 86 -107zM244 140l65 -36c63 42 86 78 86 121
c0 25 -7 49 -20 65c-17 20 -25 25 -81 56l-65 36c-63 -42 -86 -78 -86 -121c0 -25 7 -49 20 -65c17 -20 25 -25 81 -56z" />
    <glyph glyph-name="dieresis" unicode="&#xa8;" horiz-adv-x="266" 
d="M271 652c0 -33 -15 -50 -46 -50c-29 0 -45 16 -45 44c0 35 14 50 43 50c32 0 48 -15 48 -44zM94 649c0 -31 -15 -47 -47 -47c-31 0 -45 14 -45 43c0 33 15 51 45 51c31 0 47 -16 47 -47z" />
    <glyph glyph-name="copyright" unicode="&#xa9;" horiz-adv-x="827" 
d="M797 371c0 -216 -166 -394 -382 -395s-385 174 -385 391c0 218 171 391 389 391c219 0 378 -171 378 -387zM733 371c0 183 -128 333 -314 333c-187 0 -324 -151 -324 -337c0 -185 135 -338 320 -338s318 156 318 342zM568 289l-8 -99c-14 -5 -35 -9 -51 -12
c-30 -6 -57 -8 -85 -8c-127 0 -212 61 -212 194c0 145 96 218 233 218c42 0 83 -7 119 -15v-101h-30l-31 82c-18 1 -28 2 -40 2c-112 0 -168 -62 -168 -177c0 -166 124 -167 168 -167c10 0 23 2 37 5l39 78h29z" />
    <glyph glyph-name="guillemotleft" unicode="&#xab;" horiz-adv-x="376" 
d="M324 56h-41l-119 202l119 201h41l-120 -201zM205 56h-41l-119 202l119 201h41l-118 -201z" />
    <glyph glyph-name="logicalnot" unicode="&#xac;" horiz-adv-x="553" 
d="M510 137h-56v129h-412v77h468v-206z" />
    <glyph glyph-name="registered" unicode="&#xae;" horiz-adv-x="827" 
d="M797 371c0 -216 -166 -394 -382 -395s-385 174 -385 391c0 218 171 391 389 391c219 0 378 -171 378 -387zM733 371c0 183 -128 333 -314 333c-187 0 -324 -151 -324 -337c0 -185 135 -338 320 -338s318 156 318 342zM638 184h-105l-139 187h-25v-141l60 -24v-22h-195v22
l62 24v306l-62 23v23h196c64 0 135 -15 135 -96c0 -57 -34 -92 -94 -104l118 -151l49 -25v-22zM369 403h43c42 0 76 23 76 76c0 50 -29 70 -76 70h-43v-146z" />
    <glyph glyph-name="degree" unicode="&#xb0;" horiz-adv-x="413" 
d="M354 595c0 -80 -65 -145 -148 -145c-81 0 -147 65 -147 145s66 144 147 144c83 0 148 -64 148 -144zM310 595c0 57 -46 101 -104 101s-103 -44 -103 -101c0 -56 45 -102 103 -102s104 46 104 102z" />
    <glyph glyph-name="plusminus" unicode="&#xb1;" horiz-adv-x="568" 
d="M546 384h-224v-231h-78v231h-224v75h224v209h78v-209h224v-75zM548 0h-528v70h528v-70z" />
    <glyph glyph-name="acute" unicode="&#xb4;" horiz-adv-x="272" 
d="M260 729l-200 -151h-47l107 151h140z" />
    <glyph glyph-name="mu" unicode="&#xb5;" horiz-adv-x="614" 
d="M594 24l-57 -20c-12 -4 -35 -10 -48 -10c-33 0 -56 15 -60 49c-1 10 -1 22 -1 22c-78 -62 -104 -72 -162 -72c-34 0 -75 17 -93 44v-217l-114 -31l-6 23c13 10 21 17 33 31c15 17 12 80 12 118v459c0 8 -3 17 -13 20l-57 16v24l166 40v-260c0 -63 1 -110 12 -136
c15 -35 59 -61 113 -61c32 0 108 29 108 29v328c0 8 -2 17 -13 20l-57 16v24l166 40v-415c0 -8 1 -20 3 -24c4 -7 10 -13 28 -20l40 -15v-22z" />
    <glyph glyph-name="mu" unicode="&#x3bc;" horiz-adv-x="614" 
d="M594 24l-57 -20c-12 -4 -35 -10 -48 -10c-33 0 -56 15 -60 49c-1 10 -1 22 -1 22c-78 -62 -104 -72 -162 -72c-34 0 -75 17 -93 44v-217l-114 -31l-6 23c13 10 21 17 33 31c15 17 12 80 12 118v459c0 8 -3 17 -13 20l-57 16v24l166 40v-260c0 -63 1 -110 12 -136
c15 -35 59 -61 113 -61c32 0 108 29 108 29v328c0 8 -2 17 -13 20l-57 16v24l166 40v-415c0 -8 1 -20 3 -24c4 -7 10 -13 28 -20l40 -15v-22z" />
    <glyph glyph-name="paragraph" unicode="&#xb6;" horiz-adv-x="592" 
d="M556 660h-64v-625c0 -107 -56 -168 -86 -191c-48 -37 -116 -43 -157 -43c-24 0 -57 3 -67 4v94h63l33 -63c57 5 91 33 108 52c38 43 44 100 44 146v626h-81v-472c-30 -7 -57 -9 -82 -9c-59 0 -129 13 -182 74c-40 46 -60 112 -60 176c0 92 39 162 89 206
c73 64 156 69 239 69h203v-44z" />
    <glyph glyph-name="periodcentered" unicode="&#xb7;" horiz-adv-x="364" 
d="M294 343c0 -61 -51 -109 -112 -109c-62 0 -112 48 -112 109c0 60 50 109 112 109c61 0 112 -49 112 -109z" />
    <glyph glyph-name="periodcentered" unicode="&#x2219;" horiz-adv-x="364" 
d="M294 343c0 -61 -51 -109 -112 -109c-62 0 -112 48 -112 109c0 60 50 109 112 109c61 0 112 -49 112 -109z" />
    <glyph glyph-name="guillemotright" unicode="&#xbb;" horiz-adv-x="377" 
d="M330 258l-119 -202h-41l119 202l-119 201h41zM211 258l-118 -202h-42l120 202l-120 201h42z" />
    <glyph glyph-name="dotlessi" unicode="&#x131;" horiz-adv-x="304" 
d="M289 0h-264v25l91 36v366l-91 27v21l174 40v-454l90 -36v-25z" />
    <glyph glyph-name="dotaccent" unicode="&#x2d9;" horiz-adv-x="500" 
d="M250 572c-29 0 -42 13 -42 41c0 33 14 49 43 49c27 0 41 -16 41 -45c0 -30 -14 -45 -42 -45z" />
    <glyph glyph-name="afii10023" unicode="&#x401;" horiz-adv-x="586" 
d="M541 161l-17 -161h-499v25l91 36v582l-91 36v25h495v-155h-35l-50 115h-232v-287h197l35 95h31v-229h-31l-35 94h-197v-291h237l65 115h36zM432 817c0 -53 -33 -55 -50 -55c-21 0 -50 6 -50 48c0 52 35 55 48 55c14 0 52 -2 52 -48zM238 813c0 -49 -36 -51 -52 -51
c-45 0 -49 26 -49 47c0 19 4 56 49 56c27 0 52 -14 52 -52z" />
    <glyph glyph-name="afii10051" unicode="&#x402;" horiz-adv-x="767" 
d="M589 535h-34l-48 123h-175v-285c55 16 118 25 169 25c61 0 121 -10 160 -59c28 -35 36 -80 36 -135c0 -76 -16 -131 -72 -172c-49 -36 -116 -42 -149 -42c-19 0 -46 3 -65 6v89h54l34 -58c41 -1 66 21 76 31c32 34 35 85 35 127c0 29 -1 88 -29 123
c-25 31 -70 40 -117 40c-44 0 -98 -8 -132 -15v-333h-197v25l110 36v597h-161l-49 -123h-35v169h589v-169z" />
    <glyph glyph-name="afii10052" unicode="&#x403;" horiz-adv-x="498" 
d="M498 704v-169h-38l-51 123h-207v-597l112 -36v-25h-289v25l90 36v582l-90 36v25h473zM411 913l-200 -151h-47l107 151h140z" />
    <glyph glyph-name="afii10053" unicode="&#x404;" horiz-adv-x="643" 
d="M617 174v-146c-56 -14 -75 -19 -117 -27c-18 -3 -61 -11 -106 -11c-80 0 -196 21 -279 118c-59 69 -79 148 -79 248c0 93 19 182 86 255c91 98 204 103 272 103c100 0 154 -12 204 -20l13 -2v-152h-34l-53 125c-27 5 -51 6 -83 6c-43 0 -116 -3 -183 -40
c-92 -51 -133 -158 -129 -249h261l35 92h31v-228h-31l-35 92h-261c1 -63 19 -161 88 -225c63 -58 143 -67 208 -67c32 0 56 2 76 3l14 1l72 124h30z" />
    <glyph glyph-name="afii10054" unicode="&#x405;" horiz-adv-x="529" 
d="M232 437l114 -72c76 -48 127 -93 127 -190c0 -58 -22 -101 -62 -134c-39 -33 -95 -52 -164 -52c-23 0 -80 5 -121 15c-44 11 -47 13 -70 18v151h35l52 -127c23 -4 47 -6 79 -6c53 0 82 5 108 22c32 21 48 57 48 96c0 68 -39 95 -94 130l-105 68c-57 37 -79 56 -99 91
c-14 25 -20 56 -20 87c0 93 73 180 203 180c25 0 59 -2 106 -11c31 -6 49 -10 83 -17v-144h-37l-50 120c-29 4 -41 5 -62 5c-62 0 -162 -12 -162 -106c0 -65 50 -98 91 -124z" />
    <glyph glyph-name="afii10055" horiz-adv-x="318" 
d="M293 0h-268v25l91 36v582l-91 36v25h268v-25l-90 -36v-582l90 -36v-25z" />
    <glyph glyph-name="afii10056" unicode="&#x407;" horiz-adv-x="318" 
d="M293 0h-268v25l91 36v582l-91 36v25h268v-25l-90 -36v-582l90 -36v-25zM303 826c0 -34 -16 -51 -47 -51c-30 0 -46 16 -46 45c0 35 14 51 44 51c32 0 49 -16 49 -45zM122 823c0 -32 -15 -48 -48 -48c-31 0 -46 14 -46 44c0 33 16 52 46 52c32 0 48 -17 48 -48z" />
    <glyph glyph-name="afii10057" unicode="&#x408;" horiz-adv-x="316" 
d="M311 679l-92 -35v-653c0 -76 -18 -128 -61 -172s-88 -61 -163 -61c-26 0 -52 4 -66 6v98h69l34 -67c81 5 101 85 101 144v705l-91 35v25h269v-25z" />
    <glyph glyph-name="afii10058" unicode="&#x409;" horiz-adv-x="940" 
d="M561 402h82c60 0 140 -5 198 -48c32 -24 73 -71 73 -154c0 -71 -30 -116 -60 -143c-28 -25 -82 -57 -172 -57h-300v25l91 36v593h-165l-11 -116c-4 -37 -14 -136 -18 -166c-18 -144 -40 -228 -81 -295c-15 -25 -37 -53 -81 -72c-17 -7 -41 -15 -78 -15c-12 0 -36 1 -49 3
v121h60l44 -66c21 11 40 28 62 65c17 29 37 79 55 185c12 69 27 205 33 273l6 72l-91 36v25h492v-25l-90 -36v-241zM561 45h96c66 0 103 26 120 44c35 35 39 83 39 120c0 43 -12 84 -50 115c-40 32 -93 36 -123 36h-82v-315z" />
    <glyph glyph-name="afii10059" unicode="&#x40a;" horiz-adv-x="1005" 
d="M626 398h82c48 0 136 -2 198 -47c33 -24 73 -69 73 -151c0 -71 -33 -119 -57 -143c-36 -36 -92 -57 -175 -57h-300v25l91 36v292h-335v-292l90 -36v-25h-268v25l91 36v583l-91 35v25h268v-25l-90 -35v-246h335v245l-90 36v25h268v-25l-90 -36v-245zM626 45h96
c66 0 103 26 120 44c34 35 39 83 39 120c0 41 -11 80 -50 110c-41 31 -92 34 -123 34h-82v-308z" />
    <glyph glyph-name="afii10060" unicode="&#x40b;" horiz-adv-x="781" 
d="M589 535h-34l-48 123h-175v-285c82 24 154 25 169 25c45 0 117 -6 160 -59c28 -34 36 -82 36 -130v-148l84 -36v-25h-171v193c0 37 -2 84 -27 114c-29 35 -81 41 -119 41c-45 0 -98 -8 -132 -15v-272l90 -36v-25h-287v25l110 36v597h-161l-49 -123h-35v169h589v-169z" />
    <glyph glyph-name="afii10061" unicode="&#x40c;" horiz-adv-x="659" 
d="M203 643v-250h63c28 0 61 7 81 18c34 19 46 49 57 77c35 91 13 35 38 102c13 35 33 81 74 105c20 12 48 19 74 19c13 0 31 -2 44 -4v-114h-53l-37 67c-14 -6 -22 -15 -30 -31c-9 -17 -15 -36 -24 -63c-18 -55 -30 -98 -48 -131c-14 -26 -35 -54 -75 -68
c22 -5 46 -16 66 -30c35 -26 56 -64 71 -97l82 -182l80 -36v-25h-150l-107 239c-14 30 -33 66 -67 86c-29 17 -65 18 -77 18h-62v-282l91 -36v-25h-269v25l91 36v582l-91 36v25h269v-25zM497 913l-200 -151h-47l107 151h140z" />
    <glyph glyph-name="afii10062" unicode="&#x40e;" horiz-adv-x="592" 
d="M468 642l-79 37v25h228v-25l-79 -37l-211 -510c-13 -32 -30 -74 -68 -104c-35 -27 -83 -39 -125 -39c-23 0 -51 3 -59 4v113h61l41 -65c14 4 35 12 56 36c11 12 28 39 33 57l11 37l-215 472l-77 36v25h254l-3 -25l-81 -36l132 -299l37 -94zM403 835v87c5 2 17 7 32 7
c17 0 28 -6 36 -13c12 -11 14 -24 14 -37c0 -34 -15 -56 -43 -73c-34 -22 -88 -32 -123 -32s-89 10 -123 32c-28 17 -43 39 -43 73c0 13 2 26 14 37c8 7 19 13 36 13c15 0 27 -5 32 -7v-87c29 -15 62 -18 84 -18s55 3 84 18z" />
    <glyph glyph-name="afii10145" unicode="&#x40f;" horiz-adv-x="735" 
d="M709 704v-25l-91 -36v-582l91 -36v-25h-324l24 -166v-17h-84v17l24 166h-324v25l91 36v582l-91 36v25h267v-25l-90 -36v-593h330v593l-90 36v25h267z" />
    <glyph glyph-name="afii10017" unicode="&#x410;" horiz-adv-x="674" 
d="M685 0h-256v25l83 39l-80 224h-227l-84 -224l82 -39v-25h-231v25l83 39l265 644h54l230 -644l81 -39v-25zM416 327l-71 213c-2 7 -7 22 -20 62l-105 -275h196z" />
    <glyph glyph-name="afii10018" unicode="&#x411;" horiz-adv-x="592" 
d="M30 704h483v-169h-36l-49 123h-219v-264h82c80 0 140 -9 192 -48c36 -27 72 -70 72 -150c0 -60 -24 -110 -55 -140c-25 -24 -75 -56 -170 -56h-300v25l91 36v582l-91 36v25zM209 45h96c55 0 94 21 115 43c19 20 37 56 37 117c0 42 -10 82 -48 112c-18 14 -54 35 -118 35
h-82v-307z" />
    <glyph glyph-name="afii10019" unicode="&#x412;" horiz-adv-x="596" 
d="M25 704h282c76 0 120 -13 151 -38c41 -32 60 -84 60 -130c0 -53 -24 -101 -67 -132c-20 -14 -58 -36 -110 -42c63 0 105 -21 124 -32c34 -20 85 -62 85 -150c0 -57 -28 -103 -55 -129c-47 -44 -119 -51 -170 -51h-300v25l91 36v582l-91 36v25zM204 378h83
c42 0 73 21 94 46c27 31 38 69 38 104c0 40 -14 76 -36 99c-26 28 -59 37 -94 37h-85v-286zM204 40h85c36 0 92 5 126 37c19 18 37 51 37 107c0 33 -8 75 -45 109c-42 38 -94 42 -121 42h-82v-295z" />
    <glyph glyph-name="afii10020" unicode="&#x413;" horiz-adv-x="498" 
d="M498 704v-169h-38l-51 123h-207v-597l112 -36v-25h-289v25l90 36v582l-90 36v25h473z" />
    <glyph glyph-name="afii10021" unicode="&#x414;" horiz-adv-x="667" 
d="M463 654h-165l-8 -86c-2 -18 -12 -98 -18 -135c-17 -105 -41 -179 -59 -225c-26 -67 -52 -116 -78 -158h328v604zM129 704h512v-25l-91 -36v-593h91v-225h-34l-56 175h-471l-56 -175h-34v225h80c59 92 90 173 111 243c22 73 38 150 49 256l10 95l-111 35v25z" />
    <glyph glyph-name="afii10022" unicode="&#x415;" horiz-adv-x="586" 
d="M541 161l-17 -161h-499v25l91 36v582l-91 36v25h495v-155h-35l-50 115h-232v-287h197l35 95h31v-229h-31l-35 94h-197v-291h237l65 115h36z" />
    <glyph glyph-name="afii10024" unicode="&#x416;" horiz-adv-x="911" 
d="M498 643v-251h40c23 0 51 7 69 18c31 19 45 49 57 78c16 39 23 63 38 102c13 35 33 81 74 105c20 12 48 19 74 19c13 0 31 -2 44 -4v-114h-53l-37 67c-14 -6 -22 -15 -30 -31c-9 -17 -15 -36 -24 -63c-18 -55 -30 -98 -48 -131c-14 -26 -35 -54 -75 -68
c22 -5 46 -16 66 -30c35 -26 56 -64 71 -97l82 -182l80 -36v-25h-150l-106 239c-13 28 -27 55 -53 76c-28 23 -57 29 -83 29h-36v-283l85 -36v-25h-255v25l85 36v283h-36c-26 0 -55 -6 -83 -29c-26 -21 -40 -48 -53 -76l-106 -239h-150v25l80 36l82 182c15 33 36 71 71 97
c20 14 44 25 66 30c-40 14 -61 42 -75 68c-18 33 -30 76 -48 131c-9 27 -15 46 -24 63c-8 16 -16 25 -30 31l-37 -67h-53v114c13 2 31 4 44 4c26 0 54 -7 74 -19c41 -24 61 -70 74 -105c15 -39 22 -63 38 -102c12 -29 26 -59 57 -78c18 -11 46 -18 69 -18h40v251l-85 36v25
h255v-25z" />
    <glyph glyph-name="afii10025" unicode="&#x417;" horiz-adv-x="535" 
d="M56 530v150l29 7c48 12 109 26 162 26c91 0 141 -24 171 -53c33 -33 51 -79 51 -117c0 -57 -33 -152 -170 -181c124 -6 190 -85 190 -173c0 -47 -21 -100 -58 -135c-50 -47 -136 -65 -204 -65c-41 0 -78 7 -91 10c-25 5 -48 12 -70 19l-31 10v147h30l59 -125l18 -3
c12 -2 57 -5 80 -5c42 0 97 13 130 47c22 23 38 61 38 105c0 57 -36 146 -158 144l-45 -13h-20v66h20l45 -12c76 -2 142 59 142 148c0 46 -13 87 -56 115c-37 24 -74 23 -106 23c-30 0 -33 -1 -75 -5l-48 -130h-33z" />
    <glyph glyph-name="afii10026" unicode="&#x418;" horiz-adv-x="773" 
d="M747 0h-267v25l90 36v474l-367 -442v-32l90 -36v-25h-268v25l91 36v582l-91 36v25h268v-25l-90 -36v-474l367 442v32l-90 36v25h267v-25l-91 -36v-582l91 -36v-25z" />
    <glyph glyph-name="afii10027" unicode="&#x419;" horiz-adv-x="773" 
d="M747 0h-267v25l90 36v474l-367 -442v-32l90 -36v-25h-268v25l91 36v582l-91 36v25h268v-25l-90 -36v-474l367 442v32l-90 36v25h267v-25l-91 -36v-582l91 -36v-25zM470 835v87c5 2 17 7 32 7c17 0 28 -6 36 -13c12 -11 14 -24 14 -37c0 -34 -15 -56 -43 -73
c-34 -22 -88 -32 -123 -32s-89 10 -123 32c-28 17 -43 39 -43 73c0 13 2 26 14 37c8 7 19 13 36 13c15 0 27 -5 32 -7v-87c29 -15 62 -18 84 -18s55 3 84 18z" />
    <glyph glyph-name="afii10028" unicode="&#x41a;" horiz-adv-x="659" 
d="M203 643v-250h63c28 0 61 7 81 18c34 19 46 49 57 77c35 91 13 35 38 102c13 35 33 81 74 105c20 12 48 19 74 19c13 0 31 -2 44 -4v-114h-53l-37 67c-14 -6 -22 -15 -30 -31c-9 -17 -15 -36 -24 -63c-18 -55 -30 -98 -48 -131c-14 -26 -35 -54 -75 -68
c22 -5 46 -16 66 -30c35 -26 56 -64 71 -97l82 -182l80 -36v-25h-150l-107 239c-14 30 -33 66 -67 86c-29 17 -65 18 -77 18h-62v-282l91 -36v-25h-269v25l91 36v582l-91 36v25h269v-25z" />
    <glyph glyph-name="afii10029" unicode="&#x41b;" horiz-adv-x="676" 
d="M159 704h491v-25l-91 -36v-582l91 -36v-25h-267v25l90 36v593h-165l-11 -116c-4 -39 -14 -134 -18 -165c-18 -145 -39 -228 -81 -296c-15 -25 -37 -53 -81 -72c-17 -7 -41 -15 -78 -15c-12 0 -36 1 -49 3v121h60l44 -66c30 17 48 40 62 66c19 35 38 82 55 184
c11 67 27 207 33 273l6 72l-91 36v25z" />
    <glyph glyph-name="afii10030" unicode="&#x41c;" horiz-adv-x="879" 
d="M851 0h-264v25l90 36v535l-246 -607h-20l-243 607v-535l93 -36v-25h-236v25l90 36v582l-90 36v25h189l224 -563l230 563h183v-25l-91 -36v-582l91 -36v-25z" />
    <glyph glyph-name="afii10031" unicode="&#x41d;" horiz-adv-x="750" 
d="M724 0h-267v25l90 36v282h-344v-282l90 -36v-25h-268v25l91 36v582l-91 36v25h268v-25l-90 -36v-250h344v250l-90 36v25h267v-25l-91 -36v-582l91 -36v-25z" />
    <glyph glyph-name="afii10032" unicode="&#x41e;" horiz-adv-x="728" 
d="M687 361c0 -125 -42 -224 -105 -287c-54 -54 -131 -90 -227 -90c-87 0 -169 27 -232 99c-46 53 -82 130 -82 247c0 100 28 184 68 245c74 112 182 139 262 139c106 0 182 -41 229 -94c51 -57 87 -145 87 -259zM591 342c0 36 -4 149 -55 230c-33 52 -88 98 -177 98
c-101 0 -146 -58 -164 -85c-43 -65 -58 -152 -58 -237c0 -69 11 -159 61 -231c34 -50 86 -89 167 -89c76 0 123 34 153 70c61 73 73 171 73 244z" />
    <glyph glyph-name="afii10033" unicode="&#x41f;" horiz-adv-x="742" 
d="M716 0h-267v25l90 36v593h-336v-593l90 -36v-25h-268v25l91 36v582l-91 36v25h691v-25l-91 -36v-582l91 -36v-25z" />
    <glyph glyph-name="afii10034" unicode="&#x420;" horiz-adv-x="549" 
d="M25 704h264c91 0 144 -16 187 -56c39 -36 57 -83 57 -144c0 -66 -27 -121 -77 -157c-44 -31 -103 -49 -175 -49h-78v-238l116 -35v-25h-294v25l91 35v583l-91 36v25zM203 339h55c113 0 183 49 183 164c0 101 -51 161 -156 161h-82v-325z" />
    <glyph glyph-name="afii10035" unicode="&#x421;" horiz-adv-x="663" 
d="M627 180l-12 -154c-73 -19 -79 -20 -110 -25c-26 -4 -60 -11 -122 -11c-107 0 -193 22 -258 93c-75 82 -84 185 -84 244c0 138 48 230 95 282c78 86 184 105 292 105c80 0 115 -10 180 -20l13 -2v-157h-34l-53 130c-14 2 -42 6 -88 6c-80 0 -167 -15 -232 -82
c-60 -62 -82 -150 -82 -244c0 -48 6 -141 65 -213c67 -81 160 -86 233 -86c20 0 39 0 81 3l14 1l72 130h30z" />
    <glyph glyph-name="afii10036" unicode="&#x422;" horiz-adv-x="589" 
d="M589 535h-34l-48 123h-165v-597l110 -36v-25h-307v25l110 36v597h-171l-49 -123h-35v169h589v-169z" />
    <glyph glyph-name="afii10037" unicode="&#x423;" horiz-adv-x="592" 
d="M468 642l-79 37v25h228v-25l-79 -37l-211 -510c-13 -32 -30 -74 -68 -104c-35 -27 -83 -39 -125 -39c-23 0 -51 3 -59 4v113h61l41 -65c14 4 35 12 56 36c11 12 28 39 33 57l11 37l-215 472l-77 36v25h254l-3 -25l-81 -36l132 -299l37 -94z" />
    <glyph glyph-name="afii10038" unicode="&#x424;" horiz-adv-x="763" 
d="M509 25v-25h-255v25l85 31v66c-70 0 -165 15 -229 75c-31 29 -69 83 -69 171c0 87 42 154 91 191c57 43 133 53 207 54v58l-85 31v25h255v-25l-85 -31v-58c74 -1 150 -11 207 -54c49 -37 91 -104 91 -191c0 -88 -38 -142 -69 -171c-64 -60 -159 -75 -229 -75v-66z
M424 577v-419c84 1 134 26 163 61c38 46 42 115 42 147c0 50 -5 116 -55 164c-30 29 -77 50 -150 47zM339 158v419c-73 3 -120 -18 -150 -47c-50 -48 -55 -114 -55 -164c0 -32 4 -101 42 -147c29 -35 79 -60 163 -61z" />
    <glyph glyph-name="afii10039" unicode="&#x425;" horiz-adv-x="643" 
d="M648 0h-267v25l84 37l-161 251l-156 -251l80 -37v-25h-233v25l80 36l200 296l-184 286l-80 36v25h250v-25l-70 -37l145 -223l143 223l-71 37v25h219v-25l-81 -36l-183 -265l206 -317l79 -36v-25z" />
    <glyph glyph-name="afii10040" unicode="&#x426;" horiz-adv-x="729" 
d="M703 704v-25l-91 -36v-593h91v-225h-34l-56 175h-588v25l91 36v582l-91 36v25h268v-25l-90 -36v-593h323v593l-90 36v25h267z" />
    <glyph glyph-name="afii10041" unicode="&#x427;" horiz-adv-x="688" 
d="M663 0h-267v25l90 36v252c-75 -22 -130 -25 -164 -25c-39 0 -89 3 -131 25c-84 44 -85 136 -85 164v166l-91 36v25h268v-25l-90 -36v-150c0 -38 2 -83 31 -114c28 -30 78 -41 135 -41c44 0 93 7 127 15v290l-90 36v25h267v-25l-91 -36v-582l91 -36v-25z" />
    <glyph glyph-name="afii10042" unicode="&#x428;" horiz-adv-x="1018" 
d="M463 50v593l-88 36v25h263v-25l-88 -36v-593h260v593l-88 36v25h266v-25l-91 -36v-582l91 -36v-25h-963v25l91 36v582l-91 36v25h266v-25l-88 -36v-593h260z" />
    <glyph glyph-name="afii10043" unicode="&#x429;" horiz-adv-x="1018" 
d="M463 50v593l-88 36v25h263v-25l-88 -36v-593h260v593l-88 36v25h266v-25l-91 -36v-593h91v-225h-34l-56 175h-873v25l91 36v582l-91 36v25h266v-25l-88 -36v-593h260z" />
    <glyph glyph-name="afii10044" unicode="&#x42a;" horiz-adv-x="705" 
d="M326 402h82c60 0 140 -5 198 -48c32 -24 73 -71 73 -154c0 -71 -33 -119 -57 -143c-36 -36 -92 -57 -175 -57h-300v25l91 36v597h-149l-49 -123h-35v169h411v-25l-90 -36v-241zM326 45h96c66 0 103 26 120 44c34 34 39 80 39 113c0 41 -7 88 -50 122
c-40 32 -93 36 -123 36h-82v-315z" />
    <glyph glyph-name="afii10045" unicode="&#x42b;" horiz-adv-x="891" 
d="M204 402h82c60 0 140 -5 198 -48c32 -24 73 -71 73 -154c0 -71 -33 -119 -57 -143c-36 -36 -92 -57 -175 -57h-300v25l91 36v582l-90 36v25h268v-25l-90 -36v-241zM204 45h96c66 0 103 26 120 44c35 35 39 83 39 120c0 43 -12 84 -50 115c-40 32 -93 36 -123 36h-82v-315
zM598 704h267v-25l-91 -36v-582l91 -36v-25h-267v25l90 36v582l-90 36v25z" />
    <glyph glyph-name="afii10046" unicode="&#x42c;" horiz-adv-x="583" 
d="M204 402h82c60 0 140 -5 198 -48c32 -24 73 -71 73 -154c0 -71 -33 -119 -57 -143c-36 -36 -92 -57 -175 -57h-300v25l91 36v582l-90 36v25h268v-25l-90 -36v-241zM204 45h96c66 0 103 26 120 44c35 35 39 83 39 120c0 43 -12 84 -50 115c-40 32 -93 36 -123 36h-82v-315
z" />
    <glyph glyph-name="afii10047" unicode="&#x42d;" horiz-adv-x="643" 
d="M36 174h30l72 -124l14 -1c20 -1 44 -3 76 -3c65 0 145 9 208 67c69 64 87 162 88 225h-261l-35 -92h-31v228h31l35 -92h261c5 98 -45 200 -129 249c-57 33 -123 40 -183 40c-32 0 -57 -2 -83 -6l-53 -125h-34v152l13 2c47 7 106 20 200 20c85 0 206 -10 288 -109
c55 -65 74 -147 74 -234c0 -153 -57 -243 -114 -295c-87 -80 -200 -86 -244 -86c-46 0 -88 8 -106 11c-42 8 -61 13 -117 27v146z" />
    <glyph glyph-name="afii10048" unicode="&#x42e;" horiz-adv-x="1014" 
d="M203 393h144c8 65 31 132 62 182c70 112 180 139 257 139c101 0 175 -41 222 -94c50 -57 85 -145 85 -259c0 -125 -41 -224 -103 -287c-63 -64 -144 -90 -223 -90c-116 0 -184 51 -225 99c-44 52 -81 127 -79 260h-140v-282l90 -36v-25h-268v25l91 36v582l-91 36v25h268
v-25l-90 -36v-250zM651 670c-98 0 -143 -59 -160 -85c-41 -63 -56 -154 -56 -237c0 -117 31 -189 59 -231c47 -70 109 -89 163 -89s107 18 149 70c44 54 71 134 71 244c0 79 -16 167 -54 230c-46 74 -111 98 -172 98z" />
    <glyph glyph-name="afii10049" unicode="&#x42f;" horiz-adv-x="618" 
d="M414 330h-36c-39 0 -73 -13 -96 -33c-25 -22 -43 -61 -59 -96l-89 -201h-148v23l81 43l72 158c10 21 31 63 70 90c23 16 59 30 89 36c-43 4 -99 20 -134 45c-26 19 -63 59 -63 128c0 61 32 111 71 139c57 40 145 42 172 42h248v-25l-91 -36v-582l91 -36v-25h-269v25
l91 36v269zM414 372v292h-86c-27 0 -65 -5 -96 -34c-25 -23 -41 -56 -41 -104c0 -53 19 -88 38 -109c38 -42 84 -45 113 -45h72z" />
    <glyph glyph-name="afii10065" unicode="&#x430;" horiz-adv-x="505" 
d="M494 27l-60 -20c-16 -5 -33 -11 -55 -11c-19 0 -37 4 -48 23c-5 8 -7 18 -8 27l-23 -11c-39 -19 -59 -26 -73 -31c-21 -7 -36 -8 -50 -8c-88 0 -146 52 -146 126c0 85 72 110 111 119c36 9 86 14 148 20l30 3v123c0 14 -1 37 -13 53c-9 11 -23 18 -37 22
c-9 2 -43 10 -93 6l-43 -85h-55v93l67 16c34 8 74 17 114 17c51 0 84 -14 105 -29c35 -25 38 -58 38 -92v-284c0 -8 -1 -18 3 -25c5 -8 16 -11 30 -15l58 -17v-20zM320 64v174c-61 -10 -89 -13 -124 -23c-30 -9 -70 -25 -70 -79c0 -31 13 -49 27 -62c24 -21 52 -26 78 -26
c24 0 57 7 75 12z" />
    <glyph glyph-name="afii10066" unicode="&#x431;" horiz-adv-x="561" 
d="M95 369h5c13 32 35 64 72 91c40 30 78 39 125 39c52 0 105 -11 151 -54c46 -42 78 -113 78 -196c0 -53 -13 -123 -66 -184c-57 -66 -126 -81 -183 -81c-54 0 -119 17 -168 75c-61 73 -66 167 -66 227c0 82 9 175 37 246c42 105 116 143 189 157l102 20c6 1 45 9 61 18
c5 3 16 10 35 35l13 17l25 -8l-12 -35c-12 -36 -19 -68 -49 -87c-22 -14 -56 -18 -95 -25l-75 -13c-79 -14 -107 -27 -135 -69c-18 -26 -35 -65 -41 -136zM432 227c0 47 -7 106 -27 146c-17 34 -54 82 -126 82c-39 0 -73 -19 -93 -40c-19 -20 -49 -66 -49 -168
c0 -46 6 -103 34 -151c13 -22 46 -68 119 -68c35 0 81 13 110 60s32 113 32 139z" />
    <glyph glyph-name="afii10067" unicode="&#x432;" horiz-adv-x="537" 
d="M25 499h258c68 0 106 -11 129 -23c43 -22 60 -55 60 -96c0 -58 -34 -82 -55 -95c-23 -14 -45 -23 -73 -27c41 -2 92 -17 120 -45c26 -26 31 -56 31 -78c0 -49 -21 -81 -57 -104c-47 -29 -101 -31 -146 -31h-267v25l89 36v376l-89 37v25zM197 238v-200h75
c45 0 81 10 102 29c27 25 29 59 29 75c0 35 -10 59 -41 77c-28 17 -65 19 -98 19h-67zM197 461v-187h77c23 0 58 2 82 25c22 21 25 51 25 71c0 17 -3 45 -26 66c-25 22 -62 25 -88 25h-70z" />
    <glyph glyph-name="afii10068" unicode="&#x433;" horiz-adv-x="445" 
d="M197 455v-394l100 -36v-25h-272v25l89 36v376l-89 37v25h415v-143h-33l-51 99h-159z" />
    <glyph glyph-name="afii10069" unicode="&#x434;" horiz-adv-x="552" 
d="M527 499v-25l-89 -37v-395h89v-198h-31l-53 156h-368l-53 -156h-32v198h64c13 19 51 78 76 150c18 51 33 123 39 189l5 56l-91 37v25h444zM354 459h-127l-6 -66c-6 -63 -13 -132 -44 -222c-16 -47 -35 -86 -63 -129h240v417z" />
    <glyph glyph-name="afii10070" unicode="&#x435;" horiz-adv-x="511" 
d="M470 271h-338c-3 -82 13 -128 42 -162c48 -56 112 -63 160 -63c37 0 89 5 122 11l6 -27l-29 -9c-17 -5 -57 -17 -75 -21c-25 -6 -56 -10 -83 -10c-158 0 -239 112 -239 250c0 92 39 163 81 204c30 29 85 65 158 65c51 0 135 -18 175 -111c7 -16 19 -49 20 -127zM133 299
l241 18c2 68 -14 99 -28 117c-22 28 -51 35 -79 35c-58 0 -90 -29 -111 -75c-12 -27 -21 -62 -23 -95z" />
    <glyph glyph-name="afii10072" unicode="&#x436;" horiz-adv-x="742" 
d="M488 0h-234v25l77 35v179h-30c-23 0 -46 -7 -62 -19c-21 -16 -34 -42 -47 -70l-68 -150h-131v25l67 35l47 104c11 25 24 50 51 70c21 15 48 25 72 28c-13 4 -36 14 -53 38c-10 14 -17 33 -24 52c-13 35 -15 41 -20 54c-12 31 -20 42 -34 51l-31 -60h-52v109
c14 2 30 3 42 3c18 0 45 -3 69 -20c24 -18 37 -43 47 -67c20 -46 23 -60 35 -84c12 -25 32 -57 83 -57h39v158l-77 35v25h234v-25l-77 -35v-158h39c51 0 71 32 83 57c12 24 15 38 35 84c10 24 23 49 47 67c24 17 51 20 69 20c12 0 28 -1 42 -3v-109h-52l-31 60
c-14 -9 -22 -20 -34 -51c-5 -13 -7 -19 -20 -54c-7 -19 -14 -38 -24 -52c-17 -24 -40 -34 -53 -38c24 -3 51 -13 72 -28c27 -20 40 -45 51 -70l47 -104l67 -35v-25h-131l-68 150c-13 28 -26 54 -47 70c-16 12 -39 19 -62 19h-30v-179l77 -35v-25z" />
    <glyph glyph-name="afii10073" unicode="&#x437;" horiz-adv-x="442" 
d="M50 381v107l30 6c36 7 84 16 138 16c40 0 93 -4 131 -34c30 -23 42 -52 42 -82c0 -26 -6 -51 -24 -73c-34 -43 -92 -53 -113 -56c75 -3 110 -32 122 -43c23 -22 35 -49 35 -84c0 -40 -15 -82 -66 -113c-43 -26 -106 -35 -149 -35c-29 0 -66 5 -92 10c-24 5 -50 12 -72 19
v114h39l49 -97c23 -5 41 -6 58 -6c32 0 70 4 99 26c18 14 39 42 39 85c0 42 -20 67 -39 80c-21 15 -53 23 -82 22l-37 -11h-17v56h17l38 -10c28 1 57 12 76 30c14 13 29 36 29 75c0 27 -8 51 -33 69c-24 17 -54 18 -77 18c-16 0 -41 -2 -62 -5l-41 -84h-38z" />
    <glyph glyph-name="afii10074" unicode="&#x438;" horiz-adv-x="647" 
d="M277 0h-252v25l89 36v376l-89 37v25h252v-25l-80 -37v-298l253 278v20l-80 37v25h252v-25l-89 -37v-376l89 -36v-25h-252v25l80 36v298l-253 -278v-20l80 -36v-25z" />
    <glyph glyph-name="afii10075" unicode="&#x439;" horiz-adv-x="647" 
d="M277 0h-252v25l89 36v376l-89 37v25h252v-25l-80 -37v-298l253 278v20l-80 37v25h252v-25l-89 -37v-376l89 -36v-25h-252v25l80 36v298l-253 -278v-20l80 -36v-25zM404 646v85c13 5 24 6 31 6c14 0 25 -3 34 -12c10 -10 14 -21 14 -36c0 -34 -16 -55 -42 -72
c-33 -21 -79 -30 -118 -30c-42 0 -88 10 -118 30c-29 19 -41 43 -41 72c0 19 7 30 13 36c8 7 21 12 35 12c10 0 21 -2 30 -6v-85c15 -8 42 -18 81 -18c43 0 70 12 81 18z" />
    <glyph glyph-name="afii10076" unicode="&#x43a;" horiz-adv-x="559" 
d="M274 0h-249v23l83 39v375l-83 37v25h249v-25l-83 -37v-156h59c51 0 71 32 83 57c12 24 15 38 35 84c10 23 23 50 47 67c21 15 49 20 69 20c12 0 33 -2 44 -3v-110h-54l-31 61c-14 -9 -22 -20 -34 -51c-5 -13 -7 -19 -20 -54c-7 -19 -14 -38 -24 -52
c-17 -24 -40 -34 -53 -38c24 -3 51 -13 72 -28c27 -20 40 -45 51 -70l47 -104l67 -35v-25h-131l-68 150c-13 28 -26 54 -47 70c-16 12 -39 19 -62 19h-50v-177l83 -37v-25z" />
    <glyph glyph-name="afii10077" unicode="&#x43b;" horiz-adv-x="570" 
d="M544 499v-25l-89 -37v-376l89 -36v-25h-255v25l83 36v398h-132l-6 -86c-3 -41 -11 -117 -16 -154c-6 -43 -22 -129 -65 -179c-37 -43 -84 -50 -115 -50c-21 0 -43 2 -48 3v103h51l36 -61c10 5 16 10 22 16c14 13 27 30 39 61c9 24 22 65 32 151c3 28 11 100 12 124l3 50
l-88 37v25h447z" />
    <glyph glyph-name="afii10078" unicode="&#x43c;" horiz-adv-x="725" 
d="M217 499l147 -367l147 367h189v-25l-90 -37v-376l90 -36v-25h-251v25l80 36v368l-174 -433h-22l-172 429v-364l78 -36v-25h-214v25l89 36v376l-89 37v25h192z" />
    <glyph glyph-name="afii10079" unicode="&#x43d;" horiz-adv-x="636" 
d="M277 0h-252v25l89 36v376l-89 37v25h252v-25l-80 -37v-156h242v156l-80 37v25h252v-25l-89 -37v-376l89 -36v-25h-252v25l80 36v178h-242v-178l80 -36v-25z" />
    <glyph glyph-name="afii10080" unicode="&#x43e;" horiz-adv-x="555" 
d="M519 254c0 -80 -27 -140 -68 -187c-57 -65 -125 -83 -181 -83c-48 0 -119 13 -173 75c-46 53 -61 119 -61 178c0 82 25 150 65 195c33 38 89 77 182 77c63 0 122 -18 170 -69c45 -49 66 -116 66 -186zM425 232c0 25 -1 93 -27 149c-34 75 -94 84 -126 84
c-28 0 -65 -10 -93 -41c-26 -29 -49 -81 -49 -172c0 -46 6 -108 34 -156c32 -56 82 -68 119 -68c23 0 77 6 110 60c29 48 32 119 32 144z" />
    <glyph glyph-name="afii10081" unicode="&#x43f;" horiz-adv-x="628" 
d="M277 0h-252v23l89 36v378l-89 37v25h578v-25l-89 -37v-376l89 -36v-25h-252v25l80 36v394h-234v-394l80 -36v-25z" />
    <glyph glyph-name="afii10082" unicode="&#x440;" horiz-adv-x="590" 
d="M193 515v-64c16 8 28 14 69 32c44 20 74 26 91 26c114 0 201 -106 201 -236c0 -162 -123 -283 -294 -283c-29 0 -48 2 -67 6v-164l113 -36v-25h-286v25l90 36v595l-91 27v21zM193 428v-390c23 -2 41 -3 63 -3c52 0 87 6 118 24c59 33 92 103 92 182
c0 109 -65 204 -180 204c-36 0 -70 -9 -93 -17z" />
    <glyph glyph-name="afii10083" unicode="&#x441;" horiz-adv-x="474" 
d="M443 61l6 -31s-58 -18 -64 -19c-51 -15 -72 -21 -125 -21c-135 0 -224 103 -224 249c0 161 115 271 285 271c36 0 75 -7 124 -19v-107h-57l-46 93h-11c-123 0 -209 -89 -209 -210c0 -64 17 -121 51 -160c36 -42 83 -59 151 -59c38 0 50 1 119 13z" />
    <glyph glyph-name="afii10084" unicode="&#x442;" horiz-adv-x="459" 
d="M271 61l89 -36v-25h-261v25l89 36v394h-101l-51 -99h-31v143h449v-143h-31l-51 99h-101v-394z" />
    <glyph glyph-name="afii10085" unicode="&#x443;" horiz-adv-x="521" 
d="M537 474l-61 -33l-224 -544c-37 -91 -91 -127 -183 -127c-20 0 -48 2 -62 3v98h57l36 -62c41 4 68 29 98 101l38 91l-180 448l-66 25v25h232v-25l-75 -25l108 -284c5 -14 17 -55 21 -73l133 349l-72 33v25h200v-25z" />
    <glyph glyph-name="afii10086" unicode="&#x444;" horiz-adv-x="694" 
d="M387 739v-254c23 15 56 24 83 24c41 0 85 -12 124 -54c32 -35 64 -95 64 -198c0 -71 -21 -142 -55 -190c-43 -61 -99 -77 -140 -77c-14 0 -42 2 -76 20v-178l89 -36v-25h-258v25l89 36v182c-23 -15 -56 -24 -83 -24c-41 0 -85 12 -124 54c-56 60 -64 138 -64 198
c0 52 10 127 55 190c49 69 110 77 140 77c14 0 42 -2 76 -20v165l-88 25v20zM387 456v-413c15 -7 33 -12 56 -12c43 0 71 19 93 56c18 31 34 78 34 162c0 53 -4 122 -38 171c-25 35 -57 47 -95 47c-12 0 -30 -3 -50 -11zM307 43v413c-15 7 -33 12 -56 12
c-43 0 -71 -19 -93 -56c-18 -31 -34 -78 -34 -162c0 -53 4 -122 38 -171c25 -35 57 -47 95 -47c12 0 30 3 50 11z" />
    <glyph glyph-name="afii10087" unicode="&#x445;" horiz-adv-x="561" 
d="M556 0h-228v25l52 28l-115 161l-114 -155l49 -34v-25h-195v25l75 31l158 196l-142 199l-75 23v25h228v-25l-52 -24l103 -144l103 136l-49 32v25h180v-25l-63 -30l-146 -173l158 -221l73 -25v-25z" />
    <glyph glyph-name="afii10088" unicode="&#x446;" horiz-adv-x="618" 
d="M280 499v-25l-83 -36v-394h224v394l-83 36v25h255v-25l-89 -36v-394h89v-200h-31l-53 156h-484v25l89 37v378l-89 36v23h255z" />
    <glyph glyph-name="afii10089" unicode="&#x447;" horiz-adv-x="554" 
d="M283 499h246v-25l-89 -37v-376l89 -36v-25h-266v25l94 36v170c-19 -10 -37 -17 -56 -23c-14 -4 -44 -12 -77 -12c-32 0 -83 6 -116 37c-23 22 -37 55 -37 118v86l-76 37v25h233v-25l-74 -37v-97c0 -36 9 -59 21 -72c16 -17 45 -27 79 -27c36 0 74 8 103 18v178l-74 37v25
z" />
    <glyph glyph-name="afii10090" unicode="&#x448;" horiz-adv-x="857" 
d="M832 0h-807v25l89 36v376l-89 37v25h244v-25l-72 -37v-393h193v393l-72 37v25h227v-25l-72 -37v-393h193v393l-72 37v25h238v-25l-83 -37v-376l83 -36v-25z" />
    <glyph glyph-name="afii10091" unicode="&#x449;" horiz-adv-x="863" 
d="M832 499v-25l-83 -37v-393h89v-200h-31l-53 156h-729v25l89 36v376l-89 37v25h244v-25l-72 -37v-393h193v393l-72 37v25h227v-25l-72 -37v-393h193v393l-72 37v25h238z" />
    <glyph glyph-name="afii10092" unicode="&#x44a;" horiz-adv-x="588" 
d="M106 0v25l89 36v394h-120l-42 -99h-28v143h362v-25l-89 -37v-146h83c31 0 112 -2 158 -41c27 -23 44 -59 44 -105c0 -50 -23 -82 -43 -100c-26 -23 -76 -45 -160 -45h-254zM278 251v-211h62c46 0 86 12 107 35c22 24 24 58 24 72c0 31 -6 58 -33 78
c-31 24 -75 26 -106 26h-54z" />
    <glyph glyph-name="afii10093" unicode="&#x44b;" horiz-adv-x="775" 
d="M25 0v25l89 36v376l-89 37v25h261v-25l-89 -37v-146h83c31 0 112 -2 158 -41c27 -23 44 -59 44 -105c0 -50 -23 -82 -43 -100c-26 -23 -76 -45 -160 -45h-254zM197 251v-211h62c46 0 86 12 107 35c22 24 24 58 24 72c0 31 -6 58 -33 78c-31 24 -75 26 -106 26h-54z
M495 499h255v-25l-89 -37v-376l89 -36v-25h-249v25l77 36v376l-83 37v25z" />
    <glyph glyph-name="afii10094" unicode="&#x44c;" horiz-adv-x="507" 
d="M25 0v25l89 36v376l-89 37v25h261v-25l-89 -37v-146h83c31 0 112 -2 158 -41c27 -23 44 -59 44 -105c0 -50 -23 -82 -43 -100c-26 -23 -76 -45 -160 -45h-254zM197 251v-211h62c46 0 86 12 107 35c22 24 24 58 24 72c0 31 -6 58 -33 78c-31 24 -75 26 -106 26h-54z" />
    <glyph glyph-name="afii10095" unicode="&#x44d;" horiz-adv-x="483" 
d="M141 234v55l222 -9c-1 57 -23 113 -57 145c-31 29 -78 45 -122 45c-7 0 -23 0 -55 -5l-41 -84h-38v107l31 8c25 6 77 14 120 14c107 0 162 -40 173 -48c35 -26 84 -85 84 -201c0 -56 -14 -120 -59 -177c-58 -73 -141 -94 -211 -94c-27 0 -77 4 -153 29v114h39l49 -97
c20 -5 37 -6 51 -6c55 0 106 19 137 51c37 39 53 105 52 163z" />
    <glyph glyph-name="afii10096" unicode="&#x44e;" horiz-adv-x="809" 
d="M197 280h115c4 54 24 113 55 152c22 27 74 77 176 77c72 0 126 -25 166 -69c44 -48 64 -117 64 -186c0 -78 -28 -142 -66 -187c-55 -65 -124 -83 -177 -83c-58 0 -123 21 -167 75c-43 53 -53 132 -54 179h-112v-177l80 -36v-25h-252v23l89 36v378l-89 37v25h252v-25
l-80 -37v-157zM532 467c-28 0 -63 -12 -90 -43c-43 -49 -48 -120 -48 -172c0 -48 6 -106 33 -156c13 -25 43 -70 116 -70c60 0 91 33 107 62c21 38 31 91 31 144c0 51 -8 106 -26 149c-33 77 -92 86 -123 86z" />
    <glyph glyph-name="afii10097" unicode="&#x44f;" horiz-adv-x="538" 
d="M513 499v-25l-89 -37v-376l89 -36v-25h-245v25l76 36v165h-41c-20 0 -47 -4 -71 -21c-22 -15 -31 -34 -40 -54l-70 -151h-132v25l71 36l49 99c8 17 23 40 50 56c16 10 40 18 62 21c-34 2 -75 14 -101 32c-30 21 -50 54 -50 94c0 33 12 80 66 109c37 20 97 27 144 27h232z
M344 459h-70c-22 0 -53 -3 -77 -18c-26 -17 -38 -43 -38 -78c0 -24 5 -59 41 -82c27 -17 64 -20 82 -20h62v198z" />
    <glyph glyph-name="afii10071" unicode="&#x451;" horiz-adv-x="511" 
d="M400 658c0 -21 -5 -55 -50 -55c-43 0 -50 31 -50 49c0 52 35 55 48 55c46 0 52 -31 52 -49zM206 655c0 -17 -4 -52 -52 -52s-49 34 -49 48c0 19 4 56 49 56c27 0 52 -14 52 -52zM470 271h-338c-3 -82 13 -128 42 -162c48 -56 112 -63 160 -63c37 0 89 5 122 11l6 -27
l-29 -9c-17 -5 -57 -17 -75 -21c-25 -6 -56 -10 -83 -10c-158 0 -239 112 -239 250c0 92 39 163 81 204c30 29 85 65 158 65c51 0 135 -18 175 -111c7 -16 19 -49 20 -127zM133 299l241 18c2 68 -14 99 -28 117c-22 28 -51 35 -79 35c-58 0 -90 -29 -111 -75
c-12 -27 -21 -62 -23 -95z" />
    <glyph glyph-name="afii10099" unicode="&#x452;" horiz-adv-x="597" 
d="M198 535v-129l61 26c33 14 67 27 115 27c23 0 74 -3 111 -46c25 -29 36 -70 36 -126v-215c0 -55 2 -150 -41 -217c-55 -87 -166 -92 -235 -81v96h62l36 -64c27 4 58 17 77 70c5 14 18 55 18 176v218c0 41 -8 78 -40 100c-19 13 -48 21 -104 21c-16 0 -56 -1 -96 -8v-322
l90 -36v-25h-263v25l90 36v474h-98v40h98v75l-98 26v22l181 42v-165h190v-40h-190z" />
    <glyph glyph-name="afii10100" unicode="&#x453;" horiz-adv-x="445" 
d="M197 455v-394l100 -36v-25h-272v25l89 36v376l-89 37v25h415v-143h-33l-51 99h-159zM387 730l-200 -151h-47l107 151h140z" />
    <glyph glyph-name="afii10101" unicode="&#x454;" horiz-adv-x="479" 
d="M352 234l-222 10c-1 -59 15 -124 52 -163c30 -32 79 -51 133 -51c14 0 31 1 51 6l49 97h39v-114c-76 -26 -125 -29 -153 -29c-100 0 -165 36 -202 74c-50 52 -64 118 -64 167c0 122 50 188 82 217c35 31 92 62 175 62c42 0 100 -8 124 -14l31 -8v-107h-38l-41 84
c-30 4 -47 5 -59 5c-52 0 -92 -18 -122 -47c-27 -26 -52 -70 -57 -143l222 9v-55z" />
    <glyph glyph-name="afii10102" unicode="&#x455;" horiz-adv-x="419" 
d="M193 319l81 -44c44 -24 62 -44 75 -64s19 -50 19 -75c0 -87 -67 -147 -160 -147c-23 0 -55 5 -92 13c-21 4 -37 9 -65 17v114h37l49 -99c22 -4 30 -5 48 -5c59 0 110 22 110 84c0 28 -17 54 -53 75l-100 59c-10 6 -85 38 -85 123c0 86 58 139 155 139
c48 0 94 -12 140 -21v-107h-38l-42 84c-17 3 -26 4 -49 4c-63 0 -100 -25 -100 -68c0 -31 19 -54 70 -82z" />
    <glyph glyph-name="afii10103" unicode="&#x456;" horiz-adv-x="304" 
d="M215 689c0 -37 -18 -54 -57 -54c-38 0 -58 17 -58 52s18 53 58 53c39 0 57 -16 57 -51zM289 0h-264v25l91 36v366l-91 27v21l174 40v-454l90 -36v-25z" />
    <glyph glyph-name="afii10104" unicode="&#x457;" horiz-adv-x="307" 
d="M293 0h-264v25l91 36v366l-91 27v21l174 40v-454l90 -36v-25zM290 652c0 -33 -15 -50 -46 -50c-29 0 -45 16 -45 44c0 35 14 50 43 50c32 0 48 -15 48 -44zM113 649c0 -31 -15 -47 -47 -47c-31 0 -45 14 -45 43c0 33 15 51 45 51c31 0 47 -16 47 -47z" />
    <glyph glyph-name="afii10105" unicode="&#x458;" horiz-adv-x="309" 
d="M233 690c0 -35 -22 -55 -59 -55c-35 0 -57 19 -57 52c0 35 19 53 57 53c39 0 59 -16 59 -50zM215 515v-526c0 -77 -16 -124 -68 -170c-41 -37 -85 -49 -144 -49c-23 0 -49 3 -64 4v96h62l36 -64c69 13 95 59 95 148v472l-91 28v21z" />
    <glyph glyph-name="afii10106" unicode="&#x459;" horiz-adv-x="756" 
d="M278 0v25l89 36v398h-127l-6 -86c-3 -41 -11 -117 -16 -154c-6 -43 -22 -129 -65 -179c-37 -43 -84 -50 -115 -50c-21 0 -43 2 -48 3v103h51l36 -61c10 5 16 10 22 16c14 13 27 30 39 61c9 24 22 65 32 151c3 28 11 100 12 124l3 50l-88 37v25h442v-25l-89 -37v-146h78
c31 0 112 -2 158 -41c27 -23 44 -59 44 -105c0 -50 -23 -82 -43 -100c-26 -23 -76 -45 -160 -45h-249zM450 251v-211h56c46 0 86 12 107 35c22 24 24 58 24 72c0 31 -6 58 -33 78c-31 24 -75 26 -106 26h-48z" />
    <glyph glyph-name="afii10107" unicode="&#x45a;" horiz-adv-x="821" 
d="M354 0v25l80 36v185h-237v-185l80 -36v-25h-252v25l89 36v376l-89 37v25h252v-25l-80 -37v-151h237v151l-80 37v25h252v-25l-89 -37v-151h77c31 0 112 -2 158 -41c26 -22 44 -59 44 -105c0 -49 -23 -80 -43 -97c-27 -23 -75 -43 -160 -43h-239zM517 246v-206h56
c40 0 79 9 101 29c13 11 30 34 30 74c0 44 -18 67 -33 78c-25 19 -69 25 -106 25h-48z" />
    <glyph glyph-name="afii10108" unicode="&#x45b;" horiz-adv-x="629" 
d="M611 0h-173v280c0 32 -6 76 -47 96c-27 13 -74 15 -97 15c-15 0 -55 -1 -96 -8v-322l90 -36v-25h-263v25l90 36v474h-98v40h98v75l-98 26v22l181 42v-165h190v-40h-190v-129l61 26c33 14 67 27 115 27c23 0 73 -3 111 -44c31 -33 36 -73 36 -118v-236l90 -36v-25z" />
    <glyph glyph-name="afii10109" unicode="&#x45c;" horiz-adv-x="559" 
d="M274 0h-249v23l83 39v375l-83 37v25h249v-25l-83 -37v-156h59c51 0 71 32 83 57c12 24 15 38 35 84c10 23 23 50 47 67c21 15 49 20 69 20c12 0 33 -2 44 -3v-110h-54l-31 61c-14 -9 -22 -20 -34 -51c-5 -13 -7 -19 -20 -54c-7 -19 -14 -38 -24 -52
c-17 -24 -40 -34 -53 -38c24 -3 51 -13 72 -28c27 -20 40 -45 51 -70l47 -104l67 -35v-25h-131l-68 150c-13 28 -26 54 -47 70c-16 12 -39 19 -62 19h-50v-177l83 -37v-25zM424 729l-200 -151h-47l107 151h140z" />
    <glyph glyph-name="afii10110" unicode="&#x45e;" horiz-adv-x="521" 
d="M537 474l-61 -33l-224 -544c-37 -91 -91 -127 -183 -127c-20 0 -48 2 -62 3v98h57l36 -62c41 4 68 29 98 101l38 91l-180 448l-66 25v25h232v-25l-75 -25l108 -284c5 -14 17 -55 21 -73l133 349l-72 33v25h200v-25zM350 659v83c9 4 20 6 29 6c12 0 25 -5 33 -12
c10 -10 13 -23 13 -35c0 -33 -16 -54 -40 -70c-31 -20 -75 -29 -113 -29s-82 9 -113 29c-24 16 -40 37 -40 70c0 12 3 25 13 35c8 7 21 12 33 12c9 0 20 -2 29 -6v-83c25 -14 59 -17 78 -17s53 3 78 17z" />
    <glyph glyph-name="afii10193" unicode="&#x45f;" horiz-adv-x="624" 
d="M280 499v-25l-83 -36v-394h230v394l-83 36v25h255v-25l-89 -36v-376l89 -37v-25h-269l21 -155v-17h-78v17l21 155h-269v25l89 37v378l-89 36v23h255z" />
    <glyph glyph-name="afii10050" unicode="&#x490;" horiz-adv-x="487" 
d="M25 704h378l49 114h40v-173h-25l-117 13h-148v-597l112 -36v-25h-289v25l90 36v582l-90 36v25z" />
    <glyph glyph-name="afii10098" unicode="&#x491;" horiz-adv-x="427" 
d="M197 455v-394l100 -36v-25h-272v25l89 36v376l-89 37v25h324l51 93h32v-144h-22l-98 7h-115z" />
    <glyph glyph-name="endash" unicode="&#x2013;" horiz-adv-x="515" 
d="M515 232h-515v77h515v-77z" />
    <glyph glyph-name="emdash" unicode="&#x2014;" horiz-adv-x="1030" 
d="M1030 233h-1030v76h1030v-76z" />
    <glyph glyph-name="quoteleft" unicode="&#x2018;" horiz-adv-x="276" 
d="M128 589h11c44 0 66 -17 66 -51s-23 -55 -60 -55c-50 0 -76 29 -76 81c0 74 33 123 114 147l12 -29c-51 -22 -65 -43 -67 -93z" />
    <glyph glyph-name="quoteright" unicode="&#x2019;" horiz-adv-x="277" 
d="M94 484l-11 29c50 21 65 42 67 94c-6 -1 -11 -2 -12 -2c-44 -1 -68 17 -68 52c0 33 24 54 61 54c50 0 76 -27 76 -81c0 -73 -33 -122 -113 -146z" />
    <glyph glyph-name="quotesinglbase" unicode="&#x201a;" horiz-adv-x="277" 
d="M150 12h-12c-44 0 -68 17 -68 52c0 32 24 55 61 55c50 0 76 -28 76 -82c0 -73 -31 -123 -113 -148l-11 29c50 22 65 44 67 94z" />
    <glyph glyph-name="quotedblleft" unicode="&#x201c;" horiz-adv-x="457" 
d="M297 589h11c44 0 66 -17 66 -51s-23 -55 -60 -55c-50 0 -76 29 -76 81c0 74 33 123 114 147l12 -29c-51 -22 -65 -43 -67 -93zM119 589h11c44 0 66 -17 66 -51s-23 -55 -60 -55c-50 0 -76 29 -76 81c0 74 33 123 114 147l12 -29c-51 -22 -65 -43 -67 -93z" />
    <glyph glyph-name="quotedblright" unicode="&#x201d;" horiz-adv-x="457" 
d="M273 484l-12 29c50 21 65 42 67 94c-5 -1 -11 -2 -12 -2c-44 -1 -67 17 -67 52c0 33 24 54 60 54c50 0 77 -27 77 -81c0 -73 -31 -122 -113 -146zM95 484l-11 29c50 21 65 42 67 94c-6 -1 -11 -2 -12 -2c-44 -1 -68 17 -68 52c0 33 24 54 61 54c50 0 76 -27 76 -81
c0 -73 -33 -122 -113 -146z" />
    <glyph glyph-name="quotedblbase" unicode="&#x201e;" horiz-adv-x="457" 
d="M328 12h-12c-44 0 -68 17 -68 52c0 32 24 55 61 55c50 0 76 -28 76 -82c0 -73 -31 -123 -113 -148l-11 29c50 22 65 44 67 94zM150 12h-12c-44 0 -68 17 -68 52c0 32 24 55 61 55c50 0 76 -28 76 -82c0 -73 -31 -123 -113 -148l-11 29c50 22 65 44 67 94z" />
    <glyph glyph-name="dagger" unicode="&#x2020;" horiz-adv-x="563" 
d="M497 439l-203 21c27 -54 41 -99 41 -138c0 -16 0 -39 -2 -60l-45 -493h-14l-43 493c-2 21 -4 44 -4 60c0 39 15 84 42 138l-203 -21v78l193 -17l-28 205h102l-30 -205l194 17v-78z" />
    <glyph glyph-name="daggerdbl" unicode="&#x2021;" horiz-adv-x="560" 
d="M492 -42l-192 18l28 -207h-95l29 207l-194 -19l1 80l197 -23l-33 224l33 222l-197 -21v78l193 -17l-29 205h95l-28 -205l192 17v-75l-194 18l30 -222l-30 -224l194 19v-75z" />
    <glyph glyph-name="bullet" unicode="&#x2022;" horiz-adv-x="512" 
d="M442 360c0 -101 -84 -182 -186 -182c-103 0 -186 81 -186 182c0 100 83 182 186 182c102 0 186 -82 186 -182z" />
    <glyph glyph-name="ellipsis" unicode="&#x2026;" horiz-adv-x="1014" 
d="M906 43c0 -32 -26 -57 -57 -57c-32 0 -57 25 -57 57c0 30 25 55 57 55c31 0 57 -25 57 -55zM564 43c0 -32 -24 -57 -56 -57s-57 25 -57 57c0 30 25 55 57 55s56 -25 56 -55zM222 43c0 -32 -25 -57 -58 -57c-30 0 -56 25 -56 57c0 30 26 55 56 55c33 0 58 -25 58 -55z" />
    <glyph glyph-name="perthousand" unicode="&#x2030;" horiz-adv-x="1014" 
d="M983 147c0 -88 -65 -156 -154 -156s-150 61 -150 149c0 90 62 151 153 151s151 -56 151 -144zM335 566c0 -88 -66 -155 -154 -155c-89 0 -150 60 -150 147c0 91 63 153 153 153s151 -57 151 -145zM605 707l-489 -707h-58l489 707h58zM612 146c0 -88 -65 -155 -154 -155
c-90 0 -150 60 -150 147c0 91 61 153 153 153c91 0 151 -57 151 -145zM925 144c0 65 -35 102 -94 102c-60 0 -95 -38 -95 -106c0 -63 35 -103 92 -103c59 0 97 42 97 107zM276 563c0 65 -34 103 -93 103c-60 0 -94 -39 -94 -107c0 -63 34 -102 91 -102c60 0 96 40 96 106z
M554 143c0 65 -35 103 -94 103c-60 0 -95 -39 -95 -107c0 -63 35 -102 92 -102c59 0 97 40 97 106z" />
    <glyph glyph-name="guilsinglleft" unicode="&#x2039;" horiz-adv-x="254" 
d="M205 56h-42l-118 201l118 202h42l-120 -202z" />
    <glyph glyph-name="guilsinglright" unicode="&#x203a;" horiz-adv-x="254" 
d="M211 259l-118 -203h-42l120 203l-120 200h42z" />
    <glyph glyph-name="Euro" unicode="&#x20ac;" 
d="M483 504h-33l-48 121c-7 1 -30 5 -76 5c-6 0 -137 12 -137 -99c0 -101 67 -110 166 -110h70v-42h-351v42h162c-45 6 -143 20 -143 115c0 94 83 139 213 139c17 0 46 -2 115 -16c34 -7 62 -15 62 -15v-140zM491 171v-143c-30 -11 -74 -21 -80 -22c-30 -6 -64 -10 -105 -10
c-200 0 -241 83 -241 145c0 82 57 139 151 145h-142v42h351v-42h-88c-74 0 -176 1 -176 -124c0 -84 58 -119 155 -119c21 0 63 0 92 5l50 123h33z" />
    <glyph glyph-name="afii61352" unicode="&#x2116;" horiz-adv-x="1118" 
d="M709 679l-91 -36v-653h-27l-424 607v-536l92 -36v-25h-234v25l91 36v582l-91 36v25h165l377 -535v474l-91 36v25h233v-25zM909 704c51 0 82 -17 105 -41c31 -33 39 -73 39 -102c0 -37 -14 -75 -40 -104c-35 -39 -80 -48 -113 -48c-46 0 -81 17 -104 39
c-45 44 -55 125 -21 185c21 36 60 71 134 71zM989 551c0 23 -3 56 -20 83s-43 40 -68 40c-18 0 -39 -6 -56 -26c-23 -27 -26 -64 -26 -90c0 -23 4 -53 19 -78c20 -34 50 -41 68 -41c14 0 43 4 63 35c16 24 20 50 20 77zM1046 310h-284v46h284v-46z" />
    <glyph glyph-name="trademark" unicode="&#x2122;" horiz-adv-x="777" 
d="M748 391h-146v22l45 19v244l-119 -290h-21l-112 290v-244l46 -19v-22h-129v22l45 19v271l-45 19v22h107l108 -275l112 275h109v-22l-45 -19v-271l45 -19v-22zM299 648h-20l-34 63h-66v-279l56 -19v-22h-168v22l56 19v279h-68l-36 -63h-19v96h299v-96z" />
    <glyph glyph-name="Acute" unicode="&#xf6c9;" horiz-adv-x="349" 
d="M337 913l-200 -151h-47l107 151h140z" />
    <glyph glyph-name="Dieresis" unicode="&#xf6cb;" horiz-adv-x="272" 
d="M277 826c0 -34 -16 -51 -47 -51c-30 0 -46 16 -46 45c0 35 14 51 44 51c32 0 49 -16 49 -45zM96 823c0 -32 -15 -48 -48 -48c-31 0 -46 14 -46 44c0 33 16 52 46 52c32 0 48 -17 48 -48z" />
    <glyph glyph-name="cyrBreve" unicode="&#xf6d1;" horiz-adv-x="383" 
d="M275 835v87c5 2 17 7 32 7c17 0 28 -6 36 -13c12 -11 14 -24 14 -37c0 -34 -15 -56 -43 -73c-34 -22 -88 -32 -123 -32s-89 10 -123 32c-28 17 -43 39 -43 73c0 13 2 26 14 37c8 7 19 13 36 13c15 0 27 -5 32 -7v-87c29 -15 62 -18 84 -18s55 3 84 18z" />
    <glyph glyph-name="cyrbreve" unicode="&#xf6d4;" horiz-adv-x="356" 
d="M256 659v83c9 4 20 6 29 6c12 0 25 -5 33 -12c10 -10 13 -23 13 -35c0 -33 -16 -54 -40 -70c-31 -20 -75 -29 -113 -29s-82 9 -113 29c-24 16 -40 37 -40 70c0 12 3 25 13 35c8 7 21 12 33 12c9 0 20 -2 29 -6v-83c25 -14 59 -17 78 -17s53 3 78 17z" />
    <glyph glyph-name="nbspace" unicode="&#xa0;" horiz-adv-x="250" 
 />
    <glyph glyph-name="hyphenminus" horiz-adv-x="250" 
d="M240 231h-230v78h230v-78z" />
    <glyph glyph-name="exclam" unicode="!" horiz-adv-x="260" 
d="M190 702l-43 -528h-39l-44 528h126zM186 49c0 -35 -19 -53 -56 -53c-41 0 -63 18 -63 52c0 36 22 55 63 55c38 0 56 -16 56 -54z" />
    <glyph glyph-name="space" unicode=" " horiz-adv-x="250" 
 />
    <glyph glyph-name="uni0406" unicode="&#x406;" horiz-adv-x="318" 
d="M293 0h-268v25l91 36v582l-91 36v25h268v-25l-90 -36v-582l90 -36v-25z" />
    </font>
</defs>
</svg>
