<svg xmlns="http://www.w3.org/2000/svg" viewBox="0 0 51.75 63.13"><defs><style>.cls-1{fill:#ffd32c;}</style></defs><title>city</title><g id="Слой_2" data-name="Слой 2"><g id="Слой_1-2" data-name="Слой 1"><path class="cls-1" d="M36.75,63.12H14.5V28.8a2.42,2.42,0,0,1,2.43-2.42H34.32a2.42,2.42,0,0,1,2.43,2.42Zm-21-1.24H35.5V28.8a1.18,1.18,0,0,0-1.18-1.18H16.93a1.18,1.18,0,0,0-1.18,1.18Z"/><path class="cls-1" d="M15.75,63.12H8.5V37.8a2.42,2.42,0,0,1,2.43-2.42h4.82Zm-6-1.24H14.5V36.62H10.93A1.18,1.18,0,0,0,9.75,37.8Z"/><path class="cls-1" d="M9.75,63.12H2.43A2.42,2.42,0,0,1,0,60.7V45.8a2.42,2.42,0,0,1,2.43-2.42H9.75ZM2.43,44.62A1.18,1.18,0,0,0,1.25,45.8V60.7a1.18,1.18,0,0,0,1.18,1.18H8.5V44.62Z"/><path class="cls-1" d="M43.25,63.12H36.62V61.88H42V37.8a1.18,1.18,0,0,0-1.18-1.18h-4.2V35.38h4.2a2.42,2.42,0,0,1,2.43,2.42Z"/><path class="cls-1" d="M49.32,63.12H42V43.38h7.32a2.42,2.42,0,0,1,2.43,2.42V60.7A2.42,2.42,0,0,1,49.32,63.12Zm-6.07-1.24h6.07A1.18,1.18,0,0,0,50.5,60.7V45.8a1.18,1.18,0,0,0-1.18-1.18H43.25Z"/><path class="cls-1" d="M34.12,27.62V26.38a1.18,1.18,0,0,0,.72-.62c.18-.31.17-.52.14-.57L26.16,9.91a.46.46,0,0,0-.39-.23.47.47,0,0,0-.4.23L16.55,25.19a.93.93,0,0,0,.14.79c.14.26.33.4.43.4v1.24a1.84,1.84,0,0,1-1.52-1,2.11,2.11,0,0,1-.13-2.05L24.29,9.29a1.7,1.7,0,0,1,3,0l8.82,15.27a1.83,1.83,0,0,1-.15,1.82A2.28,2.28,0,0,1,34.12,27.62Z"/><rect class="cls-1" x="25.14" width="1.25" height="8.66"/></g></g></svg>