<svg xmlns="http://www.w3.org/2000/svg" viewBox="0 0 23.25 23.75"><title>icon_dates</title><g id="Слой_2" data-name="Слой 2"><g id="Слой_1-2" data-name="Слой 1"><path d="M19.11,23.75h-15A4.15,4.15,0,0,1,0,19.61v-14A4.15,4.15,0,0,1,4.14,1.5h15a4.15,4.15,0,0,1,4.14,4.14v14A4.15,4.15,0,0,1,19.11,23.75Zm-15-21A2.9,2.9,0,0,0,1.25,5.64v14A2.9,2.9,0,0,0,4.14,22.5h15A2.9,2.9,0,0,0,22,19.61v-14a2.9,2.9,0,0,0-2.89-2.89Z"/><path d="M22.62,10.25H1.12A.63.63,0,0,1,1.12,9h21.5a.63.63,0,1,1,0,1.25Z"/><path d="M6.12,7.25a.63.63,0,0,1-.62-.63v-6a.63.63,0,0,1,1.25,0v6A.63.63,0,0,1,6.12,7.25Z"/><path d="M17.12,7.25a.63.63,0,0,1-.62-.63v-6a.63.63,0,0,1,1.25,0v6A.63.63,0,0,1,17.12,7.25Z"/></g></g></svg>