<svg xmlns="http://www.w3.org/2000/svg" viewBox="0 0 19.87 19.04"><defs><style>.cls-1{fill:#eaeaea;}</style></defs><title>icon_star</title><g id="Слой_2" data-name="Слой 2"><g id="Слой_1-2" data-name="Слой 1"><path class="cls-1" d="M15.23,19a1.34,1.34,0,0,1-.81-.27L10,15.57a.11.11,0,0,0-.15,0l-4.4,3.2a1.38,1.38,0,0,1-1.62,0,1.36,1.36,0,0,1-.5-1.54L5,12.05a.12.12,0,0,0,0-.14L.57,8.71a1.38,1.38,0,0,1,.81-2.49H6.82A.14.14,0,0,0,7,6.13L8.63,1A1.34,1.34,0,0,1,9.94,0a1.36,1.36,0,0,1,1.31,1l1.68,5.18a.13.13,0,0,0,.12.09h5.44a1.38,1.38,0,0,1,.81,2.49l-4.4,3.2a.13.13,0,0,0-.05.14l1.69,5.18A1.39,1.39,0,0,1,15.23,19ZM1.38,7.47a.11.11,0,0,0-.12.08.13.13,0,0,0,.05.15l4.4,3.2a1.37,1.37,0,0,1,.5,1.54L4.53,17.61a.12.12,0,0,0,0,.15.13.13,0,0,0,.15,0l4.41-3.2a1.35,1.35,0,0,1,1.62,0l4.4,3.2a.13.13,0,0,0,.15,0,.13.13,0,0,0,0-.15l-1.69-5.17a1.39,1.39,0,0,1,.5-1.54l4.41-3.2a.13.13,0,0,0,0-.15.11.11,0,0,0-.12-.08H13.05a1.39,1.39,0,0,1-1.31-1L10.06,1.34a.11.11,0,0,0-.12-.09c-.1,0-.12.06-.12.09L8.13,6.52a1.38,1.38,0,0,1-1.31,1Z"/></g></g></svg>