<svg width="74" height="44" viewBox="0 0 74 44" fill="none" xmlns="http://www.w3.org/2000/svg">
<path d="M73.5146 22.1221C73.5181 34.0843 63.7352 43.7833 51.6644 43.7865C39.5932 43.7895 29.8062 34.0953 29.803 22.1331C29.803 22.1292 29.803 22.1261 29.803 22.1221C29.7998 10.1603 39.5826 0.460698 51.653 0.45752C63.7242 0.454343 73.5114 10.149 73.5146 22.1111C73.5146 22.1148 73.5146 22.1182 73.5146 22.1221Z" fill="#FF9900"/>
<path d="M22.2003 0.462023C10.2009 0.537556 0.485229 10.2119 0.485229 22.121C0.485229 34.0766 10.2767 43.7798 22.3411 43.7798C28.0034 43.7798 33.1646 41.6414 37.0484 38.1365C37.0481 38.1365 37.0476 38.136 37.0467 38.1356H37.0513C37.8466 37.4174 38.5883 36.6425 39.2701 35.8163H34.7924C34.1945 35.1005 33.651 34.3547 33.1629 33.5852H40.8855C41.3552 32.8404 41.7804 32.067 42.1578 31.2659H31.8879C31.5378 30.5223 31.234 29.7619 30.9745 28.9904H43.0722C43.8014 26.8315 44.197 24.5217 44.197 22.1208C44.197 20.529 44.0229 18.977 43.6933 17.4827H30.3329C30.4984 16.7137 30.7073 15.9539 30.9565 15.2074H43.0587C42.7881 14.413 42.4738 13.6388 42.1164 12.8884H31.8866C32.2556 12.1071 32.6738 11.3471 33.1407 10.6133H40.8577C40.3441 9.80249 39.7758 9.02785 39.1613 8.29402H34.8587C35.524 7.51816 36.2563 6.78751 37.0513 6.10625C33.1673 2.60091 28.0046 0.462023 22.3411 0.462023C22.294 0.462023 22.2474 0.461778 22.2003 0.462023Z" fill="#CC0000"/>
<path d="M71.3219 33.4443C71.4408 33.4443 71.5565 33.4749 71.6695 33.535C71.783 33.5952 71.8703 33.6819 71.9334 33.7946C71.9966 33.9061 72.0282 34.0237 72.0282 34.1454C72.0282 34.2657 71.9968 34.382 71.9347 34.4935C71.8728 34.6047 71.7854 34.6915 71.673 34.7533C71.5617 34.8142 71.444 34.845 71.3217 34.845C71.1993 34.845 71.0819 34.8142 70.9699 34.7533C70.8577 34.6913 70.7709 34.605 70.7077 34.4935C70.6456 34.382 70.6147 34.2657 70.6147 34.1454C70.6147 34.0237 70.6461 33.9061 70.7095 33.7946C70.7731 33.6819 70.8609 33.5959 70.9736 33.535C71.0876 33.4749 71.2033 33.4443 71.3219 33.4443ZM71.3219 33.5604C71.223 33.5604 71.1263 33.5859 71.0319 33.6365C70.9381 33.6871 70.8649 33.7587 70.8121 33.8535C70.7586 33.9469 70.7319 34.0437 70.7319 34.1454C70.7319 34.2461 70.7581 34.3434 70.8096 34.4358C70.8624 34.528 70.9354 34.6003 71.0287 34.6521C71.1226 34.7037 71.2201 34.7291 71.3217 34.7291C71.4238 34.7291 71.5215 34.7037 71.615 34.6521C71.7082 34.6003 71.781 34.528 71.833 34.4358C71.8846 34.3434 71.9102 34.2464 71.9102 34.1454C71.9102 34.0437 71.8841 33.9467 71.8311 33.8535C71.7785 33.7587 71.705 33.6871 71.6105 33.6365C71.5171 33.5856 71.4209 33.5604 71.3219 33.5604ZM71.0121 34.5321V33.7787H71.2741C71.3629 33.7787 71.4275 33.7856 71.4675 33.8002C71.5074 33.8142 71.5393 33.8379 71.5632 33.8728C71.5866 33.9073 71.5987 33.944 71.5987 33.9831C71.5987 34.0383 71.579 34.0862 71.539 34.1268C71.5 34.1674 71.447 34.1906 71.3814 34.1955C71.4083 34.2065 71.4297 34.2205 71.4465 34.2356C71.4773 34.2649 71.5143 34.3146 71.5587 34.3847L71.6512 34.5321H71.5018L71.4347 34.4136C71.3816 34.3202 71.339 34.262 71.3062 34.238C71.2837 34.2212 71.2509 34.2124 71.2082 34.2124H71.136V34.5328H71.0126L71.0121 34.5321ZM71.135 34.108H71.284C71.355 34.108 71.4031 34.0973 71.429 34.0765C71.4551 34.055 71.4682 34.0276 71.4682 33.9929C71.4682 33.9704 71.4623 33.9503 71.4497 33.9332C71.4369 33.9154 71.4196 33.9027 71.3972 33.8936C71.3752 33.8851 71.3343 33.8802 71.2746 33.8802H71.1355V34.108" fill="#FCB340"/>
<path d="M29.5938 28.3361L29.8849 26.3757C29.7258 26.3757 29.492 26.4439 29.2853 26.4439C28.4752 26.4439 28.3741 26.0149 28.4377 25.7015L29.2359 21.7586H30.4673L30.7211 19.5334H29.5605L29.7969 18.1851H27.3692C27.3179 18.2359 25.9957 25.7682 25.9957 26.6859C25.9957 28.0437 26.7648 28.648 27.8497 28.6385C28.6987 28.6314 29.3605 28.3984 29.5938 28.3361Z" fill="#000066"/>
<path d="M30.3307 24.5991C30.3307 27.8581 32.5011 28.6322 34.3506 28.6322C36.0578 28.6322 36.953 28.2401 36.953 28.2401L37.3629 26.0157C37.3629 26.0157 35.9204 26.597 34.748 26.597C32.249 26.597 32.6871 24.7505 32.6871 24.7505L37.488 24.7649C37.488 24.7649 37.7936 23.2711 37.7936 22.6622C37.7936 21.1425 36.9581 19.2769 34.4032 19.2769C32.0633 19.2773 30.3307 21.7758 30.3307 24.5991ZM34.412 21.3419C35.7253 21.3419 35.4831 22.8047 35.4831 22.9232H32.8995C32.8995 22.7717 33.1434 21.3419 34.412 21.3419Z" fill="#000066"/>
<path d="M49.1475 28.3352L49.5641 25.8213C49.5641 25.8213 48.4215 26.3887 47.6384 26.3887C45.9874 26.3887 45.3251 25.1396 45.3251 23.7973C45.3251 21.075 46.7454 19.577 48.3266 19.577C49.5125 19.577 50.4639 20.2368 50.4639 20.2368L50.8438 17.794C50.8438 17.794 49.7205 16.9901 48.5113 16.9854C44.8742 16.9712 42.7931 19.4807 42.7931 23.8189C42.7931 26.6943 44.3343 28.651 47.1112 28.651C47.8964 28.651 49.1475 28.3352 49.1475 28.3352Z" fill="#000066"/>
<path d="M16.7946 19.313C15.1989 19.313 13.9759 19.8212 13.9759 19.8212L13.638 21.8078C13.638 21.8078 14.6476 21.4013 16.174 21.4013C17.0405 21.4013 17.6745 21.4978 17.6745 22.1957C17.6745 22.6196 17.597 22.776 17.597 22.776C17.597 22.776 16.9132 22.7196 16.5965 22.7196C14.3247 22.7196 12.47 23.5707 12.47 26.1369C12.47 28.1592 13.857 28.6229 14.7167 28.6229C16.3587 28.6229 17.0087 27.5955 17.0462 27.5926L17.0272 28.4452C17.0272 28.4452 19.076 28.4452 19.0763 28.4452L19.9904 22.0945C19.9904 19.3995 17.6185 19.313 16.7946 19.313ZM17.1493 24.4698C17.1939 24.8575 17.0482 26.6908 15.6466 26.6908C14.9239 26.6908 14.7362 26.1433 14.7362 25.8201C14.7362 25.1885 15.0822 24.4309 16.7872 24.4309C17.1843 24.4309 17.0825 24.4593 17.1493 24.4698Z" fill="#000066"/>
<path d="M22.1682 28.5755C22.6924 28.5755 25.6886 28.7077 25.6886 25.6436C25.6886 22.7785 22.9151 23.3448 22.9151 22.1935C22.9151 21.621 23.3673 21.4406 24.1938 21.4406C24.5217 21.4406 25.7841 21.544 25.7841 21.544L26.0774 19.5078C26.0774 19.508 25.2604 19.3267 23.9304 19.3267C22.2089 19.3267 20.4615 20.0077 20.4615 22.3377C20.4615 24.9782 23.3752 24.713 23.3752 25.8252C23.3752 26.5676 22.5612 26.6287 21.9336 26.6287C20.8481 26.6287 19.8708 26.2593 19.8673 26.2772L19.5568 28.2926C19.6132 28.3097 20.2163 28.5755 22.1682 28.5755Z" fill="#000066"/>
<path d="M68.3422 17.4653L67.9216 20.572C67.9216 20.572 67.0452 19.373 65.674 19.373C63.0941 19.373 61.7646 21.9208 61.7646 24.8475C61.7646 26.7371 62.7128 28.5893 64.6503 28.5893C66.0443 28.5893 66.8171 27.6259 66.8171 27.6259L66.7147 28.4485H68.9786L70.7563 17.4822L68.3422 17.4653ZM67.3427 23.5034C67.3427 24.7214 66.7339 26.3487 65.4727 26.3487C64.6351 26.3487 64.2424 25.6518 64.2424 24.5584C64.2424 22.7703 65.0527 21.5908 66.0756 21.5908C66.9128 21.5908 67.3427 22.1604 67.3427 23.5034Z" fill="#000066"/>
<path d="M4.19461 28.4578L5.61122 20.1784L5.8194 28.4578H7.42249L10.4133 20.1784L9.08847 28.4578H11.4708L13.3052 17.4768L9.52088 17.4482L7.2698 24.1714L7.20814 17.4768H3.74L1.87915 28.4578H4.19461Z" fill="#000066"/>
<path d="M40.0481 28.473C40.7254 24.656 40.9667 21.6416 42.942 22.2659C43.2256 20.7884 43.9018 19.5036 44.2106 18.8784C44.2106 18.8784 44.1129 18.7344 43.5024 18.7344C42.4602 18.7344 41.0688 20.8302 41.0688 20.8302L41.2767 19.5344H39.1095L37.6581 28.4728H40.0481V28.473Z" fill="#000066"/>
<path d="M54.0215 19.313C52.4251 19.313 51.2021 19.8212 51.2021 19.8212L50.8644 21.8078C50.8644 21.8078 51.8745 21.4013 53.4002 21.4013C54.267 21.4013 54.9006 21.4978 54.9006 22.1957C54.9006 22.6196 54.8234 22.776 54.8234 22.776C54.8234 22.776 54.1399 22.7196 53.8232 22.7196C51.5512 22.7196 49.6967 23.5707 49.6967 26.1369C49.6967 28.1592 51.0835 28.6229 51.9431 28.6229C53.5847 28.6229 54.2351 27.5955 54.2724 27.5926L54.2531 28.4452H56.3027L57.2166 22.0945C57.2168 19.3995 54.8449 19.313 54.0215 19.313ZM54.3757 24.4698C54.4201 24.8575 54.2744 26.6908 52.873 26.6908C52.1498 26.6908 51.9623 26.1433 51.9623 25.8201C51.9623 25.1885 52.3082 24.4309 54.0134 24.4309C54.4108 24.4309 54.3091 24.4593 54.3757 24.4698Z" fill="#000066"/>
<path d="M59.5754 28.473C59.9474 25.6648 60.6359 21.7224 62.4691 22.2658C62.7525 20.7884 62.4792 20.7923 61.8689 20.7923C60.826 20.7923 60.5951 20.83 60.5951 20.83L60.8033 19.5342H58.6364L57.185 28.4728H59.5754V28.473Z" fill="#000066"/>
<path d="M30.2004 27.6366L30.4917 25.6764C30.3326 25.6764 30.0985 25.7439 29.8921 25.7439C29.082 25.7439 28.9927 25.3171 29.0443 25.0015L29.6987 21.0019H30.9298L31.227 18.8337H30.0662L30.3025 17.4854H27.9755C27.9242 17.5362 26.6018 25.0687 26.6018 25.9859C26.6018 27.3438 27.3712 27.9485 28.456 27.9388C29.3055 27.9317 29.9671 27.6987 30.2004 27.6366Z" fill="white"/>
<path d="M30.9377 23.8992C30.9377 27.1581 33.1084 27.9325 34.9577 27.9325C36.6646 27.9325 37.4157 27.5544 37.4157 27.5544L37.8257 25.3302C37.8257 25.3302 36.5272 25.897 35.3546 25.897C32.8558 25.897 33.2934 24.0507 33.2934 24.0507H38.0225C38.0225 24.0507 38.3279 22.5565 38.3279 21.9475C38.3279 20.4281 37.5647 18.5767 35.0097 18.5767C32.6698 18.5771 30.9377 21.0756 30.9377 23.8992ZM35.0186 20.642C36.3318 20.642 36.0896 22.1045 36.0896 22.2228H33.506C33.506 22.0717 33.7502 20.642 35.0186 20.642Z" fill="white"/>
<path d="M49.7545 27.6356L50.1708 25.1215C50.1708 25.1215 49.029 25.6889 48.2454 25.6889C46.5947 25.6889 45.9326 24.4398 45.9326 23.0978C45.9326 20.3754 47.3529 18.8777 48.9341 18.8777C50.1198 18.8777 51.0714 19.5374 51.0714 19.5374L51.4513 17.0947C51.4513 17.0947 50.0401 16.5288 48.8305 16.5288C46.144 16.5288 43.5306 18.8383 43.5306 23.1757C43.5306 26.0519 44.9418 27.9514 47.7187 27.9514C48.5039 27.9517 49.7545 27.6356 49.7545 27.6356Z" fill="white"/>
<path d="M17.4016 18.6128C15.806 18.6128 14.5827 19.121 14.5827 19.121L14.2451 21.1076C14.2451 21.1076 15.2547 20.7011 16.7808 20.7011C17.6473 20.7011 18.2813 20.7976 18.2813 21.4955C18.2813 21.9194 18.2036 22.0758 18.2036 22.0758C18.2036 22.0758 17.5201 22.0191 17.2036 22.0191C15.191 22.0191 13.0768 22.8703 13.0768 25.4365C13.0768 27.4585 14.4639 27.9225 15.3235 27.9225C16.9653 27.9225 17.673 26.8667 17.7107 26.8635L17.634 27.7448H19.6831L20.5972 21.3938C20.5972 18.6996 18.2255 18.6128 17.4016 18.6128ZM17.9002 23.7838C17.9446 24.1717 17.6547 25.9901 16.2537 25.9901C15.5309 25.9901 15.343 25.4431 15.343 25.1194C15.343 24.4883 15.689 23.7305 17.3942 23.7305C17.7909 23.731 17.8333 23.773 17.9002 23.7838Z" fill="white"/>
<path d="M22.775 27.876C23.2992 27.876 26.2957 28.008 26.2957 24.9439C26.2957 22.0792 23.5219 22.6451 23.5219 21.4943C23.5219 20.9213 23.9741 20.7409 24.8004 20.7409C25.1285 20.7409 26.3907 20.8443 26.3907 20.8443L26.6842 18.8081C26.6842 18.8083 25.8672 18.627 24.5372 18.627C22.8157 18.627 21.0683 19.308 21.0683 21.638C21.0683 24.2783 23.982 24.0133 23.982 25.1255C23.982 25.8679 23.168 25.9283 22.5407 25.9283C21.4551 25.9283 20.4776 25.5592 20.4741 25.5768L20.1638 27.5924C20.2201 27.6096 20.8229 27.876 22.775 27.876Z" fill="white"/>
<path d="M69.0302 16.7854L68.5282 19.872C68.5282 19.872 67.6523 18.673 66.2811 18.673C64.1489 18.673 62.3716 21.2206 62.3716 24.1478C62.3716 26.0374 63.3196 27.8888 65.2574 27.8888C66.6513 27.8888 67.4241 26.9257 67.4241 26.9257L67.3217 27.7483H69.5852L71.3629 16.7817L69.0302 16.7854ZM67.9495 22.8036C67.9495 24.0217 67.341 25.6487 66.0793 25.6487C65.2419 25.6487 64.8494 24.952 64.8494 23.8586C64.8494 22.0708 65.6597 20.8911 66.6821 20.8911C67.5198 20.8908 67.9495 21.4611 67.9495 22.8036Z" fill="white"/>
<path d="M4.80166 27.7575L6.21827 19.4782L6.42621 27.7575H8.02954L11.0204 19.4782L9.69553 27.7575H12.0778L13.9125 16.7764H10.2286L7.93433 23.514L7.81494 16.7764H4.41908L2.55798 27.7575H4.80166Z" fill="white"/>
<path d="M40.6551 27.773C41.3325 23.9557 41.4581 20.8562 43.0745 21.4235C43.3574 19.9461 43.6304 19.3746 43.9393 18.7493C43.9393 18.7493 43.7945 18.7192 43.4906 18.7192C42.4484 18.7192 41.6763 20.1302 41.6763 20.1302L41.8838 18.8344H39.7171L38.2654 27.773H40.6551Z" fill="white"/>
<path d="M55.1239 18.6128C53.5282 18.6128 52.305 19.121 52.305 19.121L51.9676 21.1076C51.9676 21.1076 52.9772 20.7011 54.5033 20.7011C55.3699 20.7011 56.0033 20.7976 56.0033 21.4955C56.0033 21.9194 55.9261 22.0758 55.9261 22.0758C55.9261 22.0758 55.2426 22.0191 54.9259 22.0191C52.9136 22.0191 50.7994 22.8703 50.7994 25.4365C50.7994 27.4585 52.1861 27.9225 53.0458 27.9225C54.6876 27.9225 55.3953 26.8667 55.4328 26.8635L55.3565 27.7448C55.3565 27.7448 57.4049 27.7448 57.4056 27.7448L58.3195 21.3938C58.3197 18.6996 55.9478 18.6128 55.1239 18.6128ZM55.6232 23.7838C55.6676 24.1717 55.3775 25.9901 53.9759 25.9901C53.2532 25.9901 53.0657 25.4431 53.0657 25.1194C53.0657 24.4883 53.4118 23.7305 55.1168 23.7305C55.5134 23.731 55.5556 23.773 55.6232 23.7838Z" fill="white"/>
<path d="M60.1923 27.773C60.8699 23.9557 60.9955 20.8562 62.6114 21.4235C62.8948 19.9461 63.1681 19.3746 63.4767 18.7493C63.4767 18.7493 63.3319 18.7192 63.028 18.7192C61.9858 18.7192 61.2138 20.1302 61.2138 20.1302L61.4212 18.8344H59.2545L57.8029 27.773H60.1923Z" fill="white"/>
<path d="M71.3127 26.394C71.4308 26.394 71.5472 26.4241 71.6595 26.4852C71.7727 26.5444 71.8608 26.6314 71.9239 26.7441C71.9873 26.856 72.0184 26.9727 72.0184 27.0946C72.0184 27.2151 71.9873 27.3315 71.9249 27.4427C71.863 27.5539 71.7759 27.6412 71.6637 27.7026C71.5517 27.7637 71.4343 27.7945 71.3124 27.7945C71.1896 27.7945 71.0722 27.7637 70.9599 27.7026C70.8479 27.6407 70.7611 27.5539 70.699 27.4427C70.6358 27.3315 70.605 27.2151 70.605 27.0946C70.605 26.9727 70.6363 26.856 70.6997 26.7441C70.7633 26.6314 70.8516 26.5449 70.9644 26.4852C71.0781 26.4241 71.1945 26.394 71.3127 26.394ZM71.3127 26.5094C71.2138 26.5094 71.1171 26.5348 71.0226 26.5859C70.9284 26.6358 70.8551 26.7079 70.8021 26.8023C70.7493 26.8954 70.7226 26.9929 70.7226 27.0941C70.7226 27.1953 70.7483 27.2921 70.7998 27.3845C70.8524 27.4767 70.9254 27.5491 71.0196 27.6011C71.1129 27.652 71.2103 27.6776 71.3127 27.6776C71.4143 27.6776 71.5125 27.652 71.6057 27.6011C71.699 27.5491 71.772 27.4767 71.8238 27.3845C71.8758 27.2914 71.9012 27.1953 71.9012 27.0941C71.9012 26.9929 71.8748 26.8954 71.822 26.8023C71.7695 26.7079 71.6962 26.6358 71.6015 26.5859C71.5078 26.5351 71.4118 26.5094 71.3127 26.5094ZM71.0031 27.4813V26.7277H71.2648C71.3539 26.7277 71.419 26.7348 71.4585 26.7492C71.4984 26.7627 71.5297 26.7869 71.5542 26.8218C71.5781 26.8565 71.5902 26.893 71.5902 26.9321C71.5902 26.9871 71.5699 27.0352 71.53 27.0758C71.491 27.1164 71.4385 27.1399 71.3729 27.1443C71.399 27.1555 71.4207 27.1689 71.4375 27.1841C71.4678 27.2139 71.5053 27.2638 71.5497 27.3335L71.6427 27.4811H71.4925L71.4256 27.3625C71.3724 27.2689 71.3297 27.2107 71.2971 27.187C71.2747 27.1697 71.2419 27.1611 71.1987 27.1611H71.1269V27.4816L71.0031 27.4813ZM71.1259 27.0572H71.2749C71.3462 27.0572 71.3943 27.0467 71.42 27.0257C71.4459 27.0052 71.4594 26.9771 71.4594 26.9421C71.4594 26.9199 71.4533 26.8998 71.4409 26.8829C71.4284 26.8648 71.4108 26.8519 71.3884 26.8428C71.3659 26.8343 71.3257 26.8299 71.2656 26.8299H71.1262V27.0572" fill="white"/>
</svg>
