<svg width="22" height="14" viewBox="0 0 22 14" fill="none" xmlns="http://www.w3.org/2000/svg">
<path d="M3.32753 6.99999C3.32753 5.70349 4.38191 4.64911 5.67841 4.64911C6.97366 4.64911 8.02828 5.70349 8.02828 6.99999C8.02828 8.29524 6.97366 9.35086 5.67841 9.35086C4.38191 9.35086 3.32753 8.29524 3.32753 6.99999ZM11.3545 6.99999C11.3545 3.86811 8.80866 1.32224 5.67841 1.32224C2.54691 1.32224 3.20095e-05 3.86811 3.21464e-05 6.99999C3.22833e-05 10.1311 2.54691 12.6777 5.67841 12.6777C8.80853 12.6777 11.3545 10.1311 11.3545 6.99999ZM15.9864 4.70286C15.723 3.54699 15.2658 2.43224 14.6208 1.40574C14.1312 0.628863 13.104 0.394614 12.327 0.884239C11.5483 1.37324 11.3142 2.39974 11.8038 3.17799C13.2667 5.50361 13.266 8.49811 11.8038 10.8225C11.3142 11.6009 11.5484 12.6272 12.327 13.1157C13.1047 13.6054 14.1312 13.3719 14.6208 12.5947C15.265 11.5684 15.723 10.4536 15.9864 9.29774L19.1607 12.4721C19.8103 13.1211 20.8633 13.1211 21.5128 12.4715C21.8373 12.1464 21.9999 11.721 21.9999 11.2957C21.9999 10.8697 21.8374 10.4437 21.5128 10.1186L18.3935 7.00074L21.5128 3.88011C22.1624 3.23111 22.1624 2.17811 21.5128 1.52861C20.8633 0.878363 19.8095 0.878363 19.1607 1.52861C19.1607 1.52849 15.9864 4.70286 15.9864 4.70286Z" fill="white"/>
</svg>
