<svg width="23" height="13" viewBox="0 0 23 13" fill="none" xmlns="http://www.w3.org/2000/svg">
<path d="M0.434753 1.04111C0.446646 1.00582 0.465817 0.973478 0.491 0.946223C0.516182 0.918968 0.546804 0.897421 0.580841 0.883005C0.709079 0.817351 0.846209 0.771177 0.987797 0.745978C1.11276 0.734571 1.23849 0.734571 1.36345 0.745978H3.91997C4.07933 0.725471 4.24062 0.725471 4.39997 0.745978C4.50432 0.76517 4.60288 0.808449 4.68794 0.872441C4.77302 0.936432 4.8423 1.01941 4.89041 1.1149C5.02606 1.36787 5.15128 1.63138 5.26606 1.8949C5.78347 3.10171 6.41971 4.25291 7.16519 5.33111L7.51997 5.83706L7.7391 6.02679C7.85204 6.15373 7.99088 6.25442 8.14606 6.32192C8.20457 6.33414 8.26494 6.33414 8.32345 6.32192C8.37291 6.32483 8.42235 6.31583 8.46771 6.29568C8.51306 6.27552 8.55302 6.24478 8.58432 6.20598C8.6133 6.17051 8.63783 6.13157 8.65736 6.09003C8.75202 5.90057 8.81882 5.69817 8.85562 5.48922C8.85562 5.37327 8.85562 5.24679 8.85562 5.1203C8.85562 4.83571 8.85562 4.55111 8.91823 4.26652C8.98084 3.98192 8.91823 3.5603 8.91823 3.21246C8.91823 3.07544 8.91823 2.92787 8.91823 2.79084C8.9053 2.58932 8.88091 2.38872 8.84519 2.19003C8.84519 2.09517 8.84519 2.0003 8.78258 1.91598C8.74004 1.77001 8.66671 1.63507 8.56765 1.52044C8.46858 1.40581 8.34611 1.31421 8.20867 1.25192L7.64519 0.998951H7.57215C7.6859 0.792923 7.85622 0.624534 8.06258 0.514087C8.21763 0.433027 8.38251 0.372787 8.55302 0.334898C8.82348 0.271224 9.09972 0.235901 9.37736 0.229492C10.073 0.229492 10.7478 0.229492 11.4017 0.229492H11.7252C11.9156 0.248506 12.1041 0.283767 12.2887 0.334898H12.4556C12.5787 0.372979 12.6924 0.43676 12.7895 0.522105C12.8866 0.60745 12.9648 0.712452 13.0191 0.830303C13.0808 0.964004 13.1229 1.10602 13.1443 1.25192C13.1565 1.42035 13.1565 1.58945 13.1443 1.75787C13.1443 2.03192 13.1443 2.30598 13.1443 2.56949C13.1443 2.83301 13.1443 2.87517 13.1443 3.02273C13.1443 3.1703 13.1443 3.57084 13.1443 3.83436C13.1443 4.09787 13.1443 4.56165 13.1443 4.88841C13.1217 5.06334 13.1217 5.24051 13.1443 5.41544C13.1821 5.60585 13.2604 5.78569 13.3739 5.94246L13.5408 6.15328C13.5608 6.17816 13.5864 6.19785 13.6154 6.21069C13.6445 6.22353 13.6762 6.22914 13.7078 6.22706H13.8017C13.9197 6.19348 14.0297 6.13611 14.1252 6.05841C14.2312 5.97254 14.3258 5.87336 14.4069 5.76328C14.5843 5.53138 14.7617 5.28895 14.9287 5.05706C15.6086 4.07264 16.1724 3.01141 16.6087 1.8949C16.7026 1.66301 16.8069 1.43111 16.9008 1.19922L16.9635 1.07274C17.0323 0.953166 17.1274 0.851106 17.2413 0.774371C17.3553 0.697636 17.4851 0.648263 17.6208 0.630033H17.8713H20.8556C21.0607 0.618486 21.2662 0.618486 21.4713 0.630033H21.7635C21.8759 0.653024 21.9758 0.717708 22.0433 0.811349C22.1109 0.90499 22.1414 1.0208 22.1287 1.13598C22.1383 1.22355 22.1383 1.31192 22.1287 1.39949C22.0502 1.70961 21.9383 2.01006 21.7948 2.29544C21.6162 2.65984 21.414 3.01195 21.1895 3.34949C20.9078 3.76057 20.6156 4.16111 20.3026 4.55111C19.8748 5.10976 19.4365 5.65787 19.0191 6.22706C18.8979 6.39 18.7963 6.56692 18.7165 6.75409C18.6773 6.84881 18.6493 6.94787 18.633 7.04922C18.5972 7.25565 18.6341 7.46826 18.7374 7.65003C18.8047 7.77068 18.889 7.88076 18.9878 7.97679L19.6243 8.59868C19.9791 8.93598 20.3235 9.27328 20.6678 9.65273C21.1013 10.1177 21.4958 10.6183 21.8469 11.1495C21.9688 11.3329 22.067 11.5312 22.1391 11.7398C22.1447 11.7923 22.1447 11.8453 22.1391 11.8979C22.1501 11.9781 22.1447 12.0597 22.1231 12.1376C22.1016 12.2156 22.0644 12.2883 22.0139 12.3511C21.9634 12.4129 21.9035 12.4663 21.8365 12.5092C21.6539 12.6265 21.4466 12.6988 21.2313 12.72H20.9078H18.9565H18.5287H18.0591C17.9588 12.7349 17.8568 12.7349 17.7565 12.72C17.2288 12.5913 16.7434 12.3261 16.3478 11.9506C16.2017 11.8241 16.0765 11.6765 15.9408 11.5395L15.1582 10.6435L14.7617 10.2114L14.5321 10.0006C14.3949 9.88627 14.2285 9.81322 14.0521 9.78976C13.9246 9.77098 13.7945 9.79612 13.6828 9.86113C13.5711 9.92615 13.4844 10.0272 13.4365 10.1481C13.3882 10.2741 13.3532 10.4048 13.3321 10.5381C13.2758 10.8341 13.2375 11.1333 13.2174 11.4341C13.2083 11.622 13.1839 11.8089 13.1443 11.9927C13.1471 12.0489 13.1471 12.1052 13.1443 12.1614C13.1172 12.2471 13.0725 12.3261 13.0131 12.3933C12.9538 12.4605 12.8812 12.5143 12.8 12.5514C12.6835 12.6053 12.5608 12.6442 12.4348 12.6673C12.1152 12.7296 11.7891 12.7509 11.4643 12.7306H10.8278C10.1173 12.68 9.41598 12.5383 8.74084 12.3089C7.98004 12.032 7.27356 11.6217 6.65389 11.0968C6.34906 10.8405 6.06309 10.5622 5.79823 10.2641C5.20589 9.59663 4.65526 8.89256 4.14954 8.15598C3.56519 7.31274 3.03302 6.44841 2.53215 5.55246C1.90606 4.43517 1.34258 3.28625 0.82084 2.12679C0.696638 1.84132 0.612353 1.53978 0.570406 1.23084V1.08328L0.434753 1.04111Z" fill="white"/>
</svg>
