<?xml version="1.0" standalone="no"?>
<!DOCTYPE svg PUBLIC "-//W3C//DTD SVG 1.1//EN" "http://www.w3.org/Graphics/SVG/1.1/DTD/svg11.dtd" >
<svg xmlns="http://www.w3.org/2000/svg" xmlns:xlink="http://www.w3.org/1999/xlink" version="1.1">
<metadata>
Created by FontForge 20141024 at Wed Jul  8 10:57:02 2015
 By Jimmy Warting
Gerard Unger developed this newspaper font between 1984 and 1987 for Dr.-Ing. Rudolf Hell GmbH, Kiel. He was mainly influenced by William A. Dwiggins (1880-1956), the typographic consultant of Mergenthaler Linotype, who started to develop more legible, alternative fonts for newspaper printing as early as 1930. Swift was named after the fast flying bird. Austere and concise, firm and original, Swift is suited for almost any purpose. Swift has been specially developed to sustain a maximum of quality and readability when used in unfavorable print and display processes, e.g. newspapers, laser printing and low resolution screens. Its robust, yet elegant serifs and its large x-height provide an undeniable distinction to the typeface, making it suitable for corporate ID and advertising purposes as well. Swift 2.0 family was designed in 1995. It's an improved version with technical and aesthetic enhancements and new family members. Cyrillic version was developed for ParaType in 2003 by Tagir Safayev.
</metadata>
<defs>
<font id="Swift" horiz-adv-x="550" >
  <font-face 
    font-family="Swift"
    font-weight="400"
    font-stretch="normal"
    units-per-em="1000"
    panose-1="2 0 5 3 7 0 0 2 0 4"
    ascent="800"
    descent="-200"
    x-height="500"
    cap-height="700"
    bbox="-70 -244 1051 931"
    underline-thickness="50"
    underline-position="-50"
    stemh="47"
    stemv="99"
    unicode-range="U+0020-F6D4"
  />
<missing-glyph horiz-adv-x="250" 
 />
    <glyph glyph-name=".notdef" horiz-adv-x="250" 
 />
    <glyph glyph-name="space" unicode=" " horiz-adv-x="250" 
 />
    <glyph glyph-name="exclam" unicode="!" horiz-adv-x="259" 
d="M197 698l-46 -527h-41l-47 527h134zM192 50c0 -36 -20 -55 -60 -55c-43 0 -65 18 -65 54c0 37 22 56 65 56c41 0 60 -17 60 -55z" />
    <glyph glyph-name="quotedbl" unicode="&#x22;" horiz-adv-x="370" 
d="M246 476l-23 162c-3 18 -3 23 -3 30c0 26 16 41 43 41s43 -15 43 -41c0 -7 0 -12 -3 -30l-23 -162h-34zM91 476l-23 162c-3 18 -3 23 -3 30c0 26 16 41 43 41s43 -15 43 -41c0 -7 0 -12 -3 -30l-23 -162h-34z" />
    <glyph glyph-name="numbersign" unicode="#" horiz-adv-x="631" 
d="M600 474l-13 -63h-115l-28 -148h115l-13 -63h-115l-39 -200h-70l39 200h-145l-39 -200h-70l39 200h-115l13 63h115l28 148h-115l13 63h115l39 201h70l-39 -201h145l39 201h70l-39 -201h115zM402 411h-145l-28 -148h145z" />
    <glyph glyph-name="dollar" unicode="$" horiz-adv-x="529" 
d="M280 387l67 -40c67 -40 78 -49 97 -76c19 -28 29 -68 29 -105c0 -55 -21 -97 -61 -128c-33 -26 -78 -43 -132 -48v-64h-42v63c-25 0 -68 2 -112 12c-44 11 -47 13 -70 18v145h35l52 -121c23 -4 47 -5 79 -5h16v264l-59 36c-58 35 -81 53 -100 86c-14 24 -19 54 -19 84
c0 83 64 160 178 170v55h42v-54c23 -1 52 -2 89 -9c31 -5 50 -10 83 -17v-138h-37l-50 115c-29 4 -41 4 -62 4h-23v-247zM238 413v216c-50 -9 -97 -34 -97 -95c0 -63 50 -93 97 -121zM280 276v-235c20 3 36 8 50 17c32 20 48 55 48 92c0 22 -7 49 -18 65
c-18 26 -54 45 -80 61z" />
    <glyph glyph-name="percent" unicode="%" horiz-adv-x="653" 
d="M336 556c0 -91 -64 -157 -154 -157c-91 0 -152 60 -152 150c0 93 62 155 154 155s152 -58 152 -148zM609 700l-485 -700h-63l485 700h63zM623 148c0 -91 -64 -157 -154 -157c-92 0 -152 60 -152 150c0 93 61 155 154 155c92 0 152 -58 152 -148zM272 553
c0 65 -33 103 -89 103s-89 -39 -89 -106c0 -63 33 -102 87 -102c56 0 91 40 91 105zM559 145c0 65 -33 103 -89 103s-89 -39 -89 -106c0 -63 33 -102 87 -102c56 0 91 40 91 105z" />
    <glyph glyph-name="ampersand" unicode="&#x26;" horiz-adv-x="716" 
d="M691 369l-83 -32v-35c0 -88 -19 -140 -72 -200l38 -41l80 -35v-26h-154l-34 41c-62 -34 -110 -46 -177 -46c-150 0 -249 73 -249 183c0 71 44 123 145 171c-28 32 -34 39 -46 55c-25 34 -36 68 -36 112c0 94 69 156 173 156c92 0 155 -53 155 -131
c0 -74 -47 -132 -137 -172l209 -231c24 32 37 82 37 144v55l-78 32v27h229v-27zM248 419l22 -23c26 22 36 33 47 48c20 28 32 66 32 100c0 51 -31 86 -78 86c-52 0 -85 -33 -85 -86c0 -40 21 -83 62 -125zM435 75l-226 247c-48 -38 -70 -79 -70 -134c0 -90 63 -146 166 -146
c53 0 101 12 130 33z" />
    <glyph glyph-name="quotesingle" unicode="'" horiz-adv-x="216" 
d="M91 476l-23 162c-3 18 -3 23 -3 30c0 26 16 41 43 41s43 -15 43 -41c0 -7 0 -12 -3 -30l-23 -162h-34z" />
    <glyph glyph-name="parenleft" unicode="(" horiz-adv-x="278" 
d="M230 -211l-29 -19c-108 130 -160 288 -160 483c0 203 46 341 160 484l29 -19c-90 -136 -101 -306 -101 -465c0 -161 12 -324 101 -464z" />
    <glyph glyph-name="parenright" unicode=")" horiz-adv-x="278" 
d="M41 718l29 19c114 -137 160 -307 160 -484c0 -202 -46 -341 -160 -483l-29 18c88 137 100 306 100 465c0 161 -12 326 -100 465z" />
    <glyph glyph-name="asterisk" unicode="*" horiz-adv-x="333" 
d="M322 554l-114 12l92 -79l-35 -34l-80 92l8 -118h-50l9 120l-79 -94l-36 34l92 79l-114 -12v52l114 -12l-92 79l36 34l79 -95l-9 122h50l-8 -122l79 95l36 -34l-92 -79l114 12v-52z" />
    <glyph glyph-name="plus" unicode="+" 
d="M530 301h-214v-226h-82v226h-214v80h214v204h82v-204h214v-80z" />
    <glyph glyph-name="comma" unicode="," horiz-adv-x="279" 
d="M145 10h-13c-41 0 -63 19 -63 53s25 57 63 57c51 0 78 -29 78 -84c0 -50 -15 -87 -48 -113c-18 -15 -41 -27 -70 -36l-13 33c49 21 64 42 66 90z" />
    <glyph glyph-name="hyphen" unicode="-" horiz-adv-x="250" 
d="M240 229h-230v83h230v-83z" />
    <glyph glyph-name="hyphen" unicode="&#xad;" horiz-adv-x="250" 
d="M240 229h-230v83h230v-83z" />
    <glyph glyph-name="period" unicode="." horiz-adv-x="250" 
d="M187 50c0 -44 -17 -60 -61 -60c-46 0 -64 17 -64 60s18 60 63 60c44 0 62 -18 62 -60z" />
    <glyph glyph-name="slash" unicode="/" horiz-adv-x="255" 
d="M255 756l-188 -1000h-67l189 1000h66z" />
    <glyph glyph-name="zero" unicode="0" 
d="M510 335c0 -218 -91 -351 -240 -351c-183 0 -229 192 -229 342c0 219 92 351 245 351c139 0 224 -130 224 -342zM401 330c0 79 1 295 -121 295c-131 0 -130 -219 -130 -305c0 -193 39 -284 120 -284c129 0 131 209 131 294z" />
    <glyph glyph-name="one" unicode="1" 
d="M459 0h-318v26l109 37v491l-182 -35v31c48 14 102 35 152 60c36 18 62 35 98 62h31v-609l110 -37v-26z" />
    <glyph glyph-name="two" unicode="2" 
d="M486 187l-13 -187h-437v37c37 40 75 77 113 115c63 63 124 132 157 185c34 54 48 96 48 146c0 90 -52 142 -141 142c-23 0 -40 -2 -66 -7l-43 -123h-38v146s36 9 66 15c60 13 91 16 122 16c125 0 209 -70 209 -174c0 -86 -29 -135 -163 -269c-48 -49 -86 -85 -155 -146
h249l52 104h40z" />
    <glyph glyph-name="three" unicode="3" 
d="M73 495v145s34 9 70 16c62 12 90 16 128 16c130 0 209 -58 209 -154c0 -83 -62 -145 -167 -168c75 -4 188 -44 188 -163c0 -116 -105 -192 -265 -192c-31 0 -55 2 -94 11c-41 9 -79 23 -79 23v148h37l50 -126c20 -3 34 -4 63 -4c88 0 179 34 179 139
c0 84 -57 137 -148 137h-35v47h42c57 0 120 44 120 132c0 79 -46 121 -133 121c-24 0 -61 -2 -80 -5l-48 -123h-37z" />
    <glyph glyph-name="four" unicode="4" 
d="M517 203h-99v-141l89 -35v-27h-266v27l89 35v141h-323v34l369 435h42v-401h99v-68zM330 271v268l-227 -268h227z" />
    <glyph glyph-name="five" unicode="5" 
d="M140 572v-153c52 14 74 18 110 18c150 0 242 -78 242 -205c0 -140 -106 -237 -257 -237c-31 0 -61 5 -90 11c-27 5 -80 23 -80 23v148h36l51 -125c25 -3 46 -5 65 -5c105 0 171 63 171 164s-68 158 -189 158c-43 0 -79 -5 -116 -16v308h388v-89h-331z" />
    <glyph glyph-name="six" unicode="6" 
d="M507 656l-6 -40c-19 3 -30 4 -51 4c-109 0 -194 -35 -245 -104c-30 -40 -42 -80 -48 -149c56 24 102 34 155 34c121 0 200 -77 200 -197c0 -132 -91 -220 -226 -220c-155 0 -243 106 -243 294c0 240 135 394 344 394c47 0 90 -6 120 -16zM408 193c0 96 -52 151 -143 151
c-38 0 -112 -16 -112 -16s-1 -21 -1 -35c0 -94 1 -262 134 -262c76 0 122 60 122 162z" />
    <glyph glyph-name="seven" unicode="7" 
d="M517 661v-43c-93 -211 -186 -420 -292 -628h-99c115 192 218 385 316 588h-291l-47 -120h-40v203h453z" />
    <glyph glyph-name="eight" unicode="8" 
d="M343 372l36 -20c81 -45 120 -99 120 -172c0 -118 -93 -196 -234 -196c-102 0 -214 57 -214 173c0 77 56 138 160 175l-18 10c-81 45 -111 89 -111 158c0 102 81 172 197 172c115 0 189 -58 189 -148c0 -68 -38 -114 -125 -152zM254 420l53 -28c49 37 73 79 73 125
c0 68 -41 113 -102 113c-63 0 -107 -41 -107 -99c0 -46 26 -81 83 -111zM324 266l-75 44c-77 -43 -110 -90 -110 -154c0 -77 62 -120 135 -120c82 0 136 45 136 115c0 48 -21 77 -86 115z" />
    <glyph glyph-name="nine" unicode="9" 
d="M53 3l4 40c36 -1 46 -1 58 -1c107 0 195 40 243 111c25 36 36 71 44 134c-45 -21 -100 -32 -154 -32c-122 0 -200 76 -200 196c0 132 92 221 229 221c72 0 137 -29 178 -80s62 -125 62 -223c0 -120 -36 -219 -102 -285c-60 -60 -146 -94 -240 -94c-44 0 -85 5 -122 13z
M408 388c0 91 -11 237 -133 237c-75 0 -123 -63 -123 -162c0 -95 52 -151 140 -151c39 0 75 7 112 15c3 26 4 40 4 61z" />
    <glyph glyph-name="colon" unicode=":" horiz-adv-x="278" 
d="M203 451c0 -44 -17 -60 -61 -60c-46 0 -64 17 -64 60s18 60 63 60c44 0 62 -18 62 -60zM203 50c0 -44 -17 -60 -61 -60c-46 0 -64 17 -64 60s18 60 63 60c44 0 62 -18 62 -60z" />
    <glyph glyph-name="semicolon" unicode=";" horiz-adv-x="279" 
d="M199 451c0 -44 -17 -60 -61 -60c-46 0 -64 17 -64 60s18 60 63 60c44 0 62 -18 62 -60zM145 10h-13c-41 0 -63 19 -63 53s25 57 63 57c51 0 78 -29 78 -84c0 -78 -37 -125 -118 -149l-13 33c49 21 64 42 66 90z" />
    <glyph glyph-name="semicolon" unicode="&#x37e;" horiz-adv-x="279" 
d="M199 451c0 -44 -17 -60 -61 -60c-46 0 -64 17 -64 60s18 60 63 60c44 0 62 -18 62 -60zM145 10h-13c-41 0 -63 19 -63 53s25 57 63 57c51 0 78 -29 78 -84c0 -78 -37 -125 -118 -149l-13 33c49 21 64 42 66 90z" />
    <glyph glyph-name="less" unicode="&#x3c;" horiz-adv-x="660" 
d="M610 65l-575 250v30l575 250v-85l-431 -180l431 -180v-85z" />
    <glyph glyph-name="equal" unicode="=" 
d="M530 395h-510v76h510v-76zM530 188h-510v76h510v-76z" />
    <glyph glyph-name="greater" unicode="&#x3e;" horiz-adv-x="660" 
d="M610 315l-575 -250v85l431 180l-431 180v85l575 -251v-29z" />
    <glyph glyph-name="question" unicode="?" horiz-adv-x="426" 
d="M11 516v146c26 6 41 10 73 17c56 13 85 17 122 17c130 0 211 -70 211 -182c0 -70 -23 -119 -87 -177l-68 -62c-34 -31 -39 -35 -43 -79c0 -10 -1 -21 -2 -35h-46c-2 12 -3 26 -5 39c0 10 -1 20 -1 27c0 28 6 41 39 81l52 63c37 45 52 85 52 143c0 84 -49 134 -132 134
c-42 0 -59 -2 -77 -7l-50 -125h-38zM258 51c0 -38 -21 -56 -65 -56c-42 0 -65 19 -65 55s21 54 66 54c42 0 64 -18 64 -53z" />
    <glyph glyph-name="at" unicode="@" horiz-adv-x="796" 
d="M572 -92l7 -33s-55 -18 -64 -20c-52 -15 -91 -21 -126 -21c-199 0 -349 109 -349 320c0 236 144 430 393 430c184 0 323 -105 323 -297c0 -179 -115 -294 -258 -294c-3 0 -52 -4 -52 33c0 6 0 13 1 17l11 84c-40 -51 -49 -62 -73 -83c-36 -33 -66 -49 -93 -49
c-52 0 -83 51 -83 139c0 82 26 165 70 219c49 60 114 91 195 91c27 0 50 -2 92 -11l-48 -391c15 0 23 3 30 5c64 18 131 97 131 225c0 157 -95 255 -254 255c-217 0 -306 -148 -306 -349c0 -189 124 -285 302 -287c51 -1 100 8 151 17zM460 159l28 231c-18 6 -35 9 -52 9
c-52 0 -89 -28 -113 -84c-18 -42 -30 -113 -30 -179c0 -54 9 -75 29 -75c12 0 20 5 63 38z" />
    <glyph glyph-name="A" unicode="A" horiz-adv-x="670" 
d="M683 0h-265v26l80 39l-75 216h-221l-80 -216l80 -39v-26h-229v26l80 39l263 640h59l229 -640l79 -39v-26zM406 323l-66 199c-4 13 -7 20 -11 32c-2 9 -3 15 -10 35l-101 -266h188z" />
    <glyph glyph-name="B" unicode="B" horiz-adv-x="599" 
d="M114 637l-89 37v26h287c74 0 117 -13 152 -40c51 -40 59 -98 59 -127c0 -36 -11 -74 -38 -105c-20 -24 -61 -58 -135 -67c61 -2 99 -20 118 -31c29 -17 86 -58 86 -149c0 -28 -8 -89 -59 -132c-56 -47 -128 -49 -181 -49h-289v26l89 37v574zM213 377h73c43 0 73 21 93 46
c28 34 35 72 35 99c0 35 -10 71 -29 94c-29 36 -70 42 -97 42h-75v-281zM213 42h74c28 0 91 2 130 51c16 20 28 51 28 92c0 67 -33 102 -56 119c-29 21 -69 29 -103 29h-73v-291z" />
    <glyph glyph-name="C" unicode="C" horiz-adv-x="656" 
d="M621 182l-13 -156c-61 -17 -88 -23 -103 -26c-50 -9 -95 -10 -120 -10c-80 0 -181 8 -260 93c-48 52 -85 133 -85 244c0 109 36 216 110 289c77 75 173 94 271 94c54 0 119 -5 193 -24v-158h-38l-49 131c-25 3 -56 5 -83 5c-81 0 -160 -18 -220 -80
c-41 -42 -80 -113 -80 -240c0 -49 5 -138 61 -210c55 -71 136 -87 224 -87c5 0 31 0 75 3l16 1l65 131h36z" />
    <glyph glyph-name="D" unicode="D" horiz-adv-x="728" 
d="M25 700h313c107 0 195 -13 267 -95c73 -83 83 -178 83 -239c0 -140 -57 -243 -130 -299c-78 -60 -174 -67 -236 -67h-297v26l89 37v574l-89 37v26zM213 47h100c75 0 132 11 189 72c66 71 82 150 82 239c0 65 -10 140 -59 206c-53 73 -121 89 -199 89h-113v-606z" />
    <glyph glyph-name="E" unicode="E" horiz-adv-x="586" 
d="M541 161l-16 -161h-500v26l89 37v574l-89 37v26h496v-156h-35l-49 114h-224v-282h189l35 94h32v-229h-32l-35 93h-189v-287h230l63 114h35z" />
    <glyph glyph-name="F" unicode="F" horiz-adv-x="510" 
d="M500 549h-35l-49 109h-204v-282h167l37 94h31v-229h-31l-37 93h-167v-271l110 -37v-26h-297v26l88 37v574l-88 37v26h475v-151z" />
    <glyph glyph-name="G" unicode="G" horiz-adv-x="713" 
d="M703 260l-89 -35v-197c-52 -13 -74 -19 -103 -25c-47 -9 -90 -13 -125 -13c-84 0 -191 23 -258 95c-39 42 -88 123 -88 251c0 150 64 239 112 284c55 51 134 90 269 90c31 0 97 -2 204 -25v-157h-40l-47 129c-24 5 -47 8 -84 8c-105 0 -174 -24 -227 -79
c-76 -80 -83 -183 -83 -240c0 -48 4 -126 53 -197c63 -92 159 -102 218 -102c18 0 65 1 100 5v173l-88 35v26h276v-26z" />
    <glyph glyph-name="H" unicode="H" horiz-adv-x="750" 
d="M725 0h-276v26l89 37v276h-325v-276l88 -37v-26h-276v26l89 37v575l-89 36v26h276v-26l-88 -36v-245h325v245l-89 36v26h276v-26l-88 -36v-575l88 -37v-26z" />
    <glyph glyph-name="I" unicode="I" horiz-adv-x="326" 
d="M301 0h-276v26l89 37v574l-89 37v26h276v-26l-88 -37v-574l88 -37v-26z" />
    <glyph glyph-name="J" unicode="J" horiz-adv-x="318" 
d="M313 674l-89 -36v-644c0 -77 -18 -126 -62 -172c-42 -44 -87 -61 -162 -61c-32 0 -54 3 -70 6v103h71l33 -68c35 2 56 22 66 36c6 8 25 38 25 104v696l-88 36v26h276v-26z" />
    <glyph glyph-name="K" unicode="K" horiz-adv-x="640" 
d="M645 0h-165l-255 370l241 273l-71 31v26h234v-26l-78 -37l-231 -233l245 -341l80 -37v-26zM301 0h-276v26l89 37v574l-89 37v26h276v-26l-88 -37v-574l88 -37v-26z" />
    <glyph glyph-name="L" unicode="L" horiz-adv-x="505" 
d="M500 177l-16 -177h-459v26l89 37v574l-89 37v26h276v-26l-88 -37v-590h185l66 130h36z" />
    <glyph glyph-name="M" unicode="M" horiz-adv-x="875" 
d="M850 0h-276v26l88 37v518l-237 -591h-21l-234 591v-518l89 -37v-26h-234v26l88 37v574l-88 37v26h206l209 -526l211 526h199v-26l-89 -37v-574l89 -37v-26z" />
    <glyph glyph-name="N" unicode="N" horiz-adv-x="735" 
d="M725 674l-89 -37v-647h-32l-433 584v-511l88 -37v-26h-234v26l89 37v574l-89 37v26h173l381 -506v443l-88 37v26h234v-26z" />
    <glyph glyph-name="O" unicode="O" horiz-adv-x="728" 
d="M372 710c129 0 196 -60 227 -94c63 -69 89 -153 89 -256c0 -118 -38 -211 -98 -276c-52 -56 -128 -100 -237 -100c-72 0 -158 20 -225 92c-54 58 -88 140 -88 252c0 131 46 230 112 295c61 60 135 87 220 87zM360 663c-41 0 -111 -11 -159 -88c-38 -61 -52 -143 -52 -223
c0 -129 34 -201 62 -240c50 -70 117 -81 154 -81c75 0 120 38 146 72c59 75 68 170 68 241c0 50 -6 139 -48 215c-49 87 -122 104 -171 104z" />
    <glyph glyph-name="P" unicode="P" horiz-adv-x="553" 
d="M25 700h265c85 0 142 -12 188 -53c48 -42 60 -94 60 -142c0 -70 -27 -123 -76 -159c-61 -45 -133 -50 -176 -50h-73v-234l109 -36v-26h-297v26l89 36v575l-89 37v26zM213 338h48c70 0 173 20 173 163c0 84 -35 157 -149 157h-72v-320z" />
    <glyph glyph-name="Q" unicode="Q" horiz-adv-x="753" 
d="M327 -22l-16 10c-71 6 -132 33 -183 88c-64 69 -88 158 -88 252c0 131 46 230 112 295c61 60 135 87 220 87c129 0 196 -60 227 -94c53 -58 89 -136 89 -256c0 -159 -75 -306 -246 -359c86 -42 122 -59 172 -79c114 -46 139 -47 161 -47c8 0 31 1 52 9l53 20l13 -26
c-101 -87 -142 -93 -169 -93c-74 0 -207 75 -263 110c-9 6 -19 12 -28 18c-12 8 -25 15 -37 22c-13 8 -25 16 -38 24c-10 6 -21 13 -31 19zM360 663c-41 0 -111 -11 -159 -88c-38 -61 -52 -143 -52 -223c0 -129 34 -201 62 -240c50 -70 117 -81 154 -81c75 0 120 38 146 72
c59 75 68 170 68 241c0 50 -6 139 -48 215c-49 87 -122 104 -171 104z" />
    <glyph glyph-name="R" unicode="R" horiz-adv-x="632" 
d="M647 0h-168l-229 333h-37v-271l88 -36v-26h-276v26l89 36v575l-89 37v26h283c62 0 109 -2 155 -39c44 -35 59 -87 59 -130c0 -45 -16 -85 -41 -114c-26 -31 -71 -58 -126 -66l211 -287l81 -38v-26zM213 375h70c36 0 68 11 95 43c25 30 35 66 35 104c0 50 -16 82 -36 102
c-29 30 -65 34 -92 34h-72v-283z" />
    <glyph glyph-name="S" unicode="S" horiz-adv-x="529" 
d="M453 533h-39l-50 126c-22 3 -45 4 -63 4c-71 0 -102 -17 -110 -22c-19 -12 -42 -36 -42 -78c0 -55 31 -84 88 -121l111 -72c54 -35 75 -50 95 -81c15 -23 31 -56 31 -109c0 -71 -34 -115 -63 -140c-54 -45 -123 -50 -161 -50c-76 0 -152 20 -178 28l-17 5v154h38l51 -129
l9 -1c32 -4 48 -5 68 -5c50 0 82 8 106 25c26 19 43 47 43 89c0 25 -5 45 -17 63c-17 25 -44 42 -65 56l-111 74c-35 23 -67 41 -93 83c-20 32 -24 70 -24 94c0 39 11 100 66 142c47 36 103 42 147 42c38 0 76 -6 122 -16l58 -12v-149z" />
    <glyph glyph-name="T" unicode="T" horiz-adv-x="580" 
d="M580 528h-37l-48 125h-153v-590l109 -37v-26h-317v26l109 37v590h-157l-48 -125h-38v172h580v-172z" />
    <glyph glyph-name="U" unicode="U" horiz-adv-x="695" 
d="M700 674l-89 -37v-396c0 -57 -7 -128 -61 -183c-61 -62 -151 -68 -209 -68c-230 0 -258 125 -258 224v423l-88 37v26h276v-26l-89 -37v-415c0 -30 3 -98 46 -140c40 -39 103 -41 130 -41c46 0 105 7 142 44c39 39 43 95 43 132v420l-88 37v26h245v-26z" />
    <glyph glyph-name="V" unicode="V" horiz-adv-x="658" 
d="M683 674l-79 -37l-258 -647h-51l-235 647l-80 37v26h266v-26l-79 -37l145 -427c16 -48 23 -68 32 -100l189 527l-79 37v26h229v-26z" />
    <glyph glyph-name="W" unicode="W" horiz-adv-x="1025" 
d="M1050 674l-82 -37l-238 -647h-43l-179 547l-193 -547h-42l-212 647l-81 37v26h266v-26l-80 -37l122 -395c9 -29 19 -67 27 -98l193 556h47l149 -461c27 -84 8 -25 26 -100l166 498l-81 37v26h235v-26z" />
    <glyph glyph-name="X" unicode="X" horiz-adv-x="643" 
d="M648 0h-276v26l81 37l-153 236l-149 -236l78 -37v-26h-234v26l79 37l195 285l-180 289l-78 37v26h265v-26l-71 -37l135 -212l139 212l-71 37v26h219v-26l-80 -37l-179 -258l202 -316l78 -37v-26z" />
    <glyph glyph-name="Y" unicode="Y" horiz-adv-x="593" 
d="M623 674l-78 -37l-189 -289v-285l112 -37v-26h-323v26l112 37v258l-198 316l-79 37v26h271v-26l-73 -37l148 -241l146 241l-73 37v26h224v-26z" />
    <glyph glyph-name="Z" unicode="Z" horiz-adv-x="574" 
d="M544 177l-18 -177h-496v34l382 619h-270l-47 -125h-38v172h483v-31l-383 -617h284l66 125h37z" />
    <glyph glyph-name="bracketleft" unicode="[" horiz-adv-x="259" 
d="M230 -229h-156v963h156v-36h-83v-891h83v-36z" />
    <glyph glyph-name="backslash" unicode="\" horiz-adv-x="255" 
d="M255 -244h-67l-188 1000h66z" />
    <glyph glyph-name="bracketright" unicode="]" horiz-adv-x="259" 
d="M176 -229h-156v36h83v891h-83v36h156v-963z" />
    <glyph glyph-name="asciicircum" unicode="^" horiz-adv-x="592" 
d="M503 310h-76l-131 304l-131 -304h-76l192 426h31z" />
    <glyph glyph-name="underscore" unicode="_" horiz-adv-x="500" 
d="M500 -125h-500v50h500v-50z" />
    <glyph glyph-name="grave" unicode="`" horiz-adv-x="277" 
d="M264 573h-52l-201 151h144z" />
    <glyph glyph-name="a" unicode="a" horiz-adv-x="509" 
d="M499 27l-76 -25c-13 -4 -34 -7 -46 -7c-18 0 -52 4 -58 50l-6 -3c-12 -6 -29 -15 -48 -23c-27 -12 -37 -16 -44 -18c-14 -4 -31 -6 -45 -6c-30 0 -75 6 -109 38c-28 26 -37 59 -37 89c0 40 16 66 33 82c10 10 32 27 77 38c41 10 114 17 146 20l30 3v119
c0 32 -1 62 -44 76c-13 4 -40 11 -89 7l-44 -87h-62v95l68 17c42 10 76 18 115 18c20 0 66 0 108 -28c33 -22 42 -52 42 -95v-282c0 -19 2 -24 5 -27c5 -6 10 -8 25 -12l59 -17v-22zM316 66v170l-39 -6c-18 -3 -60 -11 -71 -14c-26 -7 -41 -16 -49 -23
c-17 -15 -23 -35 -23 -57c0 -27 11 -46 25 -59c24 -22 56 -25 80 -25c14 0 38 1 71 12z" />
    <glyph glyph-name="b" unicode="b" horiz-adv-x="577" 
d="M188 451l23 11c19 9 34 17 68 31c21 8 41 17 73 17c35 0 83 -13 126 -59c38 -41 64 -99 64 -177c0 -64 -18 -135 -77 -196c-67 -70 -148 -88 -208 -88c-52 0 -126 16 -163 25v630l-94 28v22l188 42v-286zM188 427v-381c7 -1 27 -4 37 -4h16c40 1 82 2 123 30
c63 43 81 120 79 175c2 57 -19 112 -47 144c-42 48 -98 51 -126 51c-18 0 -44 -2 -82 -15z" />
    <glyph glyph-name="c" unicode="c" horiz-adv-x="475" 
d="M443 64l7 -33l-37 -12c-26 -8 -56 -17 -77 -21c-22 -4 -55 -8 -73 -8c-70 0 -130 28 -168 71c-34 38 -60 99 -60 177c0 118 58 181 96 212c52 41 118 60 186 60c61 0 107 -15 129 -23v-107h-63l-46 93c-40 4 -94 -4 -139 -48c-44 -43 -64 -98 -64 -161
c0 -70 22 -123 50 -155c45 -52 105 -58 144 -58c22 0 59 2 115 13z" />
    <glyph glyph-name="d" unicode="d" horiz-adv-x="576" 
d="M566 27l-177 -41v61l-70 -31c-38 -17 -61 -26 -90 -26c-38 0 -84 10 -126 53c-44 45 -68 110 -68 184c0 86 32 177 116 235c47 32 105 48 160 48c21 0 52 -4 78 -13v148l-94 28v22l188 42v-662l83 -26v-22zM389 72v386c-8 2 -29 6 -63 6c-71 0 -113 -28 -135 -50
c-33 -33 -57 -87 -57 -158c0 -74 25 -126 57 -156c27 -26 67 -42 115 -42c27 0 59 7 83 14z" />
    <glyph glyph-name="e" unicode="e" horiz-adv-x="510" 
d="M470 269h-330c-3 -88 25 -133 48 -159c26 -28 66 -57 148 -57c14 0 50 1 120 12l6 -34l-69 -21c-21 -6 -70 -20 -118 -20c-76 0 -133 20 -179 73c-47 54 -61 119 -61 177c0 41 8 138 81 208c24 23 74 62 159 62c74 0 123 -32 150 -65c40 -48 42 -107 44 -152zM141 301
l224 21c1 42 -4 92 -35 122c-21 20 -45 24 -65 24c-46 0 -76 -19 -98 -61c-22 -43 -26 -99 -26 -106z" />
    <glyph glyph-name="f" unicode="f" horiz-adv-x="352" 
d="M457 635h-68l-30 64c-34 5 -81 -8 -109 -29c-27 -20 -43 -51 -43 -114v-56h156v-47h-156v-390l110 -37v-26h-292v26l88 37v390h-88v47h88v40c0 52 16 110 76 154c39 28 93 46 164 46c54 0 85 -8 104 -15v-90z" />
    <glyph glyph-name="g" unicode="g" horiz-adv-x="536" 
d="M536 428l-157 33c20 -13 40 -33 51 -53s18 -47 18 -72c0 -36 -13 -77 -45 -109c-22 -22 -68 -56 -149 -56c-33 0 -48 4 -52 5c-33 -35 -41 -60 -41 -70c0 -7 2 -18 17 -27c19 -11 45 -12 60 -12h141c30 0 71 0 100 -30c25 -26 26 -57 26 -71c0 -34 -13 -93 -82 -141
c-59 -42 -127 -54 -180 -54c-29 0 -110 2 -171 40c-41 25 -62 57 -62 85c0 30 23 50 35 60c19 15 41 28 76 44c-22 13 -43 37 -43 63c0 22 13 37 27 52c24 25 44 46 71 68c-26 7 -52 19 -70 33c-43 33 -59 82 -59 119c0 81 73 175 199 175c52 0 88 -17 109 -29l181 37v-90z
M245 473c-16 0 -38 -4 -58 -21c-30 -25 -41 -60 -41 -99c0 -65 25 -108 56 -128c15 -10 34 -17 53 -17c45 0 99 35 99 118c0 57 -22 93 -38 112c-26 31 -58 35 -71 35zM352 -15h-166c-11 0 -24 -1 -43 6c-13 -9 -23 -20 -33 -36c-5 -8 -17 -27 -17 -46c0 -25 17 -50 40 -65
c30 -20 76 -30 116 -30c72 0 116 25 138 43c30 24 40 52 40 74c0 26 -15 38 -24 43c-13 7 -36 11 -51 11z" />
    <glyph glyph-name="h" unicode="h" horiz-adv-x="629" 
d="M619 0h-265v26l83 37v262c0 30 -4 71 -42 95c-20 13 -48 19 -91 19c-17 0 -56 -1 -91 -6v-370l78 -37v-26h-260v26l88 37v582l-94 27v23l188 42v-279l77 30c39 15 60 22 93 22c38 0 76 -8 111 -45c26 -28 37 -58 37 -121v-281l88 -37v-26z" />
    <glyph glyph-name="i" unicode="i" horiz-adv-x="311" 
d="M296 0h-271v26l89 37v362l-89 27v23l183 40v-452l88 -37v-26zM162 734c12 0 30 -2 43 -11c15 -11 18 -29 18 -41c0 -15 -3 -31 -17 -43s-32 -14 -46 -14c-16 0 -33 2 -47 15c-9 8 -15 20 -15 42c0 24 11 35 17 40c15 12 38 12 47 12z" />
    <glyph glyph-name="j" unicode="j" horiz-adv-x="302" 
d="M166 734c12 0 30 -2 43 -11c15 -11 18 -29 18 -41c0 -15 -3 -31 -17 -43s-32 -14 -46 -14c-16 0 -33 2 -47 15c-9 8 -15 20 -15 42c0 24 11 35 17 40c15 12 38 12 47 12zM211 513v-521c0 -89 -27 -132 -68 -169c-35 -31 -74 -52 -143 -52c-20 0 -47 2 -70 5v99h66l33 -65
c23 5 45 18 59 33c26 30 29 72 29 108v473l-88 25v24z" />
    <glyph glyph-name="k" unicode="k" horiz-adv-x="593" 
d="M598 0h-159l-212 272l180 176l-70 28v24h245v-24l-103 -33l-154 -140l195 -246l78 -31v-26zM301 0h-271v26l89 37v582l-94 27v23l188 42v-674l88 -37v-26z" />
    <glyph glyph-name="l" unicode="l" horiz-adv-x="311" 
d="M301 0h-271v26l89 37v582l-94 27v23l188 42v-674l88 -37v-26z" />
    <glyph glyph-name="m" unicode="m" horiz-adv-x="931" 
d="M921 0h-266v26l83 37v261c0 50 -11 75 -32 91c-33 25 -82 27 -103 27c-27 0 -64 -3 -104 -13c4 -10 9 -24 11 -36c3 -16 5 -43 5 -62v-268l83 -37v-26h-255v26l78 37v260c0 27 -3 68 -29 93c-25 24 -71 27 -101 27c-26 0 -52 -3 -83 -10v-370l83 -37v-26h-266v26l89 37
v361l-93 27v23l188 41v-57l87 34c36 14 54 18 79 18c28 0 50 -4 71 -17c16 -10 32 -28 42 -44l86 35c55 22 74 26 106 26c36 0 75 -6 111 -42c28 -27 41 -61 41 -125v-280l89 -37v-26z" />
    <glyph glyph-name="n" unicode="n" horiz-adv-x="624" 
d="M614 0h-265v26l83 37v262c0 53 -15 79 -42 95c-21 13 -47 19 -91 19c-24 0 -60 -2 -91 -6v-370l78 -37v-26h-260v26l88 37v360l-93 27v23l188 41v-57l53 22c47 19 73 31 116 31c56 0 89 -21 111 -45c26 -28 37 -58 37 -121v-281l88 -37v-26z" />
    <glyph glyph-name="o" unicode="o" horiz-adv-x="559" 
d="M287 510c94 0 145 -43 170 -70c50 -54 67 -120 67 -185c0 -81 -29 -143 -68 -188c-33 -38 -89 -83 -183 -83c-78 0 -133 30 -171 70c-54 57 -67 124 -67 184c0 58 13 132 66 193c55 62 127 79 186 79zM275 463c-48 0 -74 -22 -90 -41c-39 -48 -46 -116 -46 -169
c0 -77 16 -123 30 -150c31 -60 81 -72 115 -72c28 0 79 9 109 68c6 11 27 55 27 137c0 52 -9 118 -35 162c-28 47 -67 65 -110 65z" />
    <glyph glyph-name="p" unicode="p" horiz-adv-x="592" 
d="M202 515v-64c18 10 27 14 68 33c49 23 79 26 94 26c85 0 193 -80 193 -237c0 -51 -12 -127 -74 -194c-74 -79 -168 -89 -215 -89c-35 0 -59 5 -66 6v-166l110 -33v-26h-292v26l88 33v593l-88 27v24zM202 427v-387c12 -1 29 -3 41 -3h18c36 1 77 4 115 29
c63 41 82 118 82 179c0 56 -16 110 -50 147c-32 35 -72 50 -119 50c-37 0 -68 -8 -87 -15z" />
    <glyph glyph-name="q" unicode="q" horiz-adv-x="576" 
d="M576 -229h-270v26l88 34v216l-69 -31c-29 -13 -59 -26 -99 -26c-31 0 -87 10 -132 64c-36 43 -59 107 -59 179c0 121 62 187 104 220c41 32 92 57 170 57c31 0 65 -3 107 -20l72 33v-692l88 -34v-26zM394 72v381c-15 6 -32 11 -67 11c-56 0 -99 -16 -134 -49
c-43 -41 -59 -95 -59 -155c0 -65 18 -116 47 -149c36 -41 88 -53 127 -53c25 0 58 6 86 14z" />
    <glyph glyph-name="r" unicode="r" horiz-adv-x="421" 
d="M416 380h-72l-31 61c-8 1 -14 1 -18 1c-19 0 -31 -1 -47 -5c-13 -3 -25 -6 -40 -12v-362l109 -37v-26h-292v26l89 37v361l-93 27v23l187 41v-64c17 9 78 40 117 52c12 4 24 7 38 7c12 0 28 -2 53 -16v-114z" />
    <glyph glyph-name="s" unicode="s" horiz-adv-x="423" 
d="M198 327l82 -46c33 -18 56 -33 74 -65c9 -16 19 -43 19 -74c0 -39 -15 -82 -50 -113c-22 -19 -58 -40 -114 -40c-24 0 -50 4 -73 8c-32 6 -57 13 -86 22v115h44l48 -93c8 -2 25 -5 47 -5c24 0 49 4 69 16c26 16 32 35 32 58c0 13 -2 24 -9 36c-7 10 -19 22 -44 36l-95 55
c-41 24 -58 48 -66 60c-9 14 -21 35 -21 72c0 66 37 101 59 115c23 15 56 26 104 26c28 0 75 -8 102 -15l37 -10v-105h-44l-42 85c-14 3 -32 4 -44 4c-38 0 -58 -11 -62 -13c-15 -8 -32 -25 -32 -55c0 -29 19 -48 65 -74z" />
    <glyph glyph-name="t" unicode="t" horiz-adv-x="369" 
d="M364 22l-61 -15c-48 -12 -76 -17 -105 -17c-23 0 -50 4 -73 25c-15 14 -32 40 -32 91v347h-78v31c33 15 75 37 92 56c19 20 42 73 49 90h31v-130h166v-47h-166v-318c0 -18 1 -48 17 -67s46 -21 69 -21c20 0 46 1 83 10z" />
    <glyph glyph-name="u" unicode="u" horiz-adv-x="603" 
d="M588 27l-177 -42v56l-73 -29c-27 -11 -54 -23 -95 -23c-26 0 -77 6 -107 33c-14 12 -43 47 -43 125v278l-88 26v24l182 40v-347c0 -31 3 -69 31 -92c25 -21 65 -23 95 -23c23 0 53 2 98 11v361l-88 26v24l182 40v-438l83 -27v-23z" />
    <glyph glyph-name="v" unicode="v" horiz-adv-x="507" 
d="M522 474l-61 -34l-198 -450h-43l-176 455l-64 29v26h240v-26l-73 -29l85 -235c9 -24 19 -55 31 -106l126 336l-71 34v26h204v-26z" />
    <glyph glyph-name="w" unicode="w" horiz-adv-x="788" 
d="M803 474l-62 -34l-181 -450h-48l-119 351l-131 -351h-46l-170 455l-66 29v26h245v-26l-80 -29l89 -254l22 -73l143 382h31l112 -321c5 -14 8 -26 18 -61l112 322l-78 34v26h209v-26z" />
    <glyph glyph-name="x" unicode="x" horiz-adv-x="557" 
d="M552 0h-235v26l51 28l-109 153l-109 -148l48 -33v-26h-193v26l74 33l151 189l-136 200l-73 26v26h234v-26l-52 -26l95 -133l100 127l-49 32v26h182v-26l-65 -32l-140 -166l154 -222l72 -28v-26z" />
    <glyph glyph-name="y" unicode="y" horiz-adv-x="506" 
d="M521 474l-59 -35l-219 -537c-15 -37 -33 -72 -68 -98c-32 -25 -67 -33 -111 -33c-17 0 -45 2 -68 5v99h63l32 -63c37 5 66 25 97 102l35 87l-179 445l-64 28v26h239v-26l-73 -28l95 -245c16 -40 25 -68 32 -96l121 334l-70 35v26h197v-26z" />
    <glyph glyph-name="z" unicode="z" horiz-adv-x="496" 
d="M451 0h-411v35l288 418h-181l-50 -94h-36v141h390v-33l-290 -420h201l56 109h33v-156z" />
    <glyph glyph-name="braceleft" unicode="{" horiz-adv-x="407" 
d="M366 -173v-33c-76 1 -128 21 -163 62c-31 37 -39 70 -39 172v81c0 100 -23 129 -123 153v5c100 24 123 53 123 154v80c0 102 8 136 39 173c34 40 84 59 163 62v-33c-51 -5 -79 -18 -99 -47s-25 -52 -25 -121v-57c0 -87 -5 -122 -22 -153c-20 -34 -54 -53 -110 -60
c53 -6 90 -26 110 -61c17 -29 22 -65 22 -152v-58c0 -69 5 -92 25 -120c20 -29 49 -43 99 -47z" />
    <glyph glyph-name="bar" unicode="|" horiz-adv-x="251" 
d="M151 -244h-51v1000h51v-1000z" />
    <glyph glyph-name="braceright" unicode="}" horiz-adv-x="408" 
d="M366 267v-5c-100 -24 -123 -53 -123 -153v-81c0 -102 -7 -135 -39 -172c-35 -41 -86 -61 -162 -62v33c49 4 78 18 98 47c20 28 25 52 25 120v58c0 86 5 123 22 152c21 35 57 55 110 61c-56 7 -90 26 -110 60c-17 31 -22 67 -22 153v57c0 69 -5 92 -25 121s-47 42 -98 47
v33c78 -3 128 -22 162 -62c32 -37 39 -70 39 -173v-80c0 -101 23 -130 123 -154z" />
    <glyph glyph-name="asciitilde" unicode="~" horiz-adv-x="592" 
d="M550 354l32 -11c-17 -73 -50 -175 -144 -175c-34 0 -70 12 -152 44l-51 20c-40 16 -70 24 -92 24c-47 0 -82 -35 -100 -101l-33 9c23 118 73 176 145 176c41 0 81 -17 119 -32l65 -26c55 -22 85 -30 110 -30c47 0 77 31 101 102z" />
    <glyph glyph-name="currency" unicode="&#xa4;" horiz-adv-x="592" 
d="M527 165l-37 -37l-65 63c-49 -33 -79 -43 -129 -43c-51 0 -80 10 -129 44l-65 -64l-37 37l65 65c-35 49 -45 79 -45 129c0 48 11 79 45 130l-65 64l37 36l65 -63c49 33 78 43 129 43c50 0 80 -10 129 -44l65 64l37 -36l-65 -64c34 -50 45 -82 45 -130
c0 -50 -10 -80 -45 -129zM435 359c0 76 -63 138 -139 138c-77 0 -139 -62 -139 -138c0 -77 62 -139 139 -139c76 0 139 62 139 139z" />
    <glyph glyph-name="brokenbar" unicode="&#xa6;" horiz-adv-x="226" 
d="M154 375h-82v250h82v-250zM154 -125h-82v250h82v-250z" />
    <glyph glyph-name="section" unicode="&#xa7;" horiz-adv-x="541" 
d="M276 460l74 -41c54 -30 70 -43 91 -70c20 -27 30 -55 30 -88c0 -70 -41 -124 -129 -169c51 -30 77 -74 77 -134c0 -39 -17 -74 -39 -100c-24 -29 -74 -50 -114 -50c-17 0 -44 2 -76 8c-23 5 -38 9 -68 17v131h37l43 -108c13 -2 20 -3 34 -3c71 0 105 28 105 85
c0 42 -18 64 -78 97l-70 38c-56 30 -72 43 -92 68s-31 58 -31 92c0 47 22 93 60 125c19 16 34 25 69 43c-53 30 -77 71 -77 132c0 43 19 78 47 104c26 24 69 40 105 40c25 0 29 1 82 -9c24 -5 63 -16 63 -16v-131h-37l-44 108c-10 1 -33 3 -43 3c-56 0 -95 -30 -95 -78
c0 -52 35 -71 76 -94zM246 148l67 -38c52 40 75 77 75 118c0 45 -20 73 -75 105l-85 49c-56 -41 -80 -75 -80 -116c0 -25 8 -48 22 -65c15 -17 21 -22 76 -53z" />
    <glyph glyph-name="dieresis" unicode="&#xa8;" horiz-adv-x="278" 
d="M2 640c0 18 6 33 14 41c5 5 15 12 35 12c17 0 29 -5 36 -12c9 -8 14 -22 14 -38c0 -14 -4 -28 -12 -36c-11 -12 -29 -13 -38 -13c-14 0 -29 2 -39 14c-8 9 -10 21 -10 32zM184 640c0 18 6 33 14 41c5 5 15 12 35 12c17 0 29 -5 36 -12c9 -8 14 -22 14 -38
c0 -14 -4 -28 -12 -36c-11 -12 -29 -13 -38 -13c-14 0 -29 2 -39 14c-8 9 -10 21 -10 32z" />
    <glyph glyph-name="copyright" unicode="&#xa9;" horiz-adv-x="819" 
d="M789 367c0 -214 -164 -389 -378 -390s-381 172 -381 386c0 216 169 387 385 387c217 0 374 -169 374 -383zM708 367c0 170 -120 312 -293 312c-174 0 -303 -143 -303 -316c0 -171 127 -316 299 -316c173 0 297 147 297 320zM562 293l-8 -97c-42 -11 -89 -22 -137 -22
c-124 0 -207 70 -207 197c0 137 97 211 224 211c42 0 87 -10 124 -19v-97h-35l-30 80c-11 1 -23 1 -30 1c-104 0 -153 -72 -153 -171c0 -95 40 -166 145 -166c13 0 21 0 39 3l33 80h35z" />
    <glyph glyph-name="guillemotleft" unicode="&#xab;" horiz-adv-x="388" 
d="M337 57h-51l-116 200l116 201h51l-118 -201zM211 57h-50l-117 200l117 201h50l-116 -201z" />
    <glyph glyph-name="logicalnot" unicode="&#xac;" 
d="M508 129h-64v146h-403v82h467v-228z" />
    <glyph glyph-name="registered" unicode="&#xae;" horiz-adv-x="819" 
d="M789 367c0 -214 -164 -389 -378 -390s-381 172 -381 386c0 216 169 387 385 387c217 0 374 -169 374 -383zM708 367c0 170 -120 312 -293 312c-174 0 -303 -143 -303 -316c0 -171 127 -316 299 -316c173 0 297 147 297 320zM626 182h-123l-124 188h-11v-147l50 -23v-18
h-187v18l50 23v313l-50 23v18h192c67 0 135 -16 135 -98c0 -53 -30 -89 -87 -103l106 -153l49 -23v-18zM368 394h32c41 0 64 29 64 81c0 44 -18 73 -66 73h-30v-154z" />
    <glyph glyph-name="degree" unicode="&#xb0;" horiz-adv-x="407" 
d="M349 591c0 -81 -65 -146 -146 -146c-80 0 -145 65 -145 146c0 80 65 145 145 145c81 0 146 -65 146 -145zM301 591c0 54 -44 97 -98 97s-97 -43 -97 -97s43 -98 97 -98s98 44 98 98z" />
    <glyph glyph-name="plusminus" unicode="&#xb1;" 
d="M530 384h-214v-226h-82v226h-214v80h214v204h82v-204h214v-80zM530 0h-510v76h510v-76z" />
    <glyph glyph-name="acute" unicode="&#xb4;" horiz-adv-x="278" 
d="M266 724l-200 -151h-53l109 151h144z" />
    <glyph glyph-name="mu" unicode="&#xb5;" horiz-adv-x="597" 
d="M577 24l-56 -20c-11 -4 -34 -10 -46 -10c-32 0 -54 15 -58 49c-1 9 -1 21 -1 21c-76 -61 -101 -71 -157 -71c-34 0 -74 17 -90 44v-215l-111 -31l-6 23c13 10 20 17 31 31c14 17 12 79 12 116v455c0 8 -2 17 -13 20l-55 15v24l161 40v-258c0 -62 1 -109 12 -134
c15 -35 58 -61 110 -61c31 0 105 29 105 29v325c0 8 -2 17 -13 20l-55 15v24l161 40v-411c0 -8 1 -20 3 -24c4 -7 9 -14 27 -20l39 -14v-22z" />
    <glyph glyph-name="mu" unicode="&#x3bc;" horiz-adv-x="597" 
d="M577 24l-56 -20c-11 -4 -34 -10 -46 -10c-32 0 -54 15 -58 49c-1 9 -1 21 -1 21c-76 -61 -101 -71 -157 -71c-34 0 -74 17 -90 44v-215l-111 -31l-6 23c13 10 20 17 31 31c14 17 12 79 12 116v455c0 8 -2 17 -13 20l-55 15v24l161 40v-258c0 -62 1 -109 12 -134
c15 -35 58 -61 110 -61c31 0 105 29 105 29v325c0 8 -2 17 -13 20l-55 15v24l161 40v-411c0 -8 1 -20 3 -24c4 -7 9 -14 27 -20l39 -14v-22z" />
    <glyph glyph-name="paragraph" unicode="&#xb6;" horiz-adv-x="585" 
d="M550 652h-63v-617c0 -91 -40 -151 -81 -188c-36 -33 -103 -46 -158 -46c-24 0 -51 2 -70 5v99h66l33 -65c83 10 141 63 141 194v618h-79v-463s-43 -9 -89 -9c-134 0 -225 102 -225 248c0 161 114 272 282 272h243v-48z" />
    <glyph glyph-name="periodcentered" unicode="&#xb7;" horiz-adv-x="278" 
d="M199 256c0 -34 -27 -61 -60 -61c-34 0 -61 27 -61 61c0 33 27 60 61 60c33 0 60 -27 60 -60z" />
    <glyph glyph-name="periodcentered" unicode="&#x2219;" horiz-adv-x="278" 
d="M199 256c0 -34 -27 -61 -60 -61c-34 0 -61 27 -61 61c0 33 27 60 61 60c33 0 60 -27 60 -60z" />
    <glyph glyph-name="guillemotright" unicode="&#xbb;" horiz-adv-x="389" 
d="M343 258l-117 -201h-50l116 201l-116 200h50zM217 258l-116 -201h-51l118 201l-118 200h51z" />
    <glyph glyph-name="dotlessi" unicode="&#x131;" horiz-adv-x="311" 
d="M296 0h-271v26l89 37v360l-89 27v23l183 40v-450l88 -37v-26z" />
    <glyph glyph-name="dotaccent" unicode="&#x2d9;" horiz-adv-x="278" 
d="M138 693c20 0 31 -7 35 -11c6 -5 15 -17 15 -40c0 -12 -2 -26 -13 -36c-6 -5 -16 -12 -37 -12c-5 0 -20 0 -31 7c-17 10 -18 29 -18 39c0 13 2 29 13 40c10 11 24 13 36 13z" />
    <glyph glyph-name="afii10023" unicode="&#x401;" horiz-adv-x="586" 
d="M541 161l-16 -161h-500v26l89 37v574l-89 37v26h496v-156h-35l-49 114h-224v-282h189l35 94h32v-229h-32l-35 93h-189v-287h230l63 114h35zM344 796c0 49 33 52 48 52c48 0 51 -32 51 -47c0 -12 -1 -52 -50 -52c-48 0 -49 37 -49 47zM211 848c48 0 50 -40 50 -50
c0 -48 -37 -49 -50 -49c-46 0 -49 31 -49 46c0 12 1 53 49 53z" />
    <glyph glyph-name="afii10051" unicode="&#x402;" horiz-adv-x="774" 
d="M580 528h-37l-48 125h-160v-279c22 7 47 12 69 16c32 5 65 8 95 8c41 0 86 -3 127 -25c86 -45 93 -139 93 -179c0 -62 -22 -112 -64 -150c-56 -49 -121 -54 -166 -54c-29 0 -50 2 -70 6v103h71l33 -68c33 1 55 18 69 36c23 31 28 84 28 118c0 47 -6 88 -33 117
c-29 32 -76 42 -131 42c-40 0 -82 -5 -121 -15v-329h-208v26l109 37v590h-150l-48 -125h-38v172h580v-172z" />
    <glyph glyph-name="afii10052" unicode="&#x403;" horiz-adv-x="500" 
d="M500 528h-38l-47 130h-203v-595l110 -37v-26h-297v26l88 37v574l-88 37v26h475v-172zM442 896l-200 -151h-53l109 151h144z" />
    <glyph glyph-name="afii10053" unicode="&#x404;" horiz-adv-x="656" 
d="M621 182l-13 -156c-61 -17 -88 -23 -103 -26c-50 -9 -95 -10 -120 -10c-80 0 -181 8 -260 93c-48 52 -85 133 -85 244c0 109 36 216 110 289c77 75 173 94 271 94c54 0 119 -5 193 -24v-158h-38l-49 131c-25 3 -56 5 -83 5c-81 0 -160 -18 -220 -80
c-62 -64 -76 -155 -79 -208h256l35 94h32v-229h-32l-35 93h-257c-1 -69 19 -146 61 -200c55 -71 136 -87 224 -87c5 0 31 0 75 3l16 1l65 131h36z" />
    <glyph glyph-name="afii10054" unicode="&#x405;" horiz-adv-x="529" 
d="M453 533h-39l-50 126c-22 3 -45 4 -63 4c-71 0 -102 -17 -110 -22c-19 -12 -42 -36 -42 -78c0 -55 31 -84 88 -121l111 -72c54 -35 75 -50 95 -81c15 -23 31 -56 31 -109c0 -71 -34 -115 -63 -140c-54 -45 -123 -50 -161 -50c-76 0 -152 20 -178 28l-17 5v154h38l51 -129
l9 -1c32 -4 48 -5 68 -5c50 0 82 8 106 25c26 19 43 47 43 89c0 25 -5 45 -17 63c-17 25 -44 42 -65 56l-111 74c-35 23 -67 41 -93 83c-20 32 -24 70 -24 94c0 39 11 100 66 142c47 36 103 42 147 42c38 0 76 -6 122 -16l58 -12v-149z" />
    <glyph glyph-name="afii10055" horiz-adv-x="326" 
d="M301 0h-276v26l89 37v574l-89 37v26h276v-26l-88 -37v-574l88 -37v-26z" />
    <glyph glyph-name="afii10056" unicode="&#x407;" horiz-adv-x="326" 
d="M301 0h-276v26l89 37v574l-89 37v26h276v-26l-88 -37v-574l88 -37v-26zM22 792c0 18 6 33 14 41c5 5 15 12 35 12c17 0 29 -5 36 -12c9 -8 14 -22 14 -38c0 -14 -4 -28 -12 -36c-11 -12 -29 -13 -38 -13c-14 0 -29 2 -39 14c-8 9 -10 21 -10 32zM204 792c0 18 6 33 14 41
c5 5 15 12 35 12c17 0 29 -5 36 -12c9 -8 14 -22 14 -38c0 -14 -4 -28 -12 -36c-11 -12 -29 -13 -38 -13c-14 0 -29 2 -39 14c-8 9 -10 21 -10 32z" />
    <glyph glyph-name="afii10057" unicode="&#x408;" horiz-adv-x="318" 
d="M313 674l-89 -36v-644c0 -77 -18 -126 -62 -172c-42 -44 -87 -61 -162 -61c-32 0 -54 3 -70 6v103h71l33 -68c35 2 56 22 66 36c6 8 25 38 25 104v696l-88 36v26h276v-26z" />
    <glyph glyph-name="afii10058" unicode="&#x409;" horiz-adv-x="924" 
d="M567 392h83c68 0 118 -3 173 -39c23 -15 81 -60 81 -165c0 -43 -14 -98 -59 -137c-61 -53 -127 -51 -177 -51h-289v26l89 37v583h-153c-26 -283 -41 -401 -74 -491c-55 -150 -149 -165 -198 -165c-17 0 -37 1 -53 3v125h59l45 -68c19 10 81 45 117 237
c21 114 34 241 42 353l-91 35v25h509v-26l-104 -36v-246zM567 42h74c31 0 90 3 127 53c8 11 28 41 28 97c0 73 -33 111 -56 127c-27 19 -67 29 -100 29h-73v-306z" />
    <glyph glyph-name="afii10059" unicode="&#x40a;" horiz-adv-x="988" 
d="M532 637l-89 37v26h292v-26l-104 -36v-245h83c87 0 132 -13 173 -40c23 -15 81 -60 81 -165c0 -43 -14 -98 -59 -137c-61 -53 -127 -51 -177 -51h-289v26l89 37v280h-319v-280l88 -37v-26h-276v26l89 37v575l-89 36v26h276v-26l-88 -36v-245h319v244zM631 42h74
c31 0 90 3 127 53c8 11 28 41 28 97c0 113 -76 159 -156 159h-73v-309z" />
    <glyph glyph-name="afii10060" unicode="&#x40b;" horiz-adv-x="824" 
d="M580 528h-37l-48 125h-160v-279c22 7 47 12 69 16c32 5 67 8 95 8c38 0 93 -4 133 -24c46 -23 87 -74 87 -164v-148l90 -36v-26h-189v189c0 26 0 81 -33 116c-20 21 -59 39 -134 39c-23 0 -66 -2 -118 -15v-266l109 -37v-26h-317v26l109 37v590h-150l-48 -125h-38v172
h580v-172z" />
    <glyph glyph-name="afii10061" unicode="&#x40c;" horiz-adv-x="675" 
d="M213 638v-245h55c25 0 56 3 81 18c30 18 42 48 52 74c23 61 23 65 38 103c14 36 34 79 68 102c14 9 37 20 71 20c16 0 44 -3 57 -4v-129h-59l-37 70c-11 -5 -17 -11 -25 -26s-18 -41 -25 -61c-7 -22 -26 -84 -46 -126c-11 -23 -29 -54 -69 -66c22 -5 47 -15 72 -34
c31 -24 55 -60 68 -92l70 -179l78 -37v-26h-159l-92 236c-15 38 -36 67 -61 83c-23 14 -55 21 -88 21h-49v-277l88 -37v-26h-276v26l89 37v575l-89 36v26h276v-26zM539 896l-200 -151h-53l109 151h144z" />
    <glyph glyph-name="afii10062" unicode="&#x40e;" horiz-adv-x="622" 
d="M-12 700h262v-26l-72 -36l125 -261l45 -105l144 366l-78 36v26h233v-26l-79 -36l-206 -474c-37 -84 -68 -119 -90 -136c-30 -24 -69 -39 -119 -39c-21 0 -55 3 -70 5v129h66l45 -75c18 6 35 16 49 32s27 41 34 59l13 34l-222 465l-80 36v26zM414 811v88c10 4 23 7 35 7
c14 0 31 -4 40 -13c12 -11 14 -27 14 -39c0 -36 -15 -56 -45 -74c-36 -22 -88 -33 -128 -33s-92 11 -128 33c-30 18 -45 38 -45 74c0 12 2 28 14 39c9 9 26 13 40 13c12 0 25 -3 35 -7v-88c25 -12 58 -17 84 -17s59 5 84 17z" />
    <glyph glyph-name="afii10145" unicode="&#x40f;" horiz-adv-x="738" 
d="M713 700v-26l-88 -37v-575l88 -36v-26h-325l26 -166v-17h-91v17l26 166h-324v26l89 36v575l-89 37v26h276v-26l-88 -37v-583h313v583l-89 37v26h276z" />
    <glyph glyph-name="afii10017" unicode="&#x410;" horiz-adv-x="670" 
d="M683 0h-265v26l80 39l-75 216h-221l-80 -216l80 -39v-26h-229v26l80 39l263 640h59l229 -640l79 -39v-26zM406 323l-66 199c-4 13 -7 20 -11 32c-2 9 -3 15 -10 35l-101 -266h188z" />
    <glyph glyph-name="afii10018" unicode="&#x411;" horiz-adv-x="595" 
d="M114 637l-89 37v26h476v-172h-38l-47 130h-203v-266h83c68 0 118 -3 173 -39c23 -15 81 -60 81 -165c0 -43 -14 -98 -59 -137c-61 -53 -127 -51 -177 -51h-289v26l89 37v574zM213 42h74c31 0 90 3 127 53c8 11 28 41 28 97c0 73 -33 111 -56 127c-27 19 -67 29 -100 29
h-73v-306z" />
    <glyph glyph-name="afii10019" unicode="&#x412;" horiz-adv-x="599" 
d="M114 637l-89 37v26h287c74 0 117 -13 152 -40c51 -40 59 -98 59 -127c0 -36 -11 -74 -38 -105c-20 -24 -61 -58 -135 -67c61 -2 99 -20 118 -31c29 -17 86 -58 86 -149c0 -28 -8 -89 -59 -132c-56 -47 -128 -49 -181 -49h-289v26l89 37v574zM213 377h73c43 0 73 21 93 46
c28 34 35 72 35 99c0 35 -10 71 -29 94c-29 36 -70 42 -97 42h-75v-281zM213 42h74c28 0 91 2 130 51c16 20 28 51 28 92c0 67 -33 102 -56 119c-29 21 -69 29 -103 29h-73v-291z" />
    <glyph glyph-name="afii10020" unicode="&#x413;" horiz-adv-x="500" 
d="M500 528h-38l-47 130h-203v-595l110 -37v-26h-297v26l88 37v574l-88 37v26h475v-172z" />
    <glyph glyph-name="afii10021" unicode="&#x414;" horiz-adv-x="665" 
d="M120 700h520v-26l-91 -36v-584h91v-225h-38l-62 171h-450l-62 -171h-38v225h83c32 52 55 101 74 150c20 51 35 101 47 157c9 45 25 140 29 188l8 89l-111 27v35zM450 646h-157l-7 -81c-3 -34 -9 -94 -15 -137c-8 -55 -18 -107 -34 -162c-12 -42 -27 -81 -43 -118
c-13 -28 -28 -60 -48 -94h304v592z" />
    <glyph glyph-name="afii10022" unicode="&#x415;" horiz-adv-x="586" 
d="M541 161l-16 -161h-500v26l89 37v574l-89 37v26h496v-156h-35l-49 114h-224v-282h189l35 94h32v-229h-32l-35 93h-189v-287h230l63 114h35z" />
    <glyph glyph-name="afii10024" unicode="&#x416;" horiz-adv-x="951" 
d="M337 674v26h276v-26l-88 -36v-245h30c25 0 56 3 81 18c30 18 42 48 52 74c23 61 23 65 38 103c14 36 34 79 68 102c14 9 37 20 71 20c16 0 42 -3 55 -4v-129h-59l-37 70c-11 -5 -17 -11 -25 -26s-18 -41 -25 -61c-7 -22 -26 -84 -46 -126c-11 -23 -29 -54 -69 -66
c22 -5 47 -15 72 -34c31 -24 55 -60 68 -92l70 -179l78 -37v-26h-157l-92 236c-15 38 -36 67 -61 83c-23 14 -55 21 -88 21h-24v-277l88 -37v-26h-276v26l89 37v277h-24c-33 0 -65 -7 -88 -21c-25 -16 -46 -45 -61 -83l-92 -236h-157v26l78 37l70 179c13 32 37 68 68 92
c25 19 50 29 72 34c-40 12 -58 43 -69 66c-20 42 -39 104 -46 126c-7 20 -17 46 -25 61s-14 21 -25 26l-37 -70h-59v129c13 1 39 4 55 4c34 0 57 -11 71 -20c34 -23 54 -66 68 -102c15 -38 15 -42 38 -103c10 -26 22 -56 52 -74c25 -15 56 -18 81 -18h30v245z" />
    <glyph glyph-name="afii10025" unicode="&#x417;" horiz-adv-x="532" 
d="M54 527v149l33 8c48 12 109 26 163 26c104 0 152 -31 175 -53c29 -28 52 -72 52 -119c0 -50 -23 -95 -56 -123c-26 -22 -68 -42 -98 -51c34 -5 75 -19 105 -41c48 -34 69 -86 69 -132s-21 -101 -58 -136c-50 -48 -140 -65 -207 -65c-32 0 -66 5 -92 10
c-22 4 -52 13 -71 19l-34 11v147h38l59 -122l16 -3c15 -3 65 -5 79 -5c41 0 94 12 126 44c18 18 37 51 37 105c0 51 -21 86 -44 105c-25 21 -71 36 -108 34l-45 -13h-26v72h26l45 -11c50 -1 81 21 100 43c21 24 34 61 34 104c0 60 -29 91 -54 108c-34 23 -72 22 -103 22
c-22 0 -43 -1 -71 -5l-49 -128h-41z" />
    <glyph glyph-name="afii10026" unicode="&#x418;" horiz-adv-x="767" 
d="M742 0h-276v26l89 37v472l-342 -447v-25l88 -37v-26h-276v26l89 37v575l-89 36v26h276v-26l-88 -36v-472l342 447v25l-89 36v26h276v-26l-88 -36v-575l88 -37v-26z" />
    <glyph glyph-name="afii10027" unicode="&#x419;" horiz-adv-x="767" 
d="M467 836v88c10 4 23 7 35 7c14 0 31 -4 40 -13c12 -11 14 -27 14 -39c0 -36 -15 -56 -45 -74c-36 -22 -88 -33 -128 -33s-92 11 -128 33c-30 18 -45 38 -45 74c0 12 2 28 14 39c9 9 26 13 40 13c12 0 25 -3 35 -7v-88c25 -12 58 -17 84 -17s59 5 84 17zM742 0h-276v26
l89 37v472l-342 -447v-25l88 -37v-26h-276v26l89 37v575l-89 36v26h276v-26l-88 -36v-472l342 447v25l-89 36v26h276v-26l-88 -36v-575l88 -37v-26z" />
    <glyph glyph-name="afii10028" unicode="&#x41a;" horiz-adv-x="675" 
d="M213 638v-245h55c25 0 56 3 81 18c30 18 42 48 52 74c23 61 23 65 38 103c14 36 34 79 68 102c14 9 37 20 71 20c16 0 44 -3 57 -4v-129h-59l-37 70c-11 -5 -17 -11 -25 -26s-18 -41 -25 -61c-7 -22 -26 -84 -46 -126c-11 -23 -29 -54 -69 -66c22 -5 47 -15 72 -34
c31 -24 55 -60 68 -92l70 -179l78 -37v-26h-159l-92 236c-15 38 -36 67 -61 83c-23 14 -55 21 -88 21h-49v-277l88 -37v-26h-276v26l89 37v575l-89 36v26h276v-26z" />
    <glyph glyph-name="afii10029" unicode="&#x41b;" horiz-adv-x="680" 
d="M655 0h-276v26l89 37v583h-153l-10 -105c-6 -66 -22 -211 -36 -283c-22 -113 -55 -165 -68 -183c-16 -23 -42 -48 -67 -63c-32 -18 -68 -22 -91 -22c-17 0 -38 1 -53 3v125h59l45 -68c23 11 56 34 88 123c16 43 29 100 44 207c7 46 17 129 27 260l-91 35v25h493v-26
l-88 -36v-575l88 -37v-26z" />
    <glyph glyph-name="afii10030" unicode="&#x41c;" horiz-adv-x="875" 
d="M850 0h-276v26l88 37v518l-237 -591h-21l-234 591v-518l89 -37v-26h-234v26l88 37v574l-88 37v26h206l209 -526l211 526h199v-26l-89 -37v-574l89 -37v-26z" />
    <glyph glyph-name="afii10031" unicode="&#x41d;" horiz-adv-x="750" 
d="M725 0h-276v26l89 37v276h-325v-276l88 -37v-26h-276v26l89 37v575l-89 36v26h276v-26l-88 -36v-245h325v245l-89 36v26h276v-26l-88 -36v-575l88 -37v-26z" />
    <glyph glyph-name="afii10032" unicode="&#x41e;" horiz-adv-x="728" 
d="M372 710c129 0 196 -60 227 -94c63 -69 89 -153 89 -256c0 -118 -38 -211 -98 -276c-52 -56 -128 -100 -237 -100c-72 0 -158 20 -225 92c-54 58 -88 140 -88 252c0 131 46 230 112 295c61 60 135 87 220 87zM360 663c-41 0 -111 -11 -159 -88c-38 -61 -52 -143 -52 -223
c0 -129 34 -201 62 -240c50 -70 117 -81 154 -81c75 0 120 38 146 72c59 75 68 170 68 241c0 50 -6 139 -48 215c-49 87 -122 104 -171 104z" />
    <glyph glyph-name="afii10033" unicode="&#x41f;" horiz-adv-x="738" 
d="M713 0h-276v26l89 37v583h-313v-583l88 -37v-26h-276v26l89 37v575l-89 36v26h688v-26l-88 -36v-575l88 -37v-26z" />
    <glyph glyph-name="afii10034" unicode="&#x420;" horiz-adv-x="553" 
d="M25 700h265c85 0 142 -12 188 -53c48 -42 60 -94 60 -142c0 -70 -27 -123 -76 -159c-61 -45 -133 -50 -176 -50h-73v-234l109 -36v-26h-297v26l89 36v575l-89 37v26zM213 338h48c70 0 173 20 173 163c0 84 -35 157 -149 157h-72v-320z" />
    <glyph glyph-name="afii10035" unicode="&#x421;" horiz-adv-x="656" 
d="M621 182l-13 -156c-61 -17 -88 -23 -103 -26c-50 -9 -95 -10 -120 -10c-80 0 -181 8 -260 93c-48 52 -85 133 -85 244c0 109 36 216 110 289c77 75 173 94 271 94c54 0 119 -5 193 -24v-158h-38l-49 131c-25 3 -56 5 -83 5c-81 0 -160 -18 -220 -80
c-41 -42 -80 -113 -80 -240c0 -49 5 -138 61 -210c55 -71 136 -87 224 -87c5 0 31 0 75 3l16 1l65 131h36z" />
    <glyph glyph-name="afii10036" unicode="&#x422;" horiz-adv-x="592" 
d="M586 528h-37l-48 125h-153v-590l109 -37v-26h-317v26l109 37v590h-157l-48 -125h-38v172h580v-172z" />
    <glyph glyph-name="afii10037" unicode="&#x423;" horiz-adv-x="622" 
d="M-12 700h262v-26l-72 -36l125 -261l45 -105l144 366l-78 36v26h233v-26l-79 -36l-206 -474c-37 -84 -68 -119 -90 -136c-30 -24 -69 -39 -119 -39c-21 0 -55 3 -70 5v129h66l45 -75c18 6 35 16 49 32s27 41 34 59l13 34l-222 465l-80 36v26z" />
    <glyph glyph-name="afii10038" unicode="&#x424;" horiz-adv-x="765" 
d="M333 662l-88 36v26h275v-26l-88 -36v-54c77 -1 150 -11 207 -54c59 -44 91 -116 91 -189c0 -74 -31 -134 -69 -170c-62 -59 -162 -74 -229 -74v-58l88 -37v-26h-275v26l88 37v58c-67 0 -167 15 -229 74c-38 36 -69 96 -69 170c0 73 32 145 91 189c57 43 130 53 207 54v54
zM432 562v-395c58 2 112 10 150 57c33 41 39 94 39 139c0 49 -3 109 -50 155c-35 34 -81 46 -139 44zM333 167v395c-58 2 -104 -10 -139 -44c-47 -46 -50 -106 -50 -155c0 -45 6 -98 39 -139c38 -47 92 -55 150 -57z" />
    <glyph glyph-name="afii10039" unicode="&#x425;" horiz-adv-x="643" 
d="M648 0h-276v26l81 37l-153 236l-149 -236l78 -37v-26h-234v26l79 37l195 285l-180 289l-78 37v26h265v-26l-71 -37l135 -212l139 212l-71 37v26h219v-26l-80 -37l-179 -258l202 -316l78 -37v-26z" />
    <glyph glyph-name="afii10040" unicode="&#x426;" horiz-adv-x="738" 
d="M713 700v-26l-88 -37v-583h88v-225h-38l-62 171h-588v26l89 36v575l-89 37v26h276v-26l-88 -37v-583h313v583l-89 37v26h276z" />
    <glyph glyph-name="afii10041" unicode="&#x427;" horiz-adv-x="682" 
d="M657 0h-296v26l109 37v245c-22 -7 -47 -12 -69 -16c-32 -5 -67 -8 -95 -8c-38 0 -93 4 -133 24c-46 23 -87 74 -87 164v166l-90 36v26h277v-26l-88 -36v-145c0 -26 0 -81 33 -116c20 -21 59 -39 134 -39c23 0 66 2 118 15v285l-88 36v26h275v-26l-88 -36v-575l88 -37v-26
z" />
    <glyph glyph-name="afii10042" unicode="&#x428;" horiz-adv-x="1024" 
d="M642 700v-26l-80 -37v-583h250v583l-80 37v26h267v-26l-88 -37v-575l88 -36v-26h-974v26l89 36v575l-89 37v26h268v-26l-80 -37v-583h250v583l-80 37v26h259z" />
    <glyph glyph-name="afii10043" unicode="&#x429;" horiz-adv-x="1024" 
d="M642 700v-26l-80 -37v-583h250v583l-80 37v26h267v-26l-88 -37v-583h88v-225h-38l-62 171h-874v26l89 36v575l-89 37v26h268v-26l-80 -37v-583h250v583l-80 37v26h259z" />
    <glyph glyph-name="afii10044" unicode="&#x42a;" horiz-adv-x="692" 
d="M439 674l-104 -36v-246h83c68 0 118 -3 173 -39c23 -15 81 -60 81 -165c0 -43 -14 -98 -59 -137c-61 -53 -127 -51 -177 -51h-289v26l89 37v595h-141l-47 -130h-38v172h429v-26zM335 42h74c31 0 90 3 127 53c8 11 28 41 28 97c0 73 -33 111 -56 127
c-27 19 -67 29 -100 29h-73v-306z" />
    <glyph glyph-name="afii10045" unicode="&#x42b;" horiz-adv-x="886" 
d="M114 637l-89 37v26h292v-26l-104 -36v-246h83c68 0 118 -3 173 -39c23 -15 81 -60 81 -165c0 -43 -14 -98 -59 -137c-61 -53 -127 -51 -177 -51h-289v26l89 37v574zM213 42h74c31 0 90 3 127 53c8 11 28 41 28 97c0 73 -33 111 -56 127c-27 19 -67 29 -100 29h-73v-306z
M585 700h276v-26l-88 -36v-575l88 -37v-26h-276v26l89 37v575l-89 36v26z" />
    <glyph glyph-name="afii10046" unicode="&#x42c;" horiz-adv-x="570" 
d="M114 637l-89 37v26h292v-26l-104 -36v-246h83c68 0 118 -3 173 -39c23 -15 81 -60 81 -165c0 -43 -14 -98 -59 -137c-61 -53 -127 -51 -177 -51h-289v26l89 37v574zM213 42h74c31 0 90 3 127 53c8 11 28 41 28 97c0 73 -33 111 -56 127c-27 19 -67 29 -100 29h-73v-306z
" />
    <glyph glyph-name="afii10047" unicode="&#x42d;" horiz-adv-x="669" 
d="M48 174h36l65 -123l16 -1c8 -1 10 -1 27 -2c29 0 17 0 34 -1h14c79 2 163 17 222 91c50 62 61 148 63 196h-257l-35 -93h-32v229h32l35 -94h257c1 86 -33 168 -79 216c-68 71 -161 72 -221 72c-26 0 -50 -1 -83 -5l-49 -131h-38v158c66 12 151 24 221 24
c103 0 199 -20 268 -94c37 -40 85 -116 85 -241c0 -85 -20 -206 -110 -292c-58 -55 -140 -93 -253 -93c-51 0 -94 9 -129 16c-30 6 -52 11 -81 20z" />
    <glyph glyph-name="afii10048" unicode="&#x42e;" horiz-adv-x="1023" 
d="M213 393h140c16 152 121 317 319 317c179 0 311 -134 311 -350s-132 -376 -330 -376c-257 0 -305 235 -304 355h-136v-276l88 -37v-26h-276v26l89 37v575l-89 36v26h276v-26l-88 -36v-245zM660 663c-68 0 -206 -38 -206 -311c0 -197 83 -321 211 -321
c126 0 209 122 209 313c0 237 -111 319 -214 319z" />
    <glyph glyph-name="afii10049" unicode="&#x42f;" horiz-adv-x="626" 
d="M601 0h-276v26l89 37v263h-34c-27 0 -59 -2 -88 -21c-25 -16 -46 -45 -61 -83l-86 -222h-159v26l78 37l65 165c10 26 40 67 68 86c26 18 64 30 91 34c-78 6 -127 43 -130 46c-32 25 -62 69 -62 127c0 46 19 102 70 137c45 31 113 42 162 42h273v-26l-88 -36v-575l88 -37
v-26zM414 372v283h-73c-29 0 -66 -6 -96 -32c-22 -20 -41 -52 -41 -103c0 -53 20 -86 38 -105c37 -39 85 -43 113 -43h59z" />
    <glyph glyph-name="afii10065" unicode="&#x430;" horiz-adv-x="513" 
d="M509 27l-76 -25c-13 -4 -34 -7 -46 -7c-18 0 -52 4 -58 50l-6 -3c-12 -6 -29 -15 -48 -23c-27 -12 -37 -16 -44 -18c-14 -4 -31 -6 -45 -6c-30 0 -75 6 -109 38c-28 26 -37 59 -37 89c0 40 16 66 33 82c10 10 32 27 77 38c41 10 114 17 146 20l30 3v119
c0 32 -1 62 -44 76c-13 4 -40 11 -89 7l-44 -87h-62v95l68 17c42 10 76 18 115 18c20 0 66 0 108 -28c33 -22 42 -52 42 -95v-282c0 -19 2 -24 5 -27c5 -6 10 -8 25 -12l59 -17v-22zM326 66v170l-39 -6c-18 -3 -60 -11 -71 -14c-26 -7 -41 -16 -49 -23
c-17 -15 -23 -35 -23 -57c0 -27 11 -46 25 -59c24 -22 56 -25 80 -25c14 0 38 1 71 12z" />
    <glyph glyph-name="afii10066" unicode="&#x431;" horiz-adv-x="569" 
d="M488 780l25 -10l-15 -43c-13 -36 -21 -66 -48 -83c-12 -8 -34 -17 -95 -27l-79 -13c-62 -10 -105 -22 -135 -68c-25 -37 -38 -97 -40 -129l-2 -31h4c18 42 45 71 83 93c40 24 81 31 121 31c70 0 118 -29 150 -58c40 -37 77 -97 77 -193c0 -93 -36 -153 -67 -187
c-29 -32 -88 -78 -184 -78c-71 0 -132 30 -171 74c-37 42 -67 114 -67 232c0 66 10 182 48 264c28 60 76 116 177 136l110 22c29 6 46 11 58 17c15 8 29 25 35 32zM285 453c-28 0 -63 -8 -90 -40c-44 -51 -46 -130 -46 -165c0 -44 6 -102 30 -147c31 -59 81 -70 115 -70
c55 0 136 30 136 200c0 166 -74 222 -145 222z" />
    <glyph glyph-name="afii10067" unicode="&#x432;" horiz-adv-x="544" 
d="M21 500h263c67 0 105 -11 128 -23c44 -22 63 -57 63 -99c0 -57 -35 -82 -58 -94c-25 -13 -52 -21 -80 -24v-3c42 0 94 -13 121 -34c21 -16 41 -43 41 -85c0 -49 -23 -81 -60 -105c-51 -32 -101 -33 -147 -33h-271v26l88 37v374l-88 37v26zM204 235v-190h69
c22 0 65 1 94 28c22 20 27 46 27 67c0 23 -4 53 -34 74c-32 22 -82 21 -126 21h-30zM204 455v-182h25c43 0 89 0 118 27c12 12 26 33 26 68c0 18 -4 47 -30 67c-23 18 -52 20 -75 20h-64z" />
    <glyph glyph-name="afii10068" unicode="&#x433;" horiz-adv-x="444" 
d="M109 437l-88 37v26h423v-154h-32l-51 107h-157v-390l105 -37v-26h-288v26l88 37v374z" />
    <glyph glyph-name="afii10069" unicode="&#x434;" horiz-adv-x="541" 
d="M520 500v-26l-88 -37v-390h88v-200h-39l-52 153h-355l-52 -153h-40v200h65c32 50 56 102 72 149c18 51 33 117 39 183l5 58l-90 37v26h447zM337 453h-117l-5 -62c-6 -76 -17 -141 -44 -220c-16 -47 -34 -85 -58 -124h224v406z" />
    <glyph glyph-name="afii10070" unicode="&#x435;" horiz-adv-x="510" 
d="M470 269h-330c-3 -88 25 -133 48 -159c26 -28 66 -57 148 -57c14 0 50 1 120 12l6 -34l-69 -21c-21 -6 -70 -20 -118 -20c-76 0 -133 20 -179 73c-47 54 -61 119 -61 177c0 41 8 138 81 208c24 23 74 62 159 62c74 0 123 -32 150 -65c40 -48 42 -107 44 -152zM141 301
l224 21c1 42 -4 92 -35 122c-21 20 -45 24 -65 24c-46 0 -76 -19 -98 -61c-22 -43 -26 -99 -26 -106z" />
    <glyph glyph-name="afii10072" unicode="&#x436;" horiz-adv-x="803" 
d="M266 500h260v-26l-77 -37v-152h35c53 0 71 38 80 57c10 22 20 45 35 81c10 25 22 51 48 68c21 14 50 19 74 19c8 0 15 0 45 -2v-113h-54l-30 60c-21 -12 -27 -28 -38 -58c-4 -12 -18 -46 -23 -59c-7 -17 -14 -32 -26 -46c-11 -12 -22 -20 -40 -24c25 -4 50 -14 71 -29
c31 -22 42 -45 52 -70l42 -106l73 -33v-30h-148l-60 153c-11 28 -22 51 -47 69c-23 17 -42 19 -62 19h-27v-178l77 -37v-26h-260v26l88 37v178h-27c-20 0 -39 -2 -62 -19c-25 -18 -36 -41 -47 -69l-60 -153h-148v30l73 33l42 106c10 25 21 48 52 70c21 15 46 25 71 29
c-18 4 -29 12 -40 24c-12 14 -19 29 -26 46c-5 13 -19 47 -23 59c-11 30 -17 46 -38 58l-30 -60h-54v113c30 2 37 2 45 2c24 0 53 -5 74 -19c26 -17 38 -43 48 -68c15 -36 25 -59 35 -81c9 -19 27 -57 80 -57h35v152l-88 37v26z" />
    <glyph glyph-name="afii10073" unicode="&#x437;" horiz-adv-x="446" 
d="M50 375v113l34 7c27 6 70 15 136 15c40 0 92 -2 132 -34c33 -27 43 -61 43 -85c0 -62 -39 -91 -63 -104c-18 -10 -35 -16 -57 -19v-3c37 -2 75 -15 102 -38c25 -21 38 -48 38 -86c0 -51 -25 -88 -68 -115c-58 -35 -132 -36 -148 -36c-31 0 -65 5 -91 10
c-25 5 -50 12 -76 21v121h48l48 -96c24 -4 36 -5 53 -5c22 0 63 1 93 25c20 16 36 43 36 78c0 39 -18 63 -35 75c-19 14 -49 22 -76 21l-37 -12h-23v65h23l38 -12c29 1 54 13 69 28c20 20 26 45 26 71c0 77 -60 85 -92 85c-22 0 -40 -3 -69 -7l-40 -83h-44z" />
    <glyph glyph-name="afii10074" unicode="&#x438;" horiz-adv-x="647" 
d="M204 63l77 -37v-26h-260v26l88 37v374l-88 37v26h260v-26l-77 -37v-291l239 276v15l-77 37v26h260v-26l-88 -37v-374l88 -37v-26h-260v26l77 37v291l-239 -276v-15z" />
    <glyph glyph-name="afii10075" unicode="&#x439;" horiz-adv-x="647" 
d="M204 63l77 -37v-26h-260v26l88 37v374l-88 37v26h260v-26l-77 -37v-291l239 276v15l-77 37v26h260v-26l-88 -37v-374l88 -37v-26h-260v26l77 37v291l-239 -276v-15zM401 647v86c4 2 16 7 31 7c12 0 27 -5 36 -13c12 -11 13 -25 13 -38c0 -31 -8 -52 -41 -74
c-32 -21 -76 -31 -117 -31c-40 0 -84 10 -116 31c-33 22 -41 43 -41 74c0 13 1 27 13 38c9 8 24 13 36 13c15 0 27 -5 31 -7v-86c27 -16 61 -18 77 -18c17 0 51 2 78 18z" />
    <glyph glyph-name="afii10076" unicode="&#x43a;" horiz-adv-x="596" 
d="M21 500h260v-26l-77 -37v-152h63c53 0 71 38 80 57c10 22 20 45 35 81c10 25 22 51 48 68c21 14 50 19 74 19c9 0 20 -1 47 -2v-113h-54l-30 60c-21 -12 -27 -28 -38 -58c-4 -12 -18 -46 -23 -59c-7 -17 -14 -32 -26 -46c-11 -12 -22 -20 -40 -24c25 -4 50 -14 71 -29
c31 -22 42 -45 52 -70l42 -106l73 -33v-30h-150l-60 153c-11 28 -22 51 -47 69c-25 19 -46 19 -68 19h-49v-178l77 -37v-26h-260v26l88 37v374l-88 37v26z" />
    <glyph glyph-name="afii10077" unicode="&#x43b;" horiz-adv-x="556" 
d="M352 453h-124l-5 -81c-5 -86 -14 -145 -22 -188c-9 -47 -26 -116 -74 -158c-28 -25 -60 -36 -96 -36c-16 0 -34 1 -51 4v109h57l35 -63c11 7 19 14 27 25c17 21 24 40 31 61c15 46 20 92 25 134s9 91 11 127l3 49l-87 36v28h453v-26l-88 -37v-374l88 -37v-26h-260v26
l77 37v390z" />
    <glyph glyph-name="afii10078" unicode="&#x43c;" horiz-adv-x="729" 
d="M227 500l138 -341l138 341h205v-26l-88 -37v-374l88 -37v-26h-260v26l77 37v356l-172 -423h-22l-171 421v-353l78 -36v-28h-218v26l88 37v374l-88 37v26h207z" />
    <glyph glyph-name="afii10079" unicode="&#x43d;" horiz-adv-x="632" 
d="M204 63l77 -37v-26h-260v26l88 37v374l-88 37v26h260v-26l-77 -37v-152h224v152l-77 37v26h260v-26l-88 -37v-374l88 -37v-26h-260v26l77 37v175h-224v-175z" />
    <glyph glyph-name="afii10080" unicode="&#x43e;" horiz-adv-x="559" 
d="M287 510c94 0 145 -43 170 -70c50 -54 67 -120 67 -185c0 -81 -29 -143 -68 -188c-33 -38 -89 -83 -183 -83c-78 0 -133 30 -171 70c-54 57 -67 124 -67 184c0 58 13 132 66 193c55 62 127 79 186 79zM275 463c-48 0 -74 -22 -90 -41c-39 -48 -46 -116 -46 -169
c0 -77 16 -123 30 -150c31 -60 81 -72 115 -72c28 0 79 9 109 68c6 11 27 55 27 137c0 52 -9 118 -35 162c-28 47 -67 65 -110 65z" />
    <glyph glyph-name="afii10081" unicode="&#x43f;" horiz-adv-x="623" 
d="M204 63l77 -37v-26h-260v26l88 37v374l-88 37v26h581v-26l-88 -37v-374l88 -37v-26h-260v26l77 37v390h-215v-390z" />
    <glyph glyph-name="afii10082" unicode="&#x440;" horiz-adv-x="592" 
d="M202 515v-64c18 10 27 14 68 33c49 23 79 26 94 26c85 0 193 -80 193 -237c0 -51 -12 -127 -74 -194c-74 -79 -168 -89 -215 -89c-35 0 -59 5 -66 6v-166l110 -33v-26h-292v26l88 33v593l-88 27v24zM202 427v-387c12 -1 29 -3 41 -3h18c36 1 77 4 115 29
c63 41 82 118 82 179c0 56 -16 110 -50 147c-32 35 -72 50 -119 50c-37 0 -68 -8 -87 -15z" />
    <glyph glyph-name="afii10083" unicode="&#x441;" horiz-adv-x="475" 
d="M443 64l7 -33l-37 -12c-26 -8 -56 -17 -77 -21c-22 -4 -55 -8 -73 -8c-70 0 -130 28 -168 71c-34 38 -60 99 -60 177c0 118 58 181 96 212c52 41 118 60 186 60c61 0 107 -15 129 -23v-107h-63l-46 93c-40 4 -94 -4 -139 -48c-44 -43 -64 -98 -64 -161
c0 -70 22 -123 50 -155c45 -52 105 -58 144 -58c22 0 59 2 115 13z" />
    <glyph glyph-name="afii10084" unicode="&#x442;" horiz-adv-x="497" 
d="M296 453v-390l88 -37v-26h-271v26l88 37v390h-110l-51 -107h-32v154h481v-154h-32l-51 107h-110z" />
    <glyph glyph-name="afii10085" unicode="&#x443;" horiz-adv-x="506" 
d="M521 474l-59 -35l-219 -537c-15 -37 -33 -72 -68 -98c-32 -25 -67 -33 -111 -33c-17 0 -45 2 -68 5v99h63l32 -63c37 5 66 25 97 102l35 87l-179 445l-64 28v26h239v-26l-73 -28l95 -245c16 -40 25 -68 32 -96l121 334l-70 35v26h197v-26z" />
    <glyph glyph-name="afii10086" unicode="&#x444;" horiz-adv-x="738" 
d="M417 737v-259c29 23 64 32 94 32c31 0 83 -7 127 -55c39 -43 65 -112 65 -198c0 -84 -24 -159 -66 -208c-34 -40 -76 -59 -126 -59c-24 0 -61 4 -94 27v-187l89 -33v-26h-273v26l89 33v187c-14 -10 -44 -27 -94 -27c-58 0 -100 22 -133 62c-49 59 -59 132 -59 185
c0 96 27 173 69 218c31 33 77 55 123 55c30 0 65 -10 94 -32v167l-93 28v22zM417 447v-393c20 -12 42 -17 62 -17c51 0 80 26 97 66c19 43 22 115 22 146c0 22 0 125 -42 177c-25 31 -56 37 -80 37c-20 0 -42 -7 -59 -16zM322 54v393c-18 9 -39 16 -56 16
c-20 0 -55 -2 -83 -37c-42 -52 -42 -155 -42 -177c0 -33 4 -101 22 -145c17 -41 46 -67 97 -67c28 0 49 9 62 17z" />
    <glyph glyph-name="afii10087" unicode="&#x445;" horiz-adv-x="531" 
d="M539 0h-235v26l51 28l-109 153l-109 -148l48 -33v-26h-193v26l74 33l151 189l-136 200l-73 26v26h234v-26l-52 -26l95 -133l100 127l-49 32v26h182v-26l-65 -32l-140 -166l154 -222l72 -28v-26z" />
    <glyph glyph-name="afii10088" unicode="&#x446;" horiz-adv-x="621" 
d="M204 437v-390h212v390l-77 37v26h260v-26l-88 -37v-390h89v-203h-33l-59 156h-487v26l88 37v374l-88 37v26h260v-26z" />
    <glyph glyph-name="afii10089" unicode="&#x447;" horiz-adv-x="571" 
d="M295 500h255v-26l-88 -37v-374l88 -37v-26h-260v26l77 37v165c-16 -8 -35 -15 -57 -21c-30 -8 -54 -11 -82 -11s-84 3 -119 37c-31 30 -37 77 -37 119v85l-77 37v26h244v-26l-72 -37v-92c0 -19 2 -50 21 -70c19 -21 57 -28 88 -28c20 0 60 5 91 15v175l-72 37v26z" />
    <glyph glyph-name="afii10090" unicode="&#x448;" horiz-adv-x="873" 
d="M204 437v-390h185v390l-77 37v26h249v-26l-77 -37v-390h185v390l-77 37v26h260v-26l-88 -37v-374l88 -37v-26h-831v26l88 37v374l-88 37v26h260v-26z" />
    <glyph glyph-name="afii10091" unicode="&#x449;" horiz-adv-x="874" 
d="M204 437v-390h185v390l-77 37v26h249v-26l-77 -37v-390h185v390l-77 37v26h260v-26l-88 -37v-390h89v-203h-33l-59 156h-740v26l88 37v374l-88 37v26h260v-26z" />
    <glyph glyph-name="afii10092" unicode="&#x44a;" horiz-adv-x="610" 
d="M293 437v-148h87c155 0 202 -70 202 -144c0 -57 -29 -88 -43 -100c-26 -23 -76 -45 -160 -45h-269v26l88 37v390h-118l-51 -107h-32v154h373v-26zM293 247v-200h62c61 0 90 18 104 33c19 21 23 48 23 67c0 47 -19 68 -32 78c-30 22 -92 22 -103 22h-54z" />
    <glyph glyph-name="afii10093" unicode="&#x44b;" horiz-adv-x="805" 
d="M204 437v-148h87c50 0 116 -9 158 -43c27 -22 44 -55 44 -101c0 -57 -29 -88 -43 -100c-26 -23 -76 -45 -160 -45h-269v26l88 37v374l-88 37v26h260v-26zM524 500h260v-26l-88 -37v-374l88 -37v-26h-260v26l77 37v374l-77 37v26zM204 247v-200h62c61 0 90 18 104 33
c19 21 23 48 23 67c0 22 -4 57 -32 78c-29 22 -78 22 -103 22h-54z" />
    <glyph glyph-name="afii10094" unicode="&#x44c;" horiz-adv-x="521" 
d="M204 437v-148h87c50 0 116 -9 158 -43c27 -22 44 -55 44 -101c0 -57 -29 -88 -43 -100c-26 -23 -76 -45 -160 -45h-269v26l88 37v374l-88 37v26h260v-26zM204 247v-200h62c61 0 90 18 104 33c19 21 23 48 23 67c0 47 -19 68 -32 78c-30 22 -92 22 -103 22h-54z" />
    <glyph glyph-name="afii10095" unicode="&#x44d;" horiz-adv-x="503" 
d="M141 232v59l222 -10c-1 52 -24 106 -55 137c-30 29 -76 45 -119 45c-17 0 -37 -2 -52 -5l-41 -84h-46v114l35 8c17 4 69 14 121 14c58 0 130 -14 176 -48s86 -100 86 -201c0 -89 -34 -146 -60 -177c-59 -71 -145 -94 -215 -94c-38 0 -85 6 -158 30v118h47l49 -96
c22 -3 30 -5 48 -5c53 0 103 19 133 50c36 37 52 101 51 157z" />
    <glyph glyph-name="afii10096" unicode="&#x44e;" horiz-adv-x="811" 
d="M204 284h101c7 65 35 117 60 147c44 53 111 79 179 79c92 0 142 -44 166 -70c38 -42 66 -97 66 -185c0 -71 -19 -132 -67 -188c-33 -38 -86 -83 -179 -83c-75 0 -128 30 -164 70c-34 38 -67 101 -64 185h-98v-176l77 -37v-26h-260v26l88 37v374l-88 37v26h260v-26
l-77 -37v-153zM532 463c-51 0 -77 -29 -87 -41c-41 -51 -44 -135 -44 -169c0 -44 6 -105 29 -150c30 -60 79 -72 111 -72c26 0 76 10 105 68c19 38 26 94 26 137c0 59 -9 120 -34 162c-27 46 -64 65 -106 65z" />
    <glyph glyph-name="afii10097" unicode="&#x44f;" horiz-adv-x="555" 
d="M534 500v-26l-88 -37v-374l88 -37v-26h-260v26l77 37v159h-14c-31 0 -69 3 -100 -19c-24 -17 -37 -43 -47 -69l-53 -134h-147v30l73 33l31 78c11 27 20 49 53 71c24 16 51 25 74 28v3c-32 1 -71 11 -99 30c-41 28 -50 67 -50 93c0 33 13 79 64 107c35 20 89 27 132 27
h266zM351 453h-64c-22 0 -52 -1 -77 -17c-34 -21 -38 -56 -38 -76c0 -42 23 -64 40 -74c26 -17 64 -20 118 -20h21v187z" />
    <glyph glyph-name="afii10071" unicode="&#x451;" horiz-adv-x="510" 
d="M470 269h-330c-3 -88 25 -133 48 -159c26 -28 66 -57 148 -57c14 0 50 1 120 12l6 -34l-69 -21c-21 -6 -70 -20 -118 -20c-76 0 -133 20 -179 73c-47 54 -61 119 -61 177c0 41 8 138 81 208c24 23 74 62 159 62c74 0 123 -32 150 -65c40 -48 42 -107 44 -152zM141 301
l224 21c1 42 -4 92 -35 122c-21 20 -45 24 -65 24c-46 0 -76 -19 -98 -61c-22 -43 -26 -99 -26 -106zM300 641c0 49 33 52 48 52c48 0 51 -32 51 -47c0 -12 -1 -52 -50 -52c-48 0 -49 37 -49 47zM167 693c48 0 50 -40 50 -50c0 -48 -37 -49 -50 -49c-46 0 -49 31 -49 46
c0 12 1 53 49 53z" />
    <glyph glyph-name="afii10099" unicode="&#x452;" horiz-adv-x="602" 
d="M208 383v-320l88 -37v-26h-270v26l88 37v471h-94v42h94v69l-94 27v23l188 42v-161h190v-42h-190v-126l77 30c39 15 60 22 93 22c38 0 76 -8 111 -45c26 -28 37 -58 37 -121v-302c0 -89 -27 -132 -68 -169c-35 -31 -74 -52 -143 -52c-20 0 -47 2 -70 5v99h66l33 -65
c23 5 45 18 59 33c26 30 29 72 29 108v324c0 30 -4 71 -42 95c-20 13 -48 19 -91 19c-17 0 -56 -1 -91 -6z" />
    <glyph glyph-name="afii10100" unicode="&#x453;" horiz-adv-x="444" 
d="M109 437l-88 37v26h423v-154h-32l-51 107h-157v-390l105 -37v-26h-288v26l88 37v374zM349 724l-200 -151h-53l109 151h144z" />
    <glyph glyph-name="afii10101" unicode="&#x454;" horiz-adv-x="493" 
d="M362 230l-222 9c-1 -48 13 -113 51 -152c30 -31 80 -50 133 -50c18 0 26 2 48 5l53 96h43l-7 -118c-71 -27 -125 -30 -157 -30c-102 0 -167 32 -203 68c-31 31 -66 87 -66 173c0 98 32 171 81 215c38 34 99 64 188 64c45 0 94 -9 114 -14l35 -8v-114h-46l-41 84
c-4 1 -24 5 -52 5c-53 0 -93 -20 -119 -45c-32 -31 -53 -83 -55 -133l222 8v-63z" />
    <glyph glyph-name="afii10102" unicode="&#x455;" horiz-adv-x="423" 
d="M198 327l82 -46c33 -18 56 -33 74 -65c9 -16 19 -43 19 -74c0 -39 -15 -82 -50 -113c-22 -19 -58 -40 -114 -40c-24 0 -50 4 -73 8c-32 6 -57 13 -86 22v115h44l48 -93c8 -2 25 -5 47 -5c24 0 49 4 69 16c26 16 32 35 32 58c0 13 -2 24 -9 36c-7 10 -19 22 -44 36l-95 55
c-41 24 -58 48 -66 60c-9 14 -21 35 -21 72c0 66 37 101 59 115c23 15 56 26 104 26c28 0 75 -8 102 -15l37 -10v-105h-44l-42 85c-14 3 -32 4 -44 4c-38 0 -58 -11 -62 -13c-15 -8 -32 -25 -32 -55c0 -29 19 -48 65 -74z" />
    <glyph glyph-name="afii10103" unicode="&#x456;" horiz-adv-x="311" 
d="M296 0h-271v26l89 37v362l-89 27v23l183 40v-452l88 -37v-26zM162 734c12 0 30 -2 43 -11c15 -11 18 -29 18 -41c0 -15 -3 -31 -17 -43s-32 -14 -46 -14c-16 0 -33 2 -47 15c-9 8 -15 20 -15 42c0 24 11 35 17 40c15 12 38 12 47 12z" />
    <glyph glyph-name="afii10104" unicode="&#x457;" horiz-adv-x="311" 
d="M296 0h-271v26l89 37v360l-89 27v23l183 40v-450l88 -37v-26zM19 640c0 18 6 33 14 41c5 5 15 12 35 12c17 0 29 -5 36 -12c9 -8 14 -22 14 -38c0 -14 -4 -28 -12 -36c-11 -12 -29 -13 -38 -13c-14 0 -29 2 -39 14c-8 9 -10 21 -10 32zM201 640c0 18 6 33 14 41
c5 5 15 12 35 12c17 0 29 -5 36 -12c9 -8 14 -22 14 -38c0 -14 -4 -28 -12 -36c-11 -12 -29 -13 -38 -13c-14 0 -29 2 -39 14c-8 9 -10 21 -10 32z" />
    <glyph glyph-name="afii10105" unicode="&#x458;" horiz-adv-x="312" 
d="M176 734c12 0 30 -2 43 -11c15 -11 18 -29 18 -41c0 -15 -3 -31 -17 -43s-32 -14 -46 -14c-16 0 -33 2 -47 15c-9 8 -15 20 -15 42c0 24 11 35 17 40c15 12 38 12 47 12zM221 513v-521c0 -89 -27 -132 -68 -169c-35 -31 -74 -52 -143 -52c-20 0 -47 2 -70 5v99h66l33 -65
c23 5 45 18 59 33c26 30 29 72 29 108v473l-88 25v24z" />
    <glyph glyph-name="afii10106" unicode="&#x459;" horiz-adv-x="764" 
d="M447 247v-200h62c115 0 127 63 127 100c0 85 -56 100 -135 100h-54zM447 437v-143h87c176 0 202 -91 202 -149c0 -57 -29 -145 -203 -145h-269v26l88 37v390h-124l-5 -81c-5 -86 -14 -145 -22 -188c-9 -47 -26 -116 -74 -158c-28 -25 -60 -36 -96 -36c-16 0 -34 1 -51 4
v109h57l35 -63c11 7 19 14 27 25c17 21 24 40 31 61c15 46 20 92 25 134s9 91 11 127l3 49l-87 36v28h442v-26z" />
    <glyph glyph-name="afii10107" unicode="&#x45a;" horiz-adv-x="840" 
d="M523 437v-147h87c49 0 117 -9 158 -43c21 -18 44 -50 44 -102c0 -44 -18 -78 -43 -100c-26 -23 -76 -45 -160 -45h-269v26l88 37v180h-224v-180l77 -37v-26h-260v26l88 37v374l-88 37v26h260v-26l-77 -37v-147h224v147l-88 37v26h260v-26zM523 243v-196h62
c61 0 90 18 104 33c12 12 23 33 23 67c0 38 -14 61 -33 75c-26 18 -67 21 -102 21h-54z" />
    <glyph glyph-name="afii10108" unicode="&#x45b;" horiz-adv-x="624" 
d="M614 0h-182v275c0 30 -4 71 -42 95c-20 13 -48 19 -91 19c-17 0 -56 -1 -91 -6v-320l88 -37v-26h-270v26l88 37v471h-94v42h94v69l-94 27v23l188 42v-161h190v-42h-190v-126l77 30c39 15 60 22 93 22c38 0 76 -8 111 -45c26 -28 37 -58 37 -121v-231l88 -37v-26z" />
    <glyph glyph-name="afii10109" unicode="&#x45c;" horiz-adv-x="596" 
d="M21 500h260v-26l-77 -37v-152h63c53 0 71 38 80 57c10 22 20 45 35 81c10 25 22 51 48 68c21 14 50 19 74 19c9 0 20 -1 47 -2v-113h-54l-30 60c-21 -12 -27 -28 -38 -58c-4 -12 -18 -46 -23 -59c-7 -17 -14 -32 -26 -46c-11 -12 -22 -20 -40 -24c25 -4 50 -14 71 -29
c31 -22 42 -45 52 -70l42 -106l73 -33v-30h-150l-60 153c-11 28 -22 51 -47 69c-25 19 -46 19 -68 19h-49v-178l77 -37v-26h-260v26l88 37v374l-88 37v26zM423 724l-200 -151h-53l109 151h144z" />
    <glyph glyph-name="afii10110" unicode="&#x45e;" horiz-adv-x="506" 
d="M521 474l-59 -35l-219 -537c-15 -37 -33 -72 -68 -98c-32 -25 -67 -33 -111 -33c-17 0 -45 2 -68 5v99h63l32 -63c37 5 66 25 97 102l35 87l-179 445l-64 28v26h239v-26l-73 -28l95 -245c16 -40 25 -68 32 -96l121 334l-70 35v26h197v-26zM349 648v86c4 2 16 7 31 7
c12 0 27 -5 36 -13c12 -11 13 -25 13 -38c0 -31 -8 -52 -41 -74c-32 -21 -76 -31 -117 -31c-40 0 -84 10 -116 31c-33 22 -41 43 -41 74c0 13 1 27 13 38c9 8 24 13 36 13c15 0 27 -5 31 -7v-86c27 -16 61 -18 77 -18c17 0 51 2 78 18z" />
    <glyph glyph-name="afii10193" unicode="&#x45f;" horiz-adv-x="623" 
d="M204 437v-390h215v390l-77 37v26h260v-26l-88 -37v-374l88 -37v-26h-272l23 -155v-17h-85v17l23 155h-270v26l88 37v374l-88 37v26h260v-26z" />
    <glyph glyph-name="afii10050" unicode="&#x490;" horiz-adv-x="500" 
d="M212 63l110 -37v-26h-297v26l88 37v574l-88 37v26h382l55 114h38v-169h-29l-113 13h-146v-595z" />
    <glyph glyph-name="afii10098" unicode="&#x491;" horiz-adv-x="438" 
d="M109 437l-88 37v26h324l61 94h32v-150h-25l-112 9h-97v-390l105 -37v-26h-288v26l88 37v374z" />
    <glyph glyph-name="endash" unicode="&#x2013;" horiz-adv-x="500" 
d="M500 230h-500v82h500v-82z" />
    <glyph glyph-name="emdash" unicode="&#x2014;" horiz-adv-x="1000" 
d="M1000 230h-1000v82h1000v-82z" />
    <glyph glyph-name="quoteleft" unicode="&#x2018;" horiz-adv-x="278" 
d="M133 586h13c41 0 63 -19 63 -53c0 -35 -25 -57 -64 -57c-50 0 -77 30 -77 84c0 78 38 125 118 148l13 -33c-49 -21 -65 -41 -66 -89z" />
    <glyph glyph-name="quoteright" unicode="&#x2019;" horiz-adv-x="279" 
d="M92 476l-13 33c49 21 64 41 66 90c-6 -1 -11 -1 -13 -1c-41 0 -63 19 -63 53c0 35 25 57 63 57c51 0 78 -29 78 -84c0 -78 -38 -125 -118 -148z" />
    <glyph glyph-name="quotesinglbase" unicode="&#x201a;" horiz-adv-x="279" 
d="M145 10h-13c-41 0 -63 19 -63 53s25 57 63 57c51 0 78 -29 78 -84c0 -78 -37 -125 -118 -149l-13 33c49 21 64 42 66 90z" />
    <glyph glyph-name="quotedblleft" unicode="&#x201c;" horiz-adv-x="463" 
d="M306 586h13c41 0 63 -19 63 -53c0 -35 -25 -57 -64 -57c-50 0 -77 30 -77 84c0 78 38 125 118 148l13 -33c-49 -21 -64 -41 -66 -89zM124 586h13c41 0 63 -19 63 -53c0 -35 -25 -57 -64 -57c-50 0 -77 30 -77 84c0 78 38 125 118 148l13 -33c-49 -21 -65 -41 -66 -89z
" />
    <glyph glyph-name="quotedblright" unicode="&#x201d;" horiz-adv-x="463" 
d="M275 476l-13 33c49 21 64 41 66 90c-5 -1 -11 -1 -13 -1c-41 0 -63 19 -63 53c0 35 25 57 63 57c51 0 78 -29 78 -84c0 -78 -37 -125 -118 -148zM93 476l-13 33c49 21 64 41 66 90c-6 -1 -11 -1 -13 -1c-41 0 -63 19 -63 53c0 35 25 57 63 57c51 0 78 -29 78 -84
c0 -78 -38 -125 -118 -148z" />
    <glyph glyph-name="quotedblbase" unicode="&#x201e;" horiz-adv-x="463" 
d="M328 10h-13c-41 0 -63 19 -63 53s25 57 63 57c51 0 78 -29 78 -84c0 -78 -37 -125 -118 -149l-13 33c50 21 64 42 66 90zM146 10h-13c-41 0 -63 19 -63 53s25 57 63 57c51 0 78 -29 78 -84c0 -78 -37 -125 -118 -149l-13 33c49 21 64 42 66 90z" />
    <glyph glyph-name="dagger" unicode="&#x2020;" horiz-adv-x="559" 
d="M494 430l-199 25c30 -53 43 -94 43 -132c0 -16 -1 -35 -3 -59l-46 -493h-19l-46 493c-2 24 -3 43 -3 59c0 38 13 79 43 132l-199 -25v88l191 -22l-32 212h111l-32 -212l191 22v-88z" />
    <glyph glyph-name="daggerdbl" unicode="&#x2021;" horiz-adv-x="556" 
d="M489 -38l-190 22l31 -213h-104l32 213l-191 -22v88l194 -26l-35 216l35 215l-194 -25v88l191 -22l-32 212h104l-31 -212l190 22v-85l-191 22l32 -215l-32 -216l191 23v-85z" />
    <glyph glyph-name="bullet" unicode="&#x2022;" horiz-adv-x="500" 
d="M431 358c0 -100 -81 -181 -181 -181s-181 81 -181 181s81 181 181 181s181 -81 181 -181z" />
    <glyph glyph-name="ellipsis" unicode="&#x2026;" horiz-adv-x="1000" 
d="M894 47c0 -34 -27 -61 -61 -61c-33 0 -60 27 -60 61c0 33 27 60 60 60c34 0 61 -27 61 -60zM561 47c0 -34 -27 -61 -60 -61c-34 0 -61 27 -61 61c0 33 27 60 61 60c33 0 60 -27 60 -60zM227 47c0 -34 -27 -61 -61 -61c-33 0 -60 27 -60 61c0 33 27 60 60 60
c34 0 61 -27 61 -60z" />
    <glyph glyph-name="perthousand" unicode="&#x2030;" horiz-adv-x="1021" 
d="M991 149c0 -91 -64 -157 -154 -157c-92 0 -152 60 -152 150c0 93 61 155 154 155c92 0 152 -58 152 -148zM336 556c0 -91 -64 -157 -154 -157c-91 0 -152 60 -152 150c0 93 62 155 154 155s152 -58 152 -148zM609 700l-485 -700h-63l485 700h63zM623 148
c0 -91 -64 -157 -154 -157c-92 0 -152 60 -152 150c0 93 61 155 154 155c92 0 152 -58 152 -148zM927 146c0 65 -33 103 -89 103s-89 -39 -89 -106c0 -63 33 -102 87 -102c56 0 91 40 91 105zM272 553c0 65 -33 103 -89 103s-89 -39 -89 -106c0 -63 33 -102 87 -102
c56 0 91 40 91 105zM559 145c0 65 -33 103 -89 103s-89 -39 -89 -106c0 -63 33 -102 87 -102c56 0 91 40 91 105z" />
    <glyph glyph-name="guilsinglleft" unicode="&#x2039;" horiz-adv-x="259" 
d="M211 57h-51l-116 199l116 202h51l-118 -202z" />
    <glyph glyph-name="guilsinglright" unicode="&#x203a;" horiz-adv-x="259" 
d="M217 259l-116 -202h-51l118 202l-118 199h51z" />
    <glyph glyph-name="Euro" unicode="&#x20ac;" 
d="M497 495h-37l-48 123c-11 2 -36 6 -78 6c-26 0 -134 -2 -134 -98c0 -99 70 -103 167 -103h70v-45h-364v45h167c-41 6 -146 13 -146 112c0 96 84 137 216 137c27 0 48 -2 118 -15c37 -8 69 -17 69 -17v-145zM503 177v-148c-24 -9 -73 -20 -85 -23c-32 -7 -68 -11 -108 -11
c-177 0 -246 65 -246 145c0 92 75 137 156 143h-147v44h364v-44h-88c-86 0 -175 -4 -175 -123c0 -101 82 -114 163 -114c25 0 57 1 79 5l50 126h37z" />
    <glyph glyph-name="afii61352" unicode="&#x2116;" horiz-adv-x="1068" 
d="M711 674l-87 -37v-647h-32l-424 584v-511l86 -37v-26h-229v26l87 37v574l-87 37v26h170l373 -506v443l-86 37v26h229v-26zM902 700c89 0 145 -63 145 -148c0 -100 -85 -147 -154 -147c-85 0 -146 61 -146 147c0 84 58 148 155 148zM895 662c-35 0 -75 -20 -75 -107
c0 -97 50 -111 80 -111c69 0 74 70 74 103c0 100 -50 115 -79 115zM1051 308h-308v48h308v-48z" />
    <glyph glyph-name="trademark" unicode="&#x2122;" horiz-adv-x="760" 
d="M731 387h-148v23l44 18v235l-112 -281h-22l-108 281v-234l45 -19v-23h-128v23l45 18v267l-45 19v23h112l101 -259l102 259h114v-23l-45 -18v-267l45 -19v-23zM290 641h-18l-34 63h-62v-275l55 -19v-23h-169v23l55 18v276h-64l-34 -63h-19v96h290v-96z" />
    <glyph glyph-name="Acute" unicode="&#xf6c9;" horiz-adv-x="295" 
d="M340 896l-200 -151h-53l109 151h144z" />
    <glyph glyph-name="Dieresis" unicode="&#xf6cb;" horiz-adv-x="241" 
d="M-20 792c0 18 6 33 14 41c5 5 15 12 35 12c17 0 29 -5 36 -12c9 -8 14 -22 14 -38c0 -14 -4 -28 -12 -36c-11 -12 -29 -13 -38 -13c-14 0 -29 2 -39 14c-8 9 -10 21 -10 32zM162 792c0 18 6 33 14 41c5 5 15 12 35 12c17 0 29 -5 36 -12c9 -8 14 -22 14 -38
c0 -14 -4 -28 -12 -36c-11 -12 -29 -13 -38 -13c-14 0 -29 2 -39 14c-8 9 -10 21 -10 32z" />
    <glyph glyph-name="cyrBreve" unicode="&#xf6d1;" horiz-adv-x="396" 
d="M282 809v88c10 4 23 7 35 7c14 0 31 -4 40 -13c12 -11 14 -27 14 -39c0 -36 -15 -56 -45 -74c-36 -22 -88 -33 -128 -33s-92 11 -128 33c-30 18 -45 38 -45 74c0 12 2 28 14 39c9 9 26 13 40 13c12 0 25 -3 35 -7v-88c25 -12 58 -17 84 -17s59 5 84 17z" />
    <glyph glyph-name="cyrbreve" unicode="&#xf6d4;" horiz-adv-x="357" 
d="M256 647v86c4 2 16 7 31 7c12 0 27 -5 36 -13c12 -11 13 -25 13 -38c0 -31 -8 -52 -41 -74c-32 -21 -76 -31 -117 -31c-40 0 -84 10 -116 31c-33 22 -41 43 -41 74c0 13 1 27 13 38c9 8 24 13 36 13c15 0 27 -5 31 -7v-86c27 -16 61 -18 77 -18c17 0 51 2 78 18z" />
    <glyph glyph-name="hyphenminus" horiz-adv-x="250" 
d="M240 229h-230v83h230v-83z" />
    <glyph glyph-name="nbspace" unicode="&#xa0;" horiz-adv-x="250" 
 />
    </font>
</defs>
</svg>
